<svg width="10" height="13" viewBox="0 0 10 13" fill="none" xmlns="http://www.w3.org/2000/svg">
<path d="M4.57574 12.125C4.81005 12.3594 5.18995 12.3594 5.42426 12.125L9.24264 8.30667C9.47696 8.07235 9.47696 7.69245 9.24264 7.45814C9.00833 7.22383 8.62843 7.22383 8.39411 7.45814L5 10.8523L1.60589 7.45814C1.37157 7.22383 0.991674 7.22383 0.757359 7.45814C0.523045 7.69245 0.523045 8.07235 0.757359 8.30667L4.57574 12.125ZM4.4 2.30078L4.4 4.50078H5.6L5.6 2.30078H4.4ZM4.4 4.50078L4.4 11.7008H5.6L5.6 4.50078H4.4ZM4 0.700781L1 0.700781V1.90078L4 1.90078V0.700781ZM5.6 2.30078C5.6 1.41713 4.88366 0.700781 4 0.700781V1.90078C4.22091 1.90078 4.4 2.07987 4.4 2.30078H5.6Z" fill="#828282"/>
</svg>
