<svg width="80" height="80" viewBox="0 0 80 80" fill="none" xmlns="http://www.w3.org/2000/svg">
<g filter="url(#filter0_d)">
<circle cx="40" cy="31" r="15" fill="white"/>
</g>
<path d="M39.6354 31.418C39.4112 31.418 39.2292 31.222 39.2292 30.9805V30.543H35.4375V30.9805C35.4375 31.222 35.2555 31.418 35.0312 31.418C34.807 31.418 34.625 31.222 34.625 30.9805V30.1055C34.625 29.864 34.807 29.668 35.0312 29.668H39.6354C39.8597 29.668 40.0417 29.864 40.0417 30.1055V30.9805C40.0417 31.222 39.8597 31.418 39.6354 31.418Z" fill="#5A6795"/>
<path d="M37.3333 35.3542C37.109 35.3542 36.927 35.1582 36.927 34.9167V30.25C36.927 30.0085 37.109 29.8125 37.3333 29.8125C37.5575 29.8125 37.7395 30.0085 37.7395 30.25V34.9167C37.7395 35.1582 37.5575 35.3542 37.3333 35.3542Z" fill="#5A6795"/>
<path d="M38.0104 35.5H36.6562C36.432 35.5 36.25 35.304 36.25 35.0625C36.25 34.821 36.432 34.625 36.6562 34.625H38.0104C38.2347 34.625 38.4167 34.821 38.4167 35.0625C38.4167 35.304 38.2347 35.5 38.0104 35.5Z" fill="#5A6795"/>
<path d="M43.9688 30.543H41.5312C41.307 30.543 41.125 30.347 41.125 30.1055C41.125 29.864 41.307 29.668 41.5312 29.668H43.9688C44.193 29.668 44.375 29.864 44.375 30.1055C44.375 30.347 44.193 30.543 43.9688 30.543Z" fill="#5A6795"/>
<path d="M43.9688 32.875H41.5312C41.307 32.875 41.125 32.679 41.125 32.4375C41.125 32.196 41.307 32 41.5312 32H43.9688C44.193 32 44.375 32.196 44.375 32.4375C44.375 32.679 44.193 32.875 43.9688 32.875Z" fill="#5A6795"/>
<path d="M43.9688 35.209H41.5312C41.307 35.209 41.125 35.013 41.125 34.7715C41.125 34.53 41.307 34.334 41.5312 34.334H43.9688C44.193 34.334 44.375 34.53 44.375 34.7715C44.375 35.013 44.193 35.209 43.9688 35.209Z" fill="#5A6795"/>
<path d="M44.5104 37.8333H34.4896C33.6679 37.8333 33 37.1141 33 36.2292V26.6042C33 25.7193 33.6679 25 34.4896 25H44.5104C45.3321 25 46 25.7193 46 26.6042V36.2292C46 37.1141 45.3321 37.8333 44.5104 37.8333ZM34.4896 25.875C34.1164 25.875 33.8125 26.2023 33.8125 26.6042V36.2292C33.8125 36.6311 34.1164 36.9583 34.4896 36.9583H44.5104C44.8836 36.9583 45.1875 36.6311 45.1875 36.2292V26.6042C45.1875 26.2023 44.8836 25.875 44.5104 25.875H34.4896Z" fill="#5A6795"/>
<path d="M45.5938 27.916H33.4062C33.182 27.916 33 27.72 33 27.4785C33 27.237 33.182 27.041 33.4062 27.041H45.5938C45.818 27.041 46 27.237 46 27.4785C46 27.72 45.818 27.916 45.5938 27.916Z" fill="#5A6795"/>
<defs>
<filter id="filter0_d" x="0" y="0" width="80" height="80" filterUnits="userSpaceOnUse" color-interpolation-filters="sRGB">
<feFlood flood-opacity="0" result="BackgroundImageFix"/>
<feColorMatrix in="SourceAlpha" type="matrix" values="0 0 0 0 0 0 0 0 0 0 0 0 0 0 0 0 0 0 127 0"/>
<feOffset dy="9"/>
<feGaussianBlur stdDeviation="12.5"/>
<feColorMatrix type="matrix" values="0 0 0 0 0 0 0 0 0 0.266447 0 0 0 0 0.625 0 0 0 0.22 0"/>
<feBlend mode="normal" in2="BackgroundImageFix" result="effect1_dropShadow"/>
<feBlend mode="normal" in="SourceGraphic" in2="effect1_dropShadow" result="shape"/>
</filter>
</defs>
</svg>
