<svg width="171" height="47" viewBox="0 0 171 47" fill="none" xmlns="http://www.w3.org/2000/svg">
<g opacity="0.26">
<g clip-path="url(#clip0)">
<path d="M164.784 36.168C164.436 36.168 164.153 36.4506 164.153 36.7987V38.0603C164.153 38.4084 164.436 38.691 164.784 38.691C165.132 38.691 165.415 38.4084 165.415 38.0603V36.7987C165.415 36.4506 165.132 36.168 164.784 36.168Z" fill="#F1F3F8"/>
<path d="M164.784 39.9531C164.436 39.9531 164.153 40.2357 164.153 40.5839V41.8454C164.153 42.1936 164.436 42.4762 164.784 42.4762C165.132 42.4762 165.415 42.1936 165.415 41.8454V40.5839C165.415 40.2357 165.132 39.9531 164.784 39.9531Z" fill="#F1F3F8"/>
<path d="M164.784 32.3828C164.436 32.3828 164.153 32.6654 164.153 33.0136V34.2751C164.153 34.6233 164.436 34.9059 164.784 34.9059C165.132 34.9059 165.415 34.6233 165.415 34.2751V33.0136C165.415 32.6654 165.132 32.3828 164.784 32.3828Z" fill="#F1F3F8"/>
<path d="M167.308 36.168C166.959 36.168 166.677 36.4506 166.677 36.7987V38.0603C166.677 38.4084 166.959 38.691 167.308 38.691C167.656 38.691 167.938 38.4084 167.938 38.0603V36.7987C167.938 36.4506 167.656 36.168 167.308 36.168Z" fill="#F1F3F8"/>
<path d="M167.308 32.3828C166.959 32.3828 166.677 32.6654 166.677 33.0136V34.2751C166.677 34.6233 166.959 34.9059 167.308 34.9059C167.656 34.9059 167.938 34.6233 167.938 34.2751V33.0136C167.938 32.6654 167.656 32.3828 167.308 32.3828Z" fill="#F1F3F8"/>
<path d="M167.308 39.9531C166.959 39.9531 166.677 40.2357 166.677 40.5839V41.8454C166.677 42.1936 166.959 42.4762 167.308 42.4762C167.656 42.4762 167.938 42.1936 167.938 41.8454V40.5839C167.938 40.2357 167.656 39.9531 167.308 39.9531Z" fill="#F1F3F8"/>
<path d="M197.584 15.3526H196.323V13.4603C196.323 13.1121 196.04 12.8295 195.692 12.8295H191.907C191.559 12.8295 191.276 13.1121 191.276 13.4603V15.3526H190.015C189.667 15.3526 189.384 15.6352 189.384 15.9833V26.0756H188.753V24.1833C188.753 23.8351 188.471 23.5526 188.123 23.5526H187.492V22.9218C187.492 22.5737 187.209 22.2911 186.861 22.2911C186.513 22.2911 186.23 22.5737 186.23 22.9218V23.5526H185.6C185.251 23.5526 184.969 23.8351 184.969 24.1833V26.0756H183.076V13.4603C183.076 13.1121 182.794 12.8295 182.446 12.8295H180.553V9.04488C180.553 8.69665 180.271 8.41406 179.923 8.41406H172.353C172.005 8.41406 171.723 8.69665 171.723 9.04481V12.8294H169.83C169.482 12.8294 169.2 13.112 169.2 13.4602V29.8602H167.938V27.9679C167.938 27.6198 167.655 27.3372 167.307 27.3372H163.523C163.174 27.3372 162.892 27.6198 162.892 27.9679V29.8602H162.261C161.913 29.8602 161.63 30.1428 161.63 30.491V45.6295C161.63 45.9776 161.913 46.2602 162.261 46.2602H169.83H174.877H190.015H197.584C197.932 46.2602 198.215 45.9776 198.215 45.6295V15.9833C198.215 15.6352 197.932 15.3526 197.584 15.3526ZM179.292 15.9833C179.292 15.6352 179.574 15.3526 179.923 15.3526C180.271 15.3526 180.553 15.6352 180.553 15.9833V26.0756H179.292V15.9833H179.292ZM176.769 11.5679C176.769 11.2198 177.051 10.9372 177.399 10.9372C177.748 10.9372 178.03 11.2198 178.03 11.5679V13.4603C178.03 13.8084 177.748 14.091 177.399 14.091C177.051 14.091 176.769 13.8084 176.769 13.4603V11.5679ZM176.769 15.9833C176.769 15.6352 177.051 15.3526 177.399 15.3526C177.748 15.3526 178.03 15.6352 178.03 15.9833V26.0756H176.769V15.9833H176.769ZM174.246 11.5679C174.246 11.2198 174.528 10.9372 174.876 10.9372C175.225 10.9372 175.507 11.2198 175.507 11.5679V13.4603C175.507 13.8084 175.225 14.091 174.876 14.091C174.528 14.091 174.246 13.8084 174.246 13.4603V11.5679ZM171.723 15.9833C171.723 15.6352 172.005 15.3526 172.353 15.3526C172.702 15.3526 172.984 15.6352 172.984 15.9833V29.8602H171.723V15.9833H171.723ZM174.246 43.7372H172.353C172.005 43.7372 171.723 43.4546 171.723 43.1065C171.723 42.7583 172.005 42.4757 172.353 42.4757H174.246V43.7372ZM174.246 41.2141H172.353C172.005 41.2141 171.723 40.9315 171.723 40.5834C171.723 40.2352 172.005 39.9526 172.353 39.9526H174.246V41.2141ZM174.246 38.691H172.353C172.005 38.691 171.723 38.4085 171.723 38.0603C171.723 37.7121 172.005 37.4296 172.353 37.4296H174.246V38.691ZM174.246 36.168H172.353C172.005 36.168 171.723 35.8854 171.723 35.5372C171.723 35.1891 172.005 34.9065 172.353 34.9065H174.246V36.168ZM174.246 32.3834H169.83C169.482 32.3834 169.2 32.666 169.2 33.0141V44.9987H162.892V31.1218H163.523H167.307H169.83H172.353H174.246V32.3834ZM174.246 26.7064V15.9833C174.246 15.6352 174.528 15.3526 174.876 15.3526C175.225 15.3526 175.507 15.6352 175.507 15.9833V26.0756H174.876C174.528 26.0756 174.246 26.3582 174.246 26.7064ZM189.384 44.9987H188.123V29.2295C188.123 28.8813 187.84 28.5987 187.492 28.5987C187.144 28.5987 186.861 28.8813 186.861 29.2295V44.9987H185.6V29.2295C185.6 28.8813 185.317 28.5987 184.969 28.5987C184.621 28.5987 184.338 28.8813 184.338 29.2295V44.9987H183.076V29.2295C183.076 28.8813 182.794 28.5987 182.446 28.5987C182.098 28.5987 181.815 28.8813 181.815 29.2295V44.9987H180.553V29.2295C180.553 28.8813 180.271 28.5987 179.923 28.5987C179.575 28.5987 179.292 28.8813 179.292 29.2295V44.9987H178.03V29.2295C178.03 28.8813 177.748 28.5987 177.4 28.5987C177.051 28.5987 176.769 28.8813 176.769 29.2295V44.9987H175.507V43.1064V40.5834V38.0603V35.5372V33.0141V30.4911V27.3372H177.4H179.923H182.446H185.6H188.123H189.384V44.9987ZM193.169 42.5987C193.169 42.9468 192.886 43.2294 192.538 43.2294C192.19 43.2294 191.907 42.9468 191.907 42.5987V41.3371C191.907 40.9889 192.19 40.7064 192.538 40.7064C192.886 40.7064 193.169 40.9889 193.169 41.3371V42.5987ZM193.169 38.814C193.169 39.1622 192.886 39.4448 192.538 39.4448C192.19 39.4448 191.907 39.1622 191.907 38.814V37.5525C191.907 37.2043 192.19 36.9217 192.538 36.9217C192.886 36.9217 193.169 37.2043 193.169 37.5525V38.814ZM193.169 35.0294C193.169 35.3776 192.886 35.6602 192.538 35.6602C192.19 35.6602 191.907 35.3776 191.907 35.0294V33.7679C191.907 33.4197 192.19 33.1371 192.538 33.1371C192.886 33.1371 193.169 33.4197 193.169 33.7679V35.0294ZM193.169 31.2448C193.169 31.593 192.886 31.8755 192.538 31.8755C192.19 31.8755 191.907 31.593 191.907 31.2448V29.9832C191.907 29.6351 192.19 29.3525 192.538 29.3525C192.886 29.3525 193.169 29.6351 193.169 29.9832V31.2448ZM193.169 27.4602C193.169 27.8083 192.886 28.0909 192.538 28.0909C192.19 28.0909 191.907 27.8083 191.907 27.4602V26.1986C191.907 25.8505 192.19 25.5679 192.538 25.5679C192.886 25.5679 193.169 25.8505 193.169 26.1986V27.4602ZM193.169 23.6756C193.169 24.0237 192.886 24.3063 192.538 24.3063C192.19 24.3063 191.907 24.0237 191.907 23.6756V22.414C191.907 22.0658 192.19 21.7832 192.538 21.7832C192.886 21.7832 193.169 22.0658 193.169 22.414V23.6756ZM193.169 19.8909C193.169 20.2391 192.886 20.5217 192.538 20.5217C192.19 20.5217 191.907 20.2391 191.907 19.8909V18.6294C191.907 18.2812 192.19 17.9986 192.538 17.9986C192.886 17.9986 193.169 18.2812 193.169 18.6294V19.8909ZM195.692 42.5987C195.692 42.9468 195.409 43.2294 195.061 43.2294C194.713 43.2294 194.43 42.9468 194.43 42.5987V41.3371C194.43 40.9889 194.713 40.7064 195.061 40.7064C195.409 40.7064 195.692 40.9889 195.692 41.3371V42.5987ZM195.692 38.814C195.692 39.1622 195.409 39.4448 195.061 39.4448C194.713 39.4448 194.43 39.1622 194.43 38.814V37.5525C194.43 37.2043 194.713 36.9217 195.061 36.9217C195.409 36.9217 195.692 37.2043 195.692 37.5525V38.814ZM195.692 35.0294C195.692 35.3776 195.409 35.6602 195.061 35.6602C194.713 35.6602 194.43 35.3776 194.43 35.0294V33.7679C194.43 33.4197 194.713 33.1371 195.061 33.1371C195.409 33.1371 195.692 33.4197 195.692 33.7679V35.0294ZM195.692 31.2448C195.692 31.593 195.409 31.8755 195.061 31.8755C194.713 31.8755 194.43 31.593 194.43 31.2448V29.9832C194.43 29.6351 194.713 29.3525 195.061 29.3525C195.409 29.3525 195.692 29.6351 195.692 29.9832V31.2448ZM195.692 27.4602C195.692 27.8083 195.409 28.0909 195.061 28.0909C194.713 28.0909 194.43 27.8083 194.43 27.4602V26.1986C194.43 25.8505 194.713 25.5679 195.061 25.5679C195.409 25.5679 195.692 25.8505 195.692 26.1986V27.4602ZM195.692 23.6756C195.692 24.0237 195.409 24.3063 195.061 24.3063C194.713 24.3063 194.43 24.0237 194.43 23.6756V22.414C194.43 22.0658 194.713 21.7832 195.061 21.7832C195.409 21.7832 195.692 22.0658 195.692 22.414V23.6756ZM195.692 19.8909C195.692 20.2391 195.409 20.5217 195.061 20.5217C194.713 20.5217 194.43 20.2391 194.43 19.8909V18.6294C194.43 18.2812 194.713 17.9986 195.061 17.9986C195.409 17.9986 195.692 18.2812 195.692 18.6294V19.8909Z" fill="#F1F3F8"/>
</g>
<g clip-path="url(#clip1)">
<path d="M160.216 36.168C160.564 36.168 160.847 36.4506 160.847 36.7987V38.0603C160.847 38.4084 160.564 38.691 160.216 38.691C159.868 38.691 159.585 38.4084 159.585 38.0603V36.7987C159.585 36.4506 159.868 36.168 160.216 36.168Z" fill="#F1F3F8"/>
<path d="M160.216 39.9531C160.564 39.9531 160.847 40.2357 160.847 40.5839V41.8454C160.847 42.1936 160.564 42.4762 160.216 42.4762C159.868 42.4762 159.585 42.1936 159.585 41.8454V40.5839C159.585 40.2357 159.868 39.9531 160.216 39.9531Z" fill="#F1F3F8"/>
<path d="M160.216 32.3828C160.564 32.3828 160.847 32.6654 160.847 33.0136V34.2751C160.847 34.6233 160.564 34.9059 160.216 34.9059C159.868 34.9059 159.585 34.6233 159.585 34.2751V33.0136C159.585 32.6654 159.868 32.3828 160.216 32.3828Z" fill="#F1F3F8"/>
<path d="M157.692 36.168C158.041 36.168 158.323 36.4506 158.323 36.7987V38.0603C158.323 38.4084 158.041 38.691 157.692 38.691C157.344 38.691 157.062 38.4084 157.062 38.0603V36.7987C157.062 36.4506 157.344 36.168 157.692 36.168Z" fill="#F1F3F8"/>
<path d="M157.692 32.3828C158.041 32.3828 158.323 32.6654 158.323 33.0136V34.2751C158.323 34.6233 158.041 34.9059 157.692 34.9059C157.344 34.9059 157.062 34.6233 157.062 34.2751V33.0136C157.062 32.6654 157.344 32.3828 157.692 32.3828Z" fill="#F1F3F8"/>
<path d="M157.692 39.9531C158.041 39.9531 158.323 40.2357 158.323 40.5839V41.8454C158.323 42.1936 158.041 42.4762 157.692 42.4762C157.344 42.4762 157.062 42.1936 157.062 41.8454V40.5839C157.062 40.2357 157.344 39.9531 157.692 39.9531Z" fill="#F1F3F8"/>
<path d="M127.416 15.3526H128.677V13.4603C128.677 13.1121 128.96 12.8295 129.308 12.8295H133.093C133.441 12.8295 133.724 13.1121 133.724 13.4603V15.3526H134.985C135.333 15.3526 135.616 15.6352 135.616 15.9833V26.0756H136.247V24.1833C136.247 23.8351 136.529 23.5526 136.877 23.5526H137.508V22.9218C137.508 22.5737 137.791 22.2911 138.139 22.2911C138.487 22.2911 138.77 22.5737 138.77 22.9218V23.5526H139.4C139.749 23.5526 140.031 23.8351 140.031 24.1833V26.0756H141.924V13.4603C141.924 13.1121 142.206 12.8295 142.554 12.8295H144.447V9.04488C144.447 8.69665 144.729 8.41406 145.077 8.41406H152.647C152.995 8.41406 153.277 8.69665 153.277 9.04481V12.8294H155.17C155.518 12.8294 155.8 13.112 155.8 13.4602V29.8602H157.062V27.9679C157.062 27.6198 157.345 27.3372 157.693 27.3372H161.477C161.826 27.3372 162.108 27.6198 162.108 27.9679V29.8602H162.739C163.087 29.8602 163.37 30.1428 163.37 30.491V45.6295C163.37 45.9776 163.087 46.2602 162.739 46.2602H155.17H150.123H134.985H127.416C127.068 46.2602 126.785 45.9776 126.785 45.6295V15.9833C126.785 15.6352 127.068 15.3526 127.416 15.3526ZM145.708 15.9833C145.708 15.6352 145.426 15.3526 145.077 15.3526C144.729 15.3526 144.447 15.6352 144.447 15.9833V26.0756H145.708V15.9833H145.708ZM148.231 11.5679C148.231 11.2198 147.949 10.9372 147.601 10.9372C147.252 10.9372 146.97 11.2198 146.97 11.5679V13.4603C146.97 13.8084 147.252 14.091 147.601 14.091C147.949 14.091 148.231 13.8084 148.231 13.4603V11.5679ZM148.231 15.9833C148.231 15.6352 147.949 15.3526 147.601 15.3526C147.252 15.3526 146.97 15.6352 146.97 15.9833V26.0756H148.231V15.9833H148.231ZM150.754 11.5679C150.754 11.2198 150.472 10.9372 150.124 10.9372C149.775 10.9372 149.493 11.2198 149.493 11.5679V13.4603C149.493 13.8084 149.775 14.091 150.124 14.091C150.472 14.091 150.754 13.8084 150.754 13.4603V11.5679ZM153.277 15.9833C153.277 15.6352 152.995 15.3526 152.647 15.3526C152.298 15.3526 152.016 15.6352 152.016 15.9833V29.8602H153.277V15.9833H153.277ZM150.754 43.7372H152.647C152.995 43.7372 153.277 43.4546 153.277 43.1065C153.277 42.7583 152.995 42.4757 152.647 42.4757H150.754V43.7372ZM150.754 41.2141H152.647C152.995 41.2141 153.277 40.9315 153.277 40.5834C153.277 40.2352 152.995 39.9526 152.647 39.9526H150.754V41.2141ZM150.754 38.691H152.647C152.995 38.691 153.277 38.4085 153.277 38.0603C153.277 37.7121 152.995 37.4296 152.647 37.4296H150.754V38.691ZM150.754 36.168H152.647C152.995 36.168 153.277 35.8854 153.277 35.5372C153.277 35.1891 152.995 34.9065 152.647 34.9065H150.754V36.168ZM150.754 32.3834H155.17C155.518 32.3834 155.8 32.666 155.8 33.0141V44.9987H162.108V31.1218H161.477H157.693H155.17H152.647H150.754V32.3834ZM150.754 26.7064V15.9833C150.754 15.6352 150.472 15.3526 150.124 15.3526C149.775 15.3526 149.493 15.6352 149.493 15.9833V26.0756H150.124C150.472 26.0756 150.754 26.3582 150.754 26.7064ZM135.616 44.9987H136.877V29.2295C136.877 28.8813 137.16 28.5987 137.508 28.5987C137.856 28.5987 138.139 28.8813 138.139 29.2295V44.9987H139.4V29.2295C139.4 28.8813 139.683 28.5987 140.031 28.5987C140.379 28.5987 140.662 28.8813 140.662 29.2295V44.9987H141.924V29.2295C141.924 28.8813 142.206 28.5987 142.554 28.5987C142.902 28.5987 143.185 28.8813 143.185 29.2295V44.9987H144.447V29.2295C144.447 28.8813 144.729 28.5987 145.077 28.5987C145.425 28.5987 145.708 28.8813 145.708 29.2295V44.9987H146.97V29.2295C146.97 28.8813 147.252 28.5987 147.6 28.5987C147.949 28.5987 148.231 28.8813 148.231 29.2295V44.9987H149.493V43.1064V40.5834V38.0603V35.5372V33.0141V30.4911V27.3372H147.6H145.077H142.554H139.4H136.877H135.616V44.9987ZM131.831 42.5987C131.831 42.9468 132.114 43.2294 132.462 43.2294C132.81 43.2294 133.093 42.9468 133.093 42.5987V41.3371C133.093 40.9889 132.81 40.7064 132.462 40.7064C132.114 40.7064 131.831 40.9889 131.831 41.3371V42.5987ZM131.831 38.814C131.831 39.1622 132.114 39.4448 132.462 39.4448C132.81 39.4448 133.093 39.1622 133.093 38.814V37.5525C133.093 37.2043 132.81 36.9217 132.462 36.9217C132.114 36.9217 131.831 37.2043 131.831 37.5525V38.814ZM131.831 35.0294C131.831 35.3776 132.114 35.6602 132.462 35.6602C132.81 35.6602 133.093 35.3776 133.093 35.0294V33.7679C133.093 33.4197 132.81 33.1371 132.462 33.1371C132.114 33.1371 131.831 33.4197 131.831 33.7679V35.0294ZM131.831 31.2448C131.831 31.593 132.114 31.8755 132.462 31.8755C132.81 31.8755 133.093 31.593 133.093 31.2448V29.9832C133.093 29.6351 132.81 29.3525 132.462 29.3525C132.114 29.3525 131.831 29.6351 131.831 29.9832V31.2448ZM131.831 27.4602C131.831 27.8083 132.114 28.0909 132.462 28.0909C132.81 28.0909 133.093 27.8083 133.093 27.4602V26.1986C133.093 25.8505 132.81 25.5679 132.462 25.5679C132.114 25.5679 131.831 25.8505 131.831 26.1986V27.4602ZM131.831 23.6756C131.831 24.0237 132.114 24.3063 132.462 24.3063C132.81 24.3063 133.093 24.0237 133.093 23.6756V22.414C133.093 22.0658 132.81 21.7832 132.462 21.7832C132.114 21.7832 131.831 22.0658 131.831 22.414V23.6756ZM131.831 19.8909C131.831 20.2391 132.114 20.5217 132.462 20.5217C132.81 20.5217 133.093 20.2391 133.093 19.8909V18.6294C133.093 18.2812 132.81 17.9986 132.462 17.9986C132.114 17.9986 131.831 18.2812 131.831 18.6294V19.8909ZM129.308 42.5987C129.308 42.9468 129.591 43.2294 129.939 43.2294C130.287 43.2294 130.57 42.9468 130.57 42.5987V41.3371C130.57 40.9889 130.287 40.7064 129.939 40.7064C129.591 40.7064 129.308 40.9889 129.308 41.3371V42.5987ZM129.308 38.814C129.308 39.1622 129.591 39.4448 129.939 39.4448C130.287 39.4448 130.57 39.1622 130.57 38.814V37.5525C130.57 37.2043 130.287 36.9217 129.939 36.9217C129.591 36.9217 129.308 37.2043 129.308 37.5525V38.814ZM129.308 35.0294C129.308 35.3776 129.591 35.6602 129.939 35.6602C130.287 35.6602 130.57 35.3776 130.57 35.0294V33.7679C130.57 33.4197 130.287 33.1371 129.939 33.1371C129.591 33.1371 129.308 33.4197 129.308 33.7679V35.0294ZM129.308 31.2448C129.308 31.593 129.591 31.8755 129.939 31.8755C130.287 31.8755 130.57 31.593 130.57 31.2448V29.9832C130.57 29.6351 130.287 29.3525 129.939 29.3525C129.591 29.3525 129.308 29.6351 129.308 29.9832V31.2448ZM129.308 27.4602C129.308 27.8083 129.591 28.0909 129.939 28.0909C130.287 28.0909 130.57 27.8083 130.57 27.4602V26.1986C130.57 25.8505 130.287 25.5679 129.939 25.5679C129.591 25.5679 129.308 25.8505 129.308 26.1986V27.4602ZM129.308 23.6756C129.308 24.0237 129.591 24.3063 129.939 24.3063C130.287 24.3063 130.57 24.0237 130.57 23.6756V22.414C130.57 22.0658 130.287 21.7832 129.939 21.7832C129.591 21.7832 129.308 22.0658 129.308 22.414V23.6756ZM129.308 19.8909C129.308 20.2391 129.591 20.5217 129.939 20.5217C130.287 20.5217 130.57 20.2391 130.57 19.8909V18.6294C130.57 18.2812 130.287 17.9986 129.939 17.9986C129.591 17.9986 129.308 18.2812 129.308 18.6294V19.8909Z" fill="#F1F3F8"/>
</g>
<g clip-path="url(#clip2)">
<path d="M81.2645 35.2233H85.6538V29.7801C85.6538 29.4122 85.9521 29.1139 86.32 29.1139C86.6878 29.1139 86.9861 29.4122 86.9861 29.7801V44.8557H96.088H98.4189V41.8849V39.8865V36.0561V34.0577V30.2275V28.2291V25.065H86.9861V26.6711C86.9861 27.0389 86.6878 27.3372 86.32 27.3372C85.9521 27.3372 85.6538 27.0389 85.6538 26.6711V24.3989C85.6538 24.031 85.9521 23.7327 86.32 23.7327H95.4218V2.13882C95.4218 1.77096 95.7201 1.47266 96.088 1.47266H109.943C110.311 1.47266 110.609 1.77096 110.609 2.13882V12.1043H119.226C119.594 12.1043 119.893 12.4026 119.893 12.7705V29.1489H124.787C125.155 29.1489 125.453 29.4472 125.453 29.8151V45.5218C125.453 45.8897 125.155 46.188 124.787 46.188H119.226H105.371C105.37 46.188 105.37 46.1879 105.369 46.1879H99.0851H96.088H86.3216C86.3211 46.1879 86.3205 46.188 86.32 46.188H81.2645C80.8966 46.188 80.5983 45.8897 80.5983 45.5218V35.8894C80.5983 35.5216 80.8966 35.2233 81.2645 35.2233ZM119.893 44.8556H124.121V30.4813H119.893V44.8556ZM106.037 44.8556H109.943V44.8557H118.56V41.1719H106.037V44.8556ZM106.037 35.3543H112.041C112.409 35.3543 112.707 35.6526 112.707 36.0205C112.707 36.3883 112.409 36.6866 112.041 36.6866H106.037V39.8396H118.56V36.6866H115.15C114.782 36.6866 114.484 36.3883 114.484 36.0205C114.484 35.6526 114.782 35.3543 115.15 35.3543H118.56V32.2013H106.037V35.3543ZM106.037 30.8692H118.56V29.8151V27.7161H106.037V30.8692ZM106.037 26.3839H118.56V23.231H106.037V26.3839ZM106.037 21.8987H118.56V18.7457H106.037V21.8987ZM106.037 17.4134H118.56V13.4365H106.037V17.4134ZM99.7512 24.399V28.2292V30.2276V34.0579V36.0563V39.8867V41.8851V44.8559H104.705V12.7704C104.705 12.4025 105.003 12.1042 105.371 12.1042H106.279V10.772C106.279 10.4041 106.577 10.1058 106.945 10.1058C107.313 10.1058 107.612 10.4041 107.612 10.772V12.1042H109.277V2.80498H96.7542V23.7328H99.0852C99.453 23.7328 99.7512 24.031 99.7512 24.399ZM81.9307 44.8556H85.6537V36.5555H81.9307V44.8556Z" fill="#F1F3F8"/>
<path d="M99.0848 15.9062C99.4528 15.9062 99.751 16.2046 99.751 16.5724V18.5708C99.751 18.9388 99.4527 19.237 99.0848 19.237C98.7169 19.237 98.4187 18.9387 98.4187 18.5708V16.5724C98.4187 16.2046 98.7169 15.9062 99.0848 15.9062Z" fill="#F1F3F8"/>
<path d="M103.015 15.9062C103.383 15.9062 103.682 16.2046 103.682 16.5724V18.5708C103.682 18.9388 103.383 19.237 103.015 19.237C102.648 19.237 102.349 18.9387 102.349 18.5708V16.5724C102.349 16.2046 102.648 15.9062 103.015 15.9062Z" fill="#F1F3F8"/>
<path d="M99.0848 10.1055C99.4528 10.1055 99.751 10.4038 99.751 10.7716V12.77C99.751 13.1379 99.4527 13.4362 99.0848 13.4362C98.7169 13.4362 98.4187 13.1379 98.4187 12.77V10.7716C98.4187 10.4038 98.7169 10.1055 99.0848 10.1055Z" fill="#F1F3F8"/>
<path d="M103.015 10.1055C103.383 10.1055 103.682 10.4038 103.682 10.7716V12.77C103.682 13.1379 103.383 13.4362 103.015 13.4362C102.648 13.4362 102.349 13.1379 102.349 12.77V10.7716C102.349 10.4038 102.648 10.1055 103.015 10.1055Z" fill="#F1F3F8"/>
<path d="M106.946 4.30469C107.314 4.30469 107.612 4.60299 107.612 4.97085V6.96925C107.612 7.33712 107.314 7.63542 106.946 7.63542C106.578 7.63542 106.279 7.33712 106.279 6.96925V4.97085C106.279 4.60299 106.578 4.30469 106.946 4.30469Z" fill="#F1F3F8"/>
<path d="M99.0848 4.30469C99.4528 4.30469 99.751 4.60299 99.751 4.97085V6.96925C99.751 7.33712 99.4527 7.63542 99.0848 7.63542C98.7169 7.63542 98.4187 7.33712 98.4187 6.96925V4.97085C98.4187 4.60299 98.7169 4.30469 99.0848 4.30469Z" fill="#F1F3F8"/>
<path d="M103.015 4.30469C103.383 4.30469 103.682 4.60299 103.682 4.97085V6.96925C103.682 7.33712 103.383 7.63542 103.015 7.63542C102.648 7.63542 102.349 7.33712 102.349 6.96925V4.97085C102.349 4.60299 102.648 4.30469 103.015 4.30469Z" fill="#F1F3F8"/>
<path d="M99.4408 21.8391C99.7104 22.0087 99.8239 22.3616 99.6999 22.6562C99.5935 22.9074 99.3431 23.0737 99.069 23.0669C98.7897 23.0601 98.5411 22.8753 98.4527 22.6104C98.2585 22.0277 98.9248 21.5145 99.4408 21.8391Z" fill="#F1F3F8"/>
<path d="M103.015 21.7344C103.383 21.7344 103.682 22.0327 103.682 22.4005V24.3989C103.682 24.7669 103.383 25.0651 103.015 25.0651C102.648 25.0651 102.349 24.7668 102.349 24.3989V22.4005C102.349 22.0326 102.648 21.7344 103.015 21.7344Z" fill="#F1F3F8"/>
<path d="M103.015 39.2188C103.383 39.2188 103.682 39.5171 103.682 39.8849V41.8833C103.682 42.2512 103.383 42.5495 103.015 42.5495C102.648 42.5495 102.349 42.2512 102.349 41.8833V39.8849C102.349 39.517 102.648 39.2188 103.015 39.2188Z" fill="#F1F3F8"/>
<path d="M103.015 33.3906C103.383 33.3906 103.682 33.6889 103.682 34.0568V36.0552C103.682 36.4231 103.383 36.7214 103.015 36.7214C102.648 36.7214 102.349 36.4231 102.349 36.0552V34.0568C102.349 33.6889 102.648 33.3906 103.015 33.3906Z" fill="#F1F3F8"/>
<path d="M103.015 27.5625C103.383 27.5625 103.682 27.8608 103.682 28.2287V30.2271C103.682 30.5949 103.383 30.8932 103.015 30.8932C102.648 30.8932 102.349 30.5949 102.349 30.2271V28.2287C102.349 27.8607 102.648 27.5625 103.015 27.5625Z" fill="#F1F3F8"/>
<path d="M89.0178 39.0195H96.3875C96.7555 39.0195 97.0537 39.3178 97.0537 39.6857C97.0537 40.0536 96.7555 40.3519 96.3875 40.3519H89.0178C88.6498 40.3519 88.3516 40.0536 88.3516 39.6857C88.3516 39.3178 88.6497 39.0195 89.0178 39.0195Z" fill="#F1F3F8"/>
<path d="M89.0178 42.168H96.3875C96.7555 42.168 97.0537 42.4663 97.0537 42.8341C97.0537 43.202 96.7555 43.5003 96.3875 43.5003H89.0178C88.6498 43.5003 88.3516 43.202 88.3516 42.8341C88.3516 42.4662 88.6497 42.168 89.0178 42.168Z" fill="#F1F3F8"/>
<path d="M89.0178 35.8672H96.3875C96.7555 35.8672 97.0537 36.1655 97.0537 36.5334C97.0537 36.9012 96.7555 37.1995 96.3875 37.1995H89.0178C88.6498 37.1995 88.3516 36.9012 88.3516 36.5334C88.3516 36.1655 88.6497 35.8672 89.0178 35.8672Z" fill="#F1F3F8"/>
<path d="M89.0178 26.4219H96.3875C96.7555 26.4219 97.0537 26.7202 97.0537 27.088C97.0537 27.4559 96.7555 27.7542 96.3875 27.7542H89.0178C88.6498 27.7542 88.3516 27.4559 88.3516 27.088C88.3516 26.7202 88.6497 26.4219 89.0178 26.4219Z" fill="#F1F3F8"/>
<path d="M89.0178 32.7188H96.3875C96.7555 32.7188 97.0537 33.0171 97.0537 33.3849C97.0537 33.7528 96.7555 34.0511 96.3875 34.0511H89.0178C88.6498 34.0511 88.3516 33.7528 88.3516 33.3849C88.3516 33.0171 88.6497 32.7188 89.0178 32.7188Z" fill="#F1F3F8"/>
<path d="M89.0178 29.5703H96.3875C96.7555 29.5703 97.0537 29.8686 97.0537 30.2365C97.0537 30.6043 96.7555 30.9026 96.3875 30.9026H89.0178C88.6498 30.9026 88.3516 30.6043 88.3516 30.2365C88.3516 29.8686 88.6497 29.5703 89.0178 29.5703Z" fill="#F1F3F8"/>
<path d="M122.007 31.5391C122.375 31.5391 122.673 31.8374 122.673 32.2052V33.9371C122.673 34.305 122.375 34.6033 122.007 34.6033C121.639 34.6033 121.341 34.305 121.341 33.9371V32.2052C121.341 31.8374 121.639 31.5391 122.007 31.5391Z" fill="#F1F3F8"/>
<path d="M122.007 36.1367C122.375 36.1367 122.673 36.435 122.673 36.8029V38.5348C122.673 38.9026 122.375 39.201 122.007 39.201C121.639 39.201 121.341 38.9026 121.341 38.5348V36.8029C121.341 36.4349 121.639 36.1367 122.007 36.1367Z" fill="#F1F3F8"/>
<path d="M122.007 40.7344C122.375 40.7344 122.673 41.0327 122.673 41.4005V43.1324C122.673 43.5003 122.375 43.7986 122.007 43.7986C121.639 43.7986 121.341 43.5003 121.341 43.1324V41.4005C121.341 41.0326 121.639 40.7344 122.007 40.7344Z" fill="#F1F3F8"/>
<path d="M83.7918 38.1523C84.1598 38.1523 84.458 38.4506 84.458 38.8185V40.7038C84.458 41.0717 84.1598 41.37 83.7918 41.37C83.4239 41.37 83.1257 41.0717 83.1257 40.7038V38.8185C83.1257 38.4506 83.4239 38.1523 83.7918 38.1523Z" fill="#F1F3F8"/>
<path d="M85.7452 14.3086H93.8719C94.2399 14.3086 94.5381 14.6069 94.5381 14.9748C94.5381 15.3426 94.2399 15.6409 93.8719 15.6409H85.7452C85.3773 15.6409 85.0791 15.3426 85.0791 14.9748C85.0791 14.6069 85.3773 14.3086 85.7452 14.3086Z" fill="#F1F3F8"/>
<path d="M83.2141 17.1016H89.076C89.444 17.1016 89.7422 17.3999 89.7422 17.7677C89.7422 18.1356 89.444 18.4339 89.076 18.4339H83.2141C82.8461 18.4339 82.5479 18.1356 82.5479 17.7677C82.5479 17.3999 82.8461 17.1016 83.2141 17.1016Z" fill="#F1F3F8"/>
<path d="M113.456 6.44531H119.318C119.686 6.44531 119.984 6.74361 119.984 7.11148C119.984 7.47934 119.686 7.77764 119.318 7.77764H113.456C113.088 7.77764 112.79 7.47934 112.79 7.11148C112.79 6.74361 113.088 6.44531 113.456 6.44531Z" fill="#F1F3F8"/>
<path d="M116.786 8.66797H122.648C123.016 8.66797 123.314 8.96627 123.314 9.33413C123.314 9.70199 123.016 10.0003 122.648 10.0003H116.786C116.418 10.0003 116.12 9.70199 116.12 9.33413C116.12 8.96627 116.418 8.66797 116.786 8.66797Z" fill="#F1F3F8"/>
</g>
<path d="M48.6528 37.3047H47.1607V43.2733H48.6528V37.3047Z" fill="#F1F3F8"/>
<path d="M45.6685 37.3047H44.1763V43.2733H45.6685V37.3047Z" fill="#F1F3F8"/>
<path d="M38.2077 26.1051V10.445H39.6998V2.84925L41.192 3.09769V1.49215H42.6841V3.34688L44.1763 3.59532V0H45.6684V3.84451L47.1606 4.09295V1.49215H48.6527V4.3414L50.1448 4.58984V10.445H51.637V17.9057H57.6056V7.46073H60.5899V2.98429H62.082V0H69.5427V2.98429H71.0349V7.46073H74.0192V21.4011C75.565 22.139 76.6909 23.611 76.9438 25.3665H78.4956V46.2565H32.2391V25.2523L38.2077 26.1051ZM48.6527 5.85443L41.192 4.61073V10.445H48.6527V5.85443ZM50.1448 11.9372H39.6998V26.3185L44.1763 26.9578V30.8382L46.4145 27.8539L48.6527 30.8382V17.9057H50.1448V11.9372ZM50.1448 20.89H60.5899V19.3979H50.1448V20.89ZM50.1448 35.8115H42.6841V44.7644H50.1448V35.8115ZM49.3988 34.3193L46.4145 30.3405L43.4302 34.3193H49.3988ZM68.0506 1.49215H63.5742V2.98429H68.0506V1.49215ZM69.5427 4.47644H62.082V7.46073H69.5427V4.47644ZM72.527 8.95287H59.0977V17.9057H62.082V21.4011C62.7617 21.0773 63.5189 20.89 64.3202 20.89H71.781C72.0346 20.89 72.2823 20.9147 72.527 20.9497V8.95287ZM71.781 22.3822H64.3202C62.5192 22.3822 61.0121 23.6662 60.6652 25.3665H75.436C75.089 23.6662 73.582 22.3822 71.781 22.3822ZM59.0977 26.8586V28.3508H77.0035V26.8586H59.0977ZM62.082 40.2879H65.0663V37.3036H62.082V40.2879ZM66.5584 40.2879H69.5427V37.3036H66.5584V40.2879ZM66.5584 41.7801V44.7644H69.5427V41.7801H66.5584ZM65.0663 41.7801H62.082V44.7644H65.0663V41.7801ZM62.082 35.8115H65.0663V32.8272H62.082V35.8115ZM66.5584 35.8115H69.5427V32.8272H66.5584V35.8115ZM71.0349 35.8115H74.0192V32.8272H71.0349V35.8115ZM74.0192 37.3036H71.0349V40.2879H74.0192V37.3036ZM74.0192 41.7801H71.0349V44.7644H74.0192V41.7801ZM60.5899 44.7644V31.335H75.5113V44.7644H77.0035V29.8429H59.0977V44.7644H60.5899ZM59.1574 25.3665C59.3186 24.2459 59.8333 23.2379 60.5899 22.465V22.3822H50.1448V32.8272L51.637 34.817V44.7644H57.6056V25.3665H59.1574ZM33.7313 44.7644H41.192V34.817L42.6841 32.8272V28.2515L33.7313 26.9728V44.7644Z" fill="#F1F3F8"/>
<path d="M56.1133 23.875H54.6211V25.3671H56.1133V23.875Z" fill="#F1F3F8"/>
<path d="M56.1133 41.7812H54.6211V43.2734H56.1133V41.7812Z" fill="#F1F3F8"/>
<path d="M56.1133 26.8594H54.6211V28.3515H56.1133V26.8594Z" fill="#F1F3F8"/>
<path d="M56.1133 38.7969H54.6211V40.289H56.1133V38.7969Z" fill="#F1F3F8"/>
<path d="M56.1133 32.8281H54.6211V34.3203H56.1133V32.8281Z" fill="#F1F3F8"/>
<path d="M56.1133 29.8438H54.6211V31.3359H56.1133V29.8438Z" fill="#F1F3F8"/>
<path d="M56.1133 35.8125H54.6211V37.3046H56.1133V35.8125Z" fill="#F1F3F8"/>
<path d="M53.1289 29.8438H51.6368V31.3359H53.1289V29.8438Z" fill="#F1F3F8"/>
<path d="M53.1289 26.8594H51.6368V28.3515H53.1289V26.8594Z" fill="#F1F3F8"/>
<path d="M53.1289 23.875H51.6368V25.3671H53.1289V23.875Z" fill="#F1F3F8"/>
<path d="M36.7158 41.7812H35.2237V43.2734H36.7158V41.7812Z" fill="#F1F3F8"/>
<path d="M36.7158 35.8125H35.2237V37.3046H36.7158V35.8125Z" fill="#F1F3F8"/>
<path d="M36.7158 38.7969H35.2237V40.289H36.7158V38.7969Z" fill="#F1F3F8"/>
<path d="M36.7158 32.8281H35.2237V34.3203H36.7158V32.8281Z" fill="#F1F3F8"/>
<path d="M36.7158 29.8438H35.2237V31.3359H36.7158V29.8438Z" fill="#F1F3F8"/>
<path d="M39.7002 38.7969H38.2081V40.289H39.7002V38.7969Z" fill="#F1F3F8"/>
<path d="M39.7002 29.8438H38.2081V31.3359H39.7002V29.8438Z" fill="#F1F3F8"/>
<path d="M39.7002 35.8125H38.2081V37.3046H39.7002V35.8125Z" fill="#F1F3F8"/>
<path d="M39.7002 41.7812H38.2081V43.2734H39.7002V41.7812Z" fill="#F1F3F8"/>
<path d="M39.7002 32.8281H38.2081V34.3203H39.7002V32.8281Z" fill="#F1F3F8"/>
<path d="M62.082 10.4453H60.5899V11.9375H62.082V10.4453Z" fill="#F1F3F8"/>
<path d="M65.0664 10.4453H63.5743V11.9375H65.0664V10.4453Z" fill="#F1F3F8"/>
<path d="M71.0352 10.4453H69.543V11.9375H71.0352V10.4453Z" fill="#F1F3F8"/>
<path d="M68.0508 10.4453H66.5586V11.9375H68.0508V10.4453Z" fill="#F1F3F8"/>
<path d="M68.0508 13.4297H66.5586V14.9218H68.0508V13.4297Z" fill="#F1F3F8"/>
<path d="M62.082 13.4297H60.5899V14.9218H62.082V13.4297Z" fill="#F1F3F8"/>
<path d="M71.0352 13.4297H69.543V14.9218H71.0352V13.4297Z" fill="#F1F3F8"/>
<path d="M65.0664 13.4297H63.5743V14.9218H65.0664V13.4297Z" fill="#F1F3F8"/>
<path d="M71.0352 16.4141H69.543V17.9062H71.0352V16.4141Z" fill="#F1F3F8"/>
<path d="M68.0508 16.4141H66.5586V17.9062H68.0508V16.4141Z" fill="#F1F3F8"/>
<path d="M65.0664 16.4141H63.5743V17.9062H65.0664V16.4141Z" fill="#F1F3F8"/>
<path d="M42.6841 13.4297H41.1919V14.9218H42.6841V13.4297Z" fill="#F1F3F8"/>
<path d="M45.6685 13.4297H44.1763V14.9218H45.6685V13.4297Z" fill="#F1F3F8"/>
<path d="M48.6528 13.4297H47.1607V14.9218H48.6528V13.4297Z" fill="#F1F3F8"/>
<path d="M42.6841 16.4141H41.1919V17.9062H42.6841V16.4141Z" fill="#F1F3F8"/>
<path d="M48.6528 16.4141H47.1607V17.9062H48.6528V16.4141Z" fill="#F1F3F8"/>
<path d="M45.6685 16.4141H44.1763V17.9062H45.6685V16.4141Z" fill="#F1F3F8"/>
<path d="M45.6685 25.3672H44.1763V26.8593H45.6685V25.3672Z" fill="#F1F3F8"/>
<path d="M45.6685 22.3828H44.1763V23.875H45.6685V22.3828Z" fill="#F1F3F8"/>
<path d="M45.6685 19.3984H44.1763V20.8906H45.6685V19.3984Z" fill="#F1F3F8"/>
<path d="M42.6841 22.3828H41.1919V23.875H42.6841V22.3828Z" fill="#F1F3F8"/>
<path d="M42.6841 19.3984H41.1919V20.8906H42.6841V19.3984Z" fill="#F1F3F8"/>
<g clip-path="url(#clip3)">
<path d="M16.6392 26.4961V29.616H-0.000516891V26.4961H16.6392ZM1.03946 28.5761H15.5992V27.5361H1.03946V28.5761Z" fill="#F1F3F8"/>
<path d="M15.5996 25.4547H14.5596V24.6706L8.31975 19.871L2.07987 24.6706V25.4547H1.03989V24.1589L8.31975 18.5586L15.5996 24.1589V25.4547Z" fill="#F1F3F8"/>
<path d="M-0.000118256 40.5333C-0.000118256 39.0742 0.501673 37.6437 1.41322 36.5044L1.86873 35.935C2.17396 35.5528 2.62999 35.3334 3.11982 35.3334C3.50826 35.3334 3.87225 35.4764 4.1598 35.7239V34.8134H7.27974V37.9334H5.68909C6.04789 38.7487 6.23976 39.6353 6.23976 40.5333C6.23976 42.0761 5.11294 43.3574 3.63981 43.6064V45.2132H6.23976V40.5333V40.0133H10.3997V45.2132H15.5996V43.6064C14.1264 43.3579 12.9996 42.0766 12.9996 40.5333C12.9996 39.0742 13.5014 37.6437 14.413 36.5044L14.8685 35.935C15.1737 35.5528 15.6297 35.3334 16.1196 35.3334C16.6094 35.3334 17.0654 35.5528 17.3701 35.9345L17.8262 36.5044C18.7377 37.6437 19.2395 39.0742 19.2395 40.5333C19.2395 42.0761 18.1127 43.3574 16.6396 43.6064V45.2132H21.3195V40.0133H25.4794V45.2132H28.5993V43.6064C27.1262 43.3579 25.9994 42.0766 25.9994 40.5333C25.9994 39.2354 26.3987 37.9614 27.1278 36.8934H26.5194V33.7734H29.6393V35.4296C29.9222 35.5268 30.178 35.6938 30.3699 35.9345L30.8259 36.5044C31.7375 37.6437 32.2393 39.0742 32.2393 40.5333C32.2393 42.0761 31.1124 43.3574 29.6393 43.6064V45.2132H31.1993V43.6532H32.2393V46.2532H29.6393H28.5993H16.6396H15.5996H3.63981H2.59983H-0.000118256V43.6532H1.03986V45.2132H2.59983V43.6064C1.1267 43.3574 -0.000118256 42.0761 -0.000118256 40.5333ZM28.5993 34.8134H27.5593V35.8534H27.9499C28.1308 35.6574 28.3523 35.5149 28.5993 35.4296V34.8134ZM29.6393 40.0133V42.5394C30.5337 42.307 31.1993 41.5 31.1993 40.5333C31.1993 39.3093 30.7781 38.1096 30.0142 37.1544L29.5582 36.584C29.4506 36.4498 29.2909 36.3734 29.1193 36.3734C28.9477 36.3734 28.7881 36.4498 28.6804 36.5845L28.2244 37.1544C27.4606 38.1096 27.0394 39.3093 27.0394 40.5333C27.0394 41.5 27.7049 42.307 28.5993 42.5394V40.0133H29.6393ZM22.3594 45.2132H24.4394V41.0533H22.3594V45.2132ZM16.6396 40.0133V42.5394C17.5339 42.307 18.1995 41.5 18.1995 40.5333C18.1995 39.3093 17.7783 38.1096 17.0145 37.1544L16.5584 36.584C16.4508 36.4498 16.2912 36.3734 16.1196 36.3734C15.948 36.3734 15.7883 36.4498 15.6807 36.5845L15.2247 37.1544C14.4608 38.1096 14.0396 39.3093 14.0396 40.5333C14.0396 41.5 14.7052 42.307 15.5996 42.5394V40.0133H16.6396ZM7.27974 45.2132H9.3597V41.0533H7.27974V45.2132ZM6.23976 36.8934V35.8534H5.19978V36.8934H6.23976ZM3.63981 40.0133V42.5394C4.53419 42.307 5.19978 41.5 5.19978 40.5333C5.19978 39.3093 4.77859 38.1096 4.01473 37.1544L3.55869 36.584C3.45106 36.4498 3.29142 36.3734 3.11982 36.3734C2.94823 36.3734 2.78859 36.4498 2.68095 36.5845L2.22492 37.1544C1.46106 38.1096 1.03986 39.3093 1.03986 40.5333C1.03986 41.5 1.70545 42.307 2.59983 42.5394V40.0133H3.63981Z" fill="#F1F3F8"/>
<path d="M14.5596 30.6562H15.5996V34.8162H14.5596V30.6562Z" fill="#F1F3F8"/>
<path d="M1.0401 30.6562H2.08008V34.8162H1.0401V30.6562Z" fill="#F1F3F8"/>
<path d="M4.15985 30.6562H7.27979V33.7762H4.15985V30.6562ZM5.19983 32.7362H6.23981V31.6962H5.19983V32.7362Z" fill="#F1F3F8"/>
<path d="M9.36004 30.6562H12.48V33.7762H9.36004V30.6562ZM10.4 32.7362H11.44V31.6962H10.4V32.7362Z" fill="#F1F3F8"/>
<path d="M22.3591 21.2969H25.479V24.4168H22.3591V21.2969ZM23.399 23.3768H24.439V22.3369H23.399V23.3768Z" fill="#F1F3F8"/>
<path d="M18.1999 21.2969H21.3198V24.4168H18.1999V21.2969ZM19.2399 23.3768H20.2798V22.3369H19.2399V23.3768Z" fill="#F1F3F8"/>
<path d="M26.5192 21.2969H29.6392V24.4168H26.5192V21.2969ZM27.5592 23.3768H28.5992V22.3369H27.5592V23.3768Z" fill="#F1F3F8"/>
<path d="M22.3591 25.457H25.479V28.577H22.3591V25.457ZM23.399 27.537H24.439V26.497H23.399V27.537Z" fill="#F1F3F8"/>
<path d="M18.1999 25.457H21.3198V28.577H18.1999V25.457ZM19.2399 27.537H20.2798V26.497H19.2399V27.537Z" fill="#F1F3F8"/>
<path d="M26.5192 25.457H29.6392V28.577H26.5192V25.457ZM27.5592 27.537H28.5992V26.497H27.5592V27.537Z" fill="#F1F3F8"/>
<path d="M22.3591 29.6133H25.479V32.7332H22.3591V29.6133ZM23.399 31.6932H24.439V30.6533H23.399V31.6932Z" fill="#F1F3F8"/>
<path d="M18.1999 29.6133H21.3198V32.7332H18.1999V29.6133ZM19.2399 31.6932H20.2798V30.6533H19.2399V31.6932Z" fill="#F1F3F8"/>
<path d="M29.6392 32.7332H26.5192V29.6133H29.6392V32.7332ZM28.5992 30.6533H27.5592V31.6932H28.5992V30.6533Z" fill="#F1F3F8"/>
<path d="M25.479 36.8934H22.3591V33.7734H25.479V36.8934ZM24.439 34.8134H23.399V35.8534H24.439V34.8134Z" fill="#F1F3F8"/>
<path d="M21.3198 36.8934H18.1999V33.7734H21.3198V36.8934ZM20.2798 34.8134H19.2399V35.8534H20.2798V34.8134Z" fill="#F1F3F8"/>
<path d="M12.48 37.9363H9.36004V34.8164H12.48V37.9363ZM11.44 35.8564H10.4V36.8964H11.44V35.8564Z" fill="#F1F3F8"/>
<path d="M31.1993 20.2548H16.6396V22.8548H15.5996V19.2148H32.2393V36.3745H31.1993V20.2548Z" fill="#F1F3F8"/>
<path d="M29.6392 17.1356H18.1994V18.1755H17.1595V16.0956H18.1994V14.0156H29.6392V16.0956H30.6792V18.1755H29.6392V17.1356ZM28.5992 15.0556H19.2394V16.0956H28.5992V15.0556Z" fill="#F1F3F8"/>
</g>
</g>
<defs>
<clipPath id="clip0">
<rect width="37.8462" height="37.8462" fill="white" transform="translate(161 8.41406)"/>
</clipPath>
<clipPath id="clip1">
<rect width="37.8462" height="37.8462" fill="white" transform="matrix(-1 0 0 1 164 8.41406)"/>
</clipPath>
<clipPath id="clip2">
<rect width="44.8548" height="44.8548" fill="white" transform="matrix(-1 0 0 1 125.453 1.40234)"/>
</clipPath>
<clipPath id="clip3">
<rect width="32.2394" height="32.2394" fill="white" transform="matrix(-1 0 0 1 32.2393 14.0156)"/>
</clipPath>
</defs>
</svg>
