<svg width="486" height="47" viewBox="0 0 486 47" fill="none" xmlns="http://www.w3.org/2000/svg">
<g opacity="0.26">
<g clip-path="url(#clip0)">
<path d="M164.784 36.166C164.436 36.166 164.154 36.4486 164.154 36.7968V38.0583C164.154 38.4065 164.436 38.6891 164.784 38.6891C165.132 38.6891 165.415 38.4065 165.415 38.0583V36.7968C165.415 36.4486 165.132 36.166 164.784 36.166Z" fill="#F1F3F8"/>
<path d="M164.784 39.9492C164.436 39.9492 164.154 40.2318 164.154 40.58V41.8415C164.154 42.1897 164.436 42.4723 164.784 42.4723C165.132 42.4723 165.415 42.1897 165.415 41.8415V40.58C165.415 40.2318 165.132 39.9492 164.784 39.9492Z" fill="#F1F3F8"/>
<path d="M164.784 32.3809C164.436 32.3809 164.154 32.6634 164.154 33.0116V34.2732C164.154 34.6213 164.436 34.9039 164.784 34.9039C165.132 34.9039 165.415 34.6213 165.415 34.2732V33.0116C165.415 32.6634 165.132 32.3809 164.784 32.3809Z" fill="#F1F3F8"/>
<path d="M167.308 36.166C166.959 36.166 166.677 36.4486 166.677 36.7968V38.0583C166.677 38.4065 166.959 38.6891 167.308 38.6891C167.656 38.6891 167.938 38.4065 167.938 38.0583V36.7968C167.938 36.4486 167.656 36.166 167.308 36.166Z" fill="#F1F3F8"/>
<path d="M167.308 32.3809C166.959 32.3809 166.677 32.6634 166.677 33.0116V34.2732C166.677 34.6213 166.959 34.9039 167.308 34.9039C167.656 34.9039 167.938 34.6213 167.938 34.2732V33.0116C167.938 32.6634 167.656 32.3809 167.308 32.3809Z" fill="#F1F3F8"/>
<path d="M167.308 39.9492C166.959 39.9492 166.677 40.2318 166.677 40.58V41.8415C166.677 42.1897 166.959 42.4723 167.308 42.4723C167.656 42.4723 167.938 42.1897 167.938 41.8415V40.58C167.938 40.2318 167.656 39.9492 167.308 39.9492Z" fill="#F1F3F8"/>
<path d="M197.584 15.3506H196.323V13.4583C196.323 13.1101 196.04 12.8276 195.692 12.8276H191.907C191.559 12.8276 191.277 13.1101 191.277 13.4583V15.3506H190.015C189.667 15.3506 189.384 15.6332 189.384 15.9814V26.0737H188.754V24.1813C188.754 23.8332 188.471 23.5506 188.123 23.5506H187.492V22.9199C187.492 22.5717 187.209 22.2891 186.861 22.2891C186.513 22.2891 186.231 22.5717 186.231 22.9199V23.5506H185.6C185.252 23.5506 184.969 23.8332 184.969 24.1813V26.0737H183.077V13.4583C183.077 13.1101 182.794 12.8276 182.446 12.8276H180.554V9.04293C180.554 8.6947 180.271 8.41211 179.923 8.41211H172.354C172.005 8.41211 171.723 8.6947 171.723 9.04286V12.8275H169.831C169.482 12.8275 169.2 13.1101 169.2 13.4582V29.8583H167.938V27.966C167.938 27.6178 167.656 27.3352 167.307 27.3352H163.523C163.175 27.3352 162.892 27.6178 162.892 27.966V29.8583H162.261C161.913 29.8583 161.631 30.1409 161.631 30.489V45.6275C161.631 45.9757 161.913 46.2583 162.261 46.2583H169.831H174.877H190.015H197.585C197.933 46.2583 198.215 45.9757 198.215 45.6275V15.9814C198.215 15.6332 197.933 15.3506 197.584 15.3506ZM179.292 15.9814C179.292 15.6332 179.575 15.3506 179.923 15.3506C180.271 15.3506 180.554 15.6332 180.554 15.9814V26.0737H179.292V15.9814H179.292ZM176.769 11.566C176.769 11.2178 177.052 10.9352 177.4 10.9352C177.748 10.9352 178.03 11.2178 178.03 11.566V13.4583C178.03 13.8065 177.748 14.089 177.4 14.089C177.052 14.089 176.769 13.8065 176.769 13.4583V11.566ZM176.769 15.9814C176.769 15.6332 177.052 15.3506 177.4 15.3506C177.748 15.3506 178.03 15.6332 178.03 15.9814V26.0737H176.769V15.9814H176.769ZM174.246 11.566C174.246 11.2178 174.528 10.9352 174.877 10.9352C175.225 10.9352 175.507 11.2178 175.507 11.566V13.4583C175.507 13.8065 175.225 14.089 174.877 14.089C174.528 14.089 174.246 13.8065 174.246 13.4583V11.566ZM171.723 15.9814C171.723 15.6332 172.005 15.3506 172.354 15.3506C172.702 15.3506 172.984 15.6332 172.984 15.9814V29.8583H171.723V15.9814H171.723ZM174.246 43.7353H172.354C172.005 43.7353 171.723 43.4527 171.723 43.1045C171.723 42.7564 172.005 42.4738 172.354 42.4738H174.246V43.7353ZM174.246 41.2121H172.354C172.005 41.2121 171.723 40.9296 171.723 40.5814C171.723 40.2332 172.005 39.9507 172.354 39.9507H174.246V41.2121ZM174.246 38.6891H172.354C172.005 38.6891 171.723 38.4065 171.723 38.0583C171.723 37.7102 172.005 37.4276 172.354 37.4276H174.246V38.6891ZM174.246 36.166H172.354C172.005 36.166 171.723 35.8834 171.723 35.5353C171.723 35.1871 172.005 34.9045 172.354 34.9045H174.246V36.166ZM174.246 32.3814H169.831C169.482 32.3814 169.2 32.664 169.2 33.0122V44.9968H162.892V31.1198H163.523H167.307H169.83H172.354H174.246V32.3814ZM174.246 26.7045V15.9814C174.246 15.6332 174.528 15.3506 174.877 15.3506C175.225 15.3506 175.507 15.6332 175.507 15.9814V26.0737H174.877C174.528 26.0737 174.246 26.3562 174.246 26.7045ZM189.384 44.9968H188.123V29.2275C188.123 28.8794 187.84 28.5968 187.492 28.5968C187.144 28.5968 186.861 28.8794 186.861 29.2275V44.9968H185.6V29.2275C185.6 28.8794 185.317 28.5968 184.969 28.5968C184.621 28.5968 184.338 28.8794 184.338 29.2275V44.9968H183.077V29.2275C183.077 28.8794 182.794 28.5968 182.446 28.5968C182.098 28.5968 181.815 28.8794 181.815 29.2275V44.9968H180.554V29.2275C180.554 28.8794 180.271 28.5968 179.923 28.5968C179.575 28.5968 179.292 28.8794 179.292 29.2275V44.9968H178.031V29.2275C178.031 28.8794 177.748 28.5968 177.4 28.5968C177.052 28.5968 176.769 28.8794 176.769 29.2275V44.9968H175.507V43.1045V40.5814V38.0583V35.5353V33.0122V30.4891V27.3352H177.4H179.923H182.446H185.6H188.123H189.384V44.9968ZM193.169 42.5967C193.169 42.9449 192.886 43.2275 192.538 43.2275C192.19 43.2275 191.908 42.9449 191.908 42.5967V41.3351C191.908 40.987 192.19 40.7044 192.538 40.7044C192.886 40.7044 193.169 40.987 193.169 41.3351V42.5967ZM193.169 38.8121C193.169 39.1602 192.886 39.4428 192.538 39.4428C192.19 39.4428 191.908 39.1602 191.908 38.8121V37.5505C191.908 37.2024 192.19 36.9198 192.538 36.9198C192.886 36.9198 193.169 37.2024 193.169 37.5505V38.8121ZM193.169 35.0275C193.169 35.3756 192.886 35.6582 192.538 35.6582C192.19 35.6582 191.908 35.3756 191.908 35.0275V33.7659C191.908 33.4177 192.19 33.1352 192.538 33.1352C192.886 33.1352 193.169 33.4177 193.169 33.7659V35.0275ZM193.169 31.2428C193.169 31.591 192.886 31.8736 192.538 31.8736C192.19 31.8736 191.908 31.591 191.908 31.2428V29.9813C191.908 29.6331 192.19 29.3505 192.538 29.3505C192.886 29.3505 193.169 29.6331 193.169 29.9813V31.2428ZM193.169 27.4582C193.169 27.8064 192.886 28.089 192.538 28.089C192.19 28.089 191.908 27.8064 191.908 27.4582V26.1967C191.908 25.8485 192.19 25.5659 192.538 25.5659C192.886 25.5659 193.169 25.8485 193.169 26.1967V27.4582ZM193.169 23.6736C193.169 24.0218 192.886 24.3043 192.538 24.3043C192.19 24.3043 191.908 24.0218 191.908 23.6736V22.412C191.908 22.0639 192.19 21.7813 192.538 21.7813C192.886 21.7813 193.169 22.0639 193.169 22.412V23.6736ZM193.169 19.889C193.169 20.2371 192.886 20.5197 192.538 20.5197C192.19 20.5197 191.908 20.2371 191.908 19.889V18.6274C191.908 18.2793 192.19 17.9967 192.538 17.9967C192.886 17.9967 193.169 18.2793 193.169 18.6274V19.889ZM195.692 42.5967C195.692 42.9449 195.409 43.2275 195.061 43.2275C194.713 43.2275 194.431 42.9449 194.431 42.5967V41.3351C194.431 40.987 194.713 40.7044 195.061 40.7044C195.409 40.7044 195.692 40.987 195.692 41.3351V42.5967ZM195.692 38.8121C195.692 39.1602 195.409 39.4428 195.061 39.4428C194.713 39.4428 194.431 39.1602 194.431 38.8121V37.5505C194.431 37.2024 194.713 36.9198 195.061 36.9198C195.409 36.9198 195.692 37.2024 195.692 37.5505V38.8121ZM195.692 35.0275C195.692 35.3756 195.409 35.6582 195.061 35.6582C194.713 35.6582 194.431 35.3756 194.431 35.0275V33.7659C194.431 33.4177 194.713 33.1352 195.061 33.1352C195.409 33.1352 195.692 33.4177 195.692 33.7659V35.0275ZM195.692 31.2428C195.692 31.591 195.409 31.8736 195.061 31.8736C194.713 31.8736 194.431 31.591 194.431 31.2428V29.9813C194.431 29.6331 194.713 29.3505 195.061 29.3505C195.409 29.3505 195.692 29.6331 195.692 29.9813V31.2428ZM195.692 27.4582C195.692 27.8064 195.409 28.089 195.061 28.089C194.713 28.089 194.431 27.8064 194.431 27.4582V26.1967C194.431 25.8485 194.713 25.5659 195.061 25.5659C195.409 25.5659 195.692 25.8485 195.692 26.1967V27.4582ZM195.692 23.6736C195.692 24.0218 195.409 24.3043 195.061 24.3043C194.713 24.3043 194.431 24.0218 194.431 23.6736V22.412C194.431 22.0639 194.713 21.7813 195.061 21.7813C195.409 21.7813 195.692 22.0639 195.692 22.412V23.6736ZM195.692 19.889C195.692 20.2371 195.409 20.5197 195.061 20.5197C194.713 20.5197 194.431 20.2371 194.431 19.889V18.6274C194.431 18.2793 194.713 17.9967 195.061 17.9967C195.409 17.9967 195.692 18.2793 195.692 18.6274V19.889Z" fill="#F1F3F8"/>
</g>
<g clip-path="url(#clip1)">
<path d="M243.735 35.2233H239.346V29.7801C239.346 29.4122 239.048 29.1139 238.68 29.1139C238.312 29.1139 238.014 29.4122 238.014 29.7801V44.8557H228.912H226.581V41.8849V39.8865V36.0561V34.0577V30.2275V28.2291V25.065H238.014V26.6711C238.014 27.0389 238.312 27.3372 238.68 27.3372C239.048 27.3372 239.346 27.0389 239.346 26.6711V24.3989C239.346 24.031 239.048 23.7327 238.68 23.7327H229.578V2.13882C229.578 1.77096 229.28 1.47266 228.912 1.47266H215.057C214.689 1.47266 214.391 1.77096 214.391 2.13882V12.1043H205.774C205.406 12.1043 205.107 12.4026 205.107 12.7705V29.1489H200.213C199.845 29.1489 199.547 29.4472 199.547 29.8151V45.5218C199.547 45.8897 199.845 46.188 200.213 46.188H205.774H219.629C219.63 46.188 219.63 46.1879 219.631 46.1879H225.915H228.912H238.678C238.679 46.1879 238.68 46.188 238.68 46.188H243.735C244.103 46.188 244.402 45.8897 244.402 45.5218V35.8894C244.402 35.5216 244.103 35.2233 243.735 35.2233ZM205.107 44.8556H200.879V30.4813H205.107V44.8556ZM218.963 44.8556H215.057V44.8557H206.44V41.1719H218.963V44.8556ZM218.963 35.3543H212.959C212.591 35.3543 212.293 35.6526 212.293 36.0205C212.293 36.3883 212.591 36.6866 212.959 36.6866H218.963V39.8396H206.44V36.6866H209.85C210.218 36.6866 210.516 36.3883 210.516 36.0205C210.516 35.6526 210.218 35.3543 209.85 35.3543H206.44V32.2013H218.963V35.3543ZM218.963 30.8692H206.44V29.8151V27.7161H218.963V30.8692ZM218.963 26.3839H206.44V23.231H218.963V26.3839ZM218.963 21.8987H206.44V18.7457H218.963V21.8987ZM218.963 17.4134H206.44V13.4365H218.963V17.4134ZM225.249 24.399V28.2292V30.2276V34.0579V36.0563V39.8867V41.8851V44.8559H220.295V12.7704C220.295 12.4025 219.997 12.1042 219.629 12.1042H218.721V10.772C218.721 10.4041 218.423 10.1058 218.055 10.1058C217.687 10.1058 217.388 10.4041 217.388 10.772V12.1042H215.723V2.80498H228.246V23.7328H225.915C225.547 23.7328 225.249 24.031 225.249 24.399ZM243.069 44.8556H239.346V36.5555H243.069V44.8556Z" fill="#F1F3F8"/>
<path d="M225.915 15.9043C225.547 15.9043 225.249 16.2026 225.249 16.5705V18.5689C225.249 18.9368 225.547 19.235 225.915 19.235C226.283 19.235 226.581 18.9367 226.581 18.5689V16.5705C226.581 16.2026 226.283 15.9043 225.915 15.9043Z" fill="#F1F3F8"/>
<path d="M221.985 15.9043C221.617 15.9043 221.318 16.2026 221.318 16.5705V18.5689C221.318 18.9368 221.617 19.235 221.985 19.235C222.352 19.235 222.651 18.9367 222.651 18.5689V16.5705C222.651 16.2026 222.352 15.9043 221.985 15.9043Z" fill="#F1F3F8"/>
<path d="M225.915 10.1055C225.547 10.1055 225.249 10.4038 225.249 10.7716V12.77C225.249 13.1379 225.547 13.4362 225.915 13.4362C226.283 13.4362 226.581 13.1379 226.581 12.77V10.7716C226.581 10.4038 226.283 10.1055 225.915 10.1055Z" fill="#F1F3F8"/>
<path d="M221.985 10.1055C221.617 10.1055 221.318 10.4038 221.318 10.7716V12.77C221.318 13.1379 221.617 13.4362 221.985 13.4362C222.352 13.4362 222.651 13.1379 222.651 12.77V10.7716C222.651 10.4038 222.352 10.1055 221.985 10.1055Z" fill="#F1F3F8"/>
<path d="M218.054 4.30469C217.686 4.30469 217.388 4.60299 217.388 4.97085V6.96925C217.388 7.33712 217.686 7.63542 218.054 7.63542C218.422 7.63542 218.721 7.33712 218.721 6.96925V4.97085C218.721 4.60299 218.422 4.30469 218.054 4.30469Z" fill="#F1F3F8"/>
<path d="M225.915 4.30469C225.547 4.30469 225.249 4.60299 225.249 4.97085V6.96925C225.249 7.33712 225.547 7.63542 225.915 7.63542C226.283 7.63542 226.581 7.33712 226.581 6.96925V4.97085C226.581 4.60299 226.283 4.30469 225.915 4.30469Z" fill="#F1F3F8"/>
<path d="M221.985 4.30469C221.617 4.30469 221.318 4.60299 221.318 4.97085V6.96925C221.318 7.33712 221.617 7.63542 221.985 7.63542C222.352 7.63542 222.651 7.33712 222.651 6.96925V4.97085C222.651 4.60299 222.352 4.30469 221.985 4.30469Z" fill="#F1F3F8"/>
<path d="M225.559 21.8372C225.29 22.0068 225.176 22.3597 225.3 22.6542C225.407 22.9055 225.657 23.0717 225.931 23.065C226.21 23.0582 226.459 22.8734 226.547 22.6085C226.741 22.0258 226.075 21.5125 225.559 21.8372Z" fill="#F1F3F8"/>
<path d="M221.985 21.7344C221.617 21.7344 221.318 22.0327 221.318 22.4005V24.3989C221.318 24.7669 221.617 25.0651 221.985 25.0651C222.352 25.0651 222.651 24.7668 222.651 24.3989V22.4005C222.651 22.0326 222.352 21.7344 221.985 21.7344Z" fill="#F1F3F8"/>
<path d="M221.985 39.2188C221.617 39.2188 221.318 39.5171 221.318 39.8849V41.8833C221.318 42.2512 221.617 42.5495 221.985 42.5495C222.352 42.5495 222.651 42.2512 222.651 41.8833V39.8849C222.651 39.517 222.352 39.2188 221.985 39.2188Z" fill="#F1F3F8"/>
<path d="M221.985 33.3906C221.617 33.3906 221.318 33.6889 221.318 34.0568V36.0552C221.318 36.4231 221.617 36.7214 221.985 36.7214C222.352 36.7214 222.651 36.4231 222.651 36.0552V34.0568C222.651 33.6889 222.352 33.3906 221.985 33.3906Z" fill="#F1F3F8"/>
<path d="M221.985 27.5625C221.617 27.5625 221.318 27.8608 221.318 28.2287V30.2271C221.318 30.5949 221.617 30.8932 221.985 30.8932C222.352 30.8932 222.651 30.5949 222.651 30.2271V28.2287C222.651 27.8607 222.352 27.5625 221.985 27.5625Z" fill="#F1F3F8"/>
<path d="M235.982 39.0176H228.612C228.245 39.0176 227.946 39.3159 227.946 39.6837C227.946 40.0516 228.245 40.3499 228.612 40.3499H235.982C236.35 40.3499 236.648 40.0516 236.648 39.6837C236.648 39.3159 236.35 39.0176 235.982 39.0176Z" fill="#F1F3F8"/>
<path d="M235.982 42.166H228.612C228.245 42.166 227.946 42.4643 227.946 42.8322C227.946 43.2 228.245 43.4983 228.612 43.4983H235.982C236.35 43.4983 236.648 43.2 236.648 42.8322C236.648 42.4642 236.35 42.166 235.982 42.166Z" fill="#F1F3F8"/>
<path d="M235.982 35.8691H228.612C228.245 35.8691 227.946 36.1674 227.946 36.5353C227.946 36.9032 228.245 37.2015 228.612 37.2015H235.982C236.35 37.2015 236.648 36.9032 236.648 36.5353C236.648 36.1674 236.35 35.8691 235.982 35.8691Z" fill="#F1F3F8"/>
<path d="M235.982 26.4199H228.612C228.245 26.4199 227.946 26.7182 227.946 27.0861C227.946 27.4539 228.245 27.7522 228.612 27.7522H235.982C236.35 27.7522 236.648 27.4539 236.648 27.0861C236.648 26.7182 236.35 26.4199 235.982 26.4199Z" fill="#F1F3F8"/>
<path d="M235.982 32.7188H228.612C228.245 32.7188 227.946 33.0171 227.946 33.3849C227.946 33.7528 228.245 34.0511 228.612 34.0511H235.982C236.35 34.0511 236.648 33.7528 236.648 33.3849C236.648 33.0171 236.35 32.7188 235.982 32.7188Z" fill="#F1F3F8"/>
<path d="M235.982 29.5703H228.612C228.245 29.5703 227.946 29.8686 227.946 30.2365C227.946 30.6043 228.245 30.9026 228.612 30.9026H235.982C236.35 30.9026 236.648 30.6043 236.648 30.2365C236.648 29.8686 236.35 29.5703 235.982 29.5703Z" fill="#F1F3F8"/>
<path d="M202.993 31.5391C202.625 31.5391 202.327 31.8374 202.327 32.2052V33.9371C202.327 34.305 202.625 34.6033 202.993 34.6033C203.361 34.6033 203.659 34.305 203.659 33.9371V32.2052C203.659 31.8374 203.361 31.5391 202.993 31.5391Z" fill="#F1F3F8"/>
<path d="M202.993 36.1348C202.625 36.1348 202.327 36.4331 202.327 36.8009V38.5328C202.327 38.9007 202.625 39.199 202.993 39.199C203.361 39.199 203.659 38.9007 203.659 38.5328V36.8009C203.659 36.433 203.361 36.1348 202.993 36.1348Z" fill="#F1F3F8"/>
<path d="M202.993 40.7324C202.625 40.7324 202.327 41.0307 202.327 41.3986V43.1305C202.327 43.4984 202.625 43.7967 202.993 43.7967C203.361 43.7967 203.659 43.4984 203.659 43.1305V41.3986C203.659 41.0306 203.361 40.7324 202.993 40.7324Z" fill="#F1F3F8"/>
<path d="M241.208 38.1523C240.84 38.1523 240.542 38.4506 240.542 38.8185V40.7038C240.542 41.0717 240.84 41.37 241.208 41.37C241.576 41.37 241.874 41.0717 241.874 40.7038V38.8185C241.874 38.4506 241.576 38.1523 241.208 38.1523Z" fill="#F1F3F8"/>
<path d="M239.255 14.3066H231.128C230.76 14.3066 230.462 14.6049 230.462 14.9728C230.462 15.3407 230.76 15.639 231.128 15.639H239.255C239.623 15.639 239.921 15.3407 239.921 14.9728C239.921 14.6049 239.623 14.3066 239.255 14.3066Z" fill="#F1F3F8"/>
<path d="M241.786 17.1016H235.924C235.556 17.1016 235.258 17.3999 235.258 17.7677C235.258 18.1356 235.556 18.4339 235.924 18.4339H241.786C242.154 18.4339 242.452 18.1356 242.452 17.7677C242.452 17.3999 242.154 17.1016 241.786 17.1016Z" fill="#F1F3F8"/>
<path d="M211.544 6.44531H205.682C205.314 6.44531 205.016 6.74361 205.016 7.11148C205.016 7.47934 205.314 7.77764 205.682 7.77764H211.544C211.912 7.77764 212.21 7.47934 212.21 7.11148C212.21 6.74361 211.912 6.44531 211.544 6.44531Z" fill="#F1F3F8"/>
<path d="M208.214 8.66797H202.352C201.984 8.66797 201.686 8.96627 201.686 9.33413C201.686 9.70199 201.984 10.0003 202.352 10.0003H208.214C208.582 10.0003 208.88 9.70199 208.88 9.33413C208.88 8.96627 208.582 8.66797 208.214 8.66797Z" fill="#F1F3F8"/>
</g>
<path d="M276.347 37.3047H277.839V43.2733H276.347V37.3047Z" fill="#F1F3F8"/>
<path d="M279.332 37.3047H280.824V43.2733H279.332V37.3047Z" fill="#F1F3F8"/>
<path d="M286.792 26.1051V10.445H285.3V2.84925L283.808 3.09769V1.49215H282.316V3.34688L280.824 3.59532V0H279.332V3.84451L277.839 4.09295V1.49215H276.347V4.3414L274.855 4.58984V10.445H273.363V17.9057H267.394V7.46073H264.41V2.98429H262.918V0H255.457V2.98429H253.965V7.46073H250.981V21.4011C249.435 22.139 248.309 23.611 248.056 25.3665H246.504V46.2565H292.761V25.2523L286.792 26.1051ZM276.347 5.85443L283.808 4.61073V10.445H276.347V5.85443ZM274.855 11.9372H285.3V26.3185L280.824 26.9578V30.8382L278.586 27.8539L276.347 30.8382V17.9057H274.855V11.9372ZM274.855 20.89H264.41V19.3979H274.855V20.89ZM274.855 35.8115H282.316V44.7644H274.855V35.8115ZM275.601 34.3193L278.586 30.3405L281.57 34.3193H275.601ZM256.949 1.49215H261.426V2.98429H256.949V1.49215ZM255.457 4.47644H262.918V7.46073H255.457V4.47644ZM252.473 8.95287H265.902V17.9057H262.918V21.4011C262.238 21.0773 261.481 20.89 260.68 20.89H253.219C252.965 20.89 252.718 20.9147 252.473 20.9497V8.95287ZM253.219 22.3822H260.68C262.481 22.3822 263.988 23.6662 264.335 25.3665H249.564C249.911 23.6662 251.418 22.3822 253.219 22.3822ZM265.902 26.8586V28.3508H247.997V26.8586H265.902ZM262.918 40.2879H259.934V37.3036H262.918V40.2879ZM258.442 40.2879H255.457V37.3036H258.442V40.2879ZM258.442 41.7801V44.7644H255.457V41.7801H258.442ZM259.934 41.7801H262.918V44.7644H259.934V41.7801ZM262.918 35.8115H259.934V32.8272H262.918V35.8115ZM258.442 35.8115H255.457V32.8272H258.442V35.8115ZM253.965 35.8115H250.981V32.8272H253.965V35.8115ZM250.981 37.3036H253.965V40.2879H250.981V37.3036ZM250.981 41.7801H253.965V44.7644H250.981V41.7801ZM264.41 44.7644V31.335H249.489V44.7644H247.997V29.8429H265.902V44.7644H264.41ZM265.843 25.3665C265.681 24.2459 265.167 23.2379 264.41 22.465V22.3822H274.855V32.8272L273.363 34.817V44.7644H267.394V25.3665H265.843ZM291.269 44.7644H283.808V34.817L282.316 32.8272V28.2515L291.269 26.9728V44.7644Z" fill="#F1F3F8"/>
<path d="M268.887 23.875H270.379V25.3671H268.887V23.875Z" fill="#F1F3F8"/>
<path d="M268.887 41.7812H270.379V43.2734H268.887V41.7812Z" fill="#F1F3F8"/>
<path d="M268.887 26.8594H270.379V28.3515H268.887V26.8594Z" fill="#F1F3F8"/>
<path d="M268.887 38.7969H270.379V40.289H268.887V38.7969Z" fill="#F1F3F8"/>
<path d="M268.887 32.8281H270.379V34.3203H268.887V32.8281Z" fill="#F1F3F8"/>
<path d="M268.887 29.8438H270.379V31.3359H268.887V29.8438Z" fill="#F1F3F8"/>
<path d="M268.887 35.8125H270.379V37.3046H268.887V35.8125Z" fill="#F1F3F8"/>
<path d="M271.871 29.8438H273.363V31.3359H271.871V29.8438Z" fill="#F1F3F8"/>
<path d="M271.871 26.8594H273.363V28.3515H271.871V26.8594Z" fill="#F1F3F8"/>
<path d="M271.871 23.875H273.363V25.3671H271.871V23.875Z" fill="#F1F3F8"/>
<path d="M288.284 41.7812H289.776V43.2734H288.284V41.7812Z" fill="#F1F3F8"/>
<path d="M288.284 35.8125H289.776V37.3046H288.284V35.8125Z" fill="#F1F3F8"/>
<path d="M288.284 38.7969H289.776V40.289H288.284V38.7969Z" fill="#F1F3F8"/>
<path d="M288.284 32.8281H289.776V34.3203H288.284V32.8281Z" fill="#F1F3F8"/>
<path d="M288.284 29.8438H289.776V31.3359H288.284V29.8438Z" fill="#F1F3F8"/>
<path d="M285.3 38.7969H286.792V40.289H285.3V38.7969Z" fill="#F1F3F8"/>
<path d="M285.3 29.8438H286.792V31.3359H285.3V29.8438Z" fill="#F1F3F8"/>
<path d="M285.3 35.8125H286.792V37.3046H285.3V35.8125Z" fill="#F1F3F8"/>
<path d="M285.3 41.7812H286.792V43.2734H285.3V41.7812Z" fill="#F1F3F8"/>
<path d="M285.3 32.8281H286.792V34.3203H285.3V32.8281Z" fill="#F1F3F8"/>
<path d="M262.918 10.4453H264.41V11.9375H262.918V10.4453Z" fill="#F1F3F8"/>
<path d="M259.934 10.4453H261.426V11.9375H259.934V10.4453Z" fill="#F1F3F8"/>
<path d="M253.965 10.4453H255.457V11.9375H253.965V10.4453Z" fill="#F1F3F8"/>
<path d="M256.949 10.4453H258.441V11.9375H256.949V10.4453Z" fill="#F1F3F8"/>
<path d="M256.949 13.4297H258.441V14.9218H256.949V13.4297Z" fill="#F1F3F8"/>
<path d="M262.918 13.4297H264.41V14.9218H262.918V13.4297Z" fill="#F1F3F8"/>
<path d="M253.965 13.4297H255.457V14.9218H253.965V13.4297Z" fill="#F1F3F8"/>
<path d="M259.934 13.4297H261.426V14.9218H259.934V13.4297Z" fill="#F1F3F8"/>
<path d="M253.965 16.4141H255.457V17.9062H253.965V16.4141Z" fill="#F1F3F8"/>
<path d="M256.949 16.4141H258.441V17.9062H256.949V16.4141Z" fill="#F1F3F8"/>
<path d="M259.934 16.4141H261.426V17.9062H259.934V16.4141Z" fill="#F1F3F8"/>
<path d="M282.316 13.4297H283.808V14.9218H282.316V13.4297Z" fill="#F1F3F8"/>
<path d="M279.332 13.4297H280.824V14.9218H279.332V13.4297Z" fill="#F1F3F8"/>
<path d="M276.347 13.4297H277.839V14.9218H276.347V13.4297Z" fill="#F1F3F8"/>
<path d="M282.316 16.4141H283.808V17.9062H282.316V16.4141Z" fill="#F1F3F8"/>
<path d="M276.347 16.4141H277.839V17.9062H276.347V16.4141Z" fill="#F1F3F8"/>
<path d="M279.332 16.4141H280.824V17.9062H279.332V16.4141Z" fill="#F1F3F8"/>
<path d="M279.332 25.3672H280.824V26.8593H279.332V25.3672Z" fill="#F1F3F8"/>
<path d="M279.332 22.3828H280.824V23.875H279.332V22.3828Z" fill="#F1F3F8"/>
<path d="M279.332 19.3984H280.824V20.8906H279.332V19.3984Z" fill="#F1F3F8"/>
<path d="M282.316 22.3828H283.808V23.875H282.316V22.3828Z" fill="#F1F3F8"/>
<path d="M282.316 19.3984H283.808V20.8906H282.316V19.3984Z" fill="#F1F3F8"/>
<g clip-path="url(#clip2)">
<path d="M308.361 26.5V29.6199H325.001V26.5H308.361ZM323.961 28.58H309.401V27.54H323.961V28.58Z" fill="#F1F3F8"/>
<path d="M309.4 25.4586H310.44V24.6745L316.68 19.875L322.92 24.6745V25.4586H323.96V24.1628L316.68 18.5625L309.4 24.1628V25.4586Z" fill="#F1F3F8"/>
<path d="M325 40.5372C325 39.0781 324.498 37.6476 323.587 36.5083L323.131 35.9389C322.826 35.5568 322.37 35.3373 321.88 35.3373C321.492 35.3373 321.128 35.4803 320.84 35.7278V34.8173H317.72V37.9373H319.311C318.952 38.7526 318.76 39.6392 318.76 40.5372C318.76 42.08 319.887 43.3613 321.36 43.6104V45.2171H318.76V40.5372V40.0172H314.6V45.2171H309.4V43.6104C310.874 43.3618 312 42.0805 312 40.5372C312 39.0781 311.499 37.6476 310.587 36.5083L310.132 35.9389C309.826 35.5568 309.37 35.3373 308.88 35.3373C308.391 35.3373 307.935 35.5567 307.63 35.9384L307.174 36.5083C306.262 37.6476 305.76 39.0781 305.76 40.5372C305.76 42.08 306.887 43.3613 308.36 43.6104V45.2171H303.681V40.0172H299.521V45.2171H296.401V43.6104C297.874 43.3618 299.001 42.0805 299.001 40.5372C299.001 39.2393 298.601 37.9653 297.872 36.8973H298.481V33.7773H295.361V35.4335C295.078 35.5308 294.822 35.6977 294.63 35.9384L294.174 36.5083C293.263 37.6476 292.761 39.0781 292.761 40.5372C292.761 42.08 293.888 43.3613 295.361 43.6104V45.2171H293.801V43.6572H292.761V46.2571H295.361H296.401H308.36H309.4H321.36H322.4H325V43.6572H323.96V45.2171H322.4V43.6104C323.873 43.3613 325 42.08 325 40.5372ZM296.401 34.8173H297.441V35.8573H297.05C296.869 35.6613 296.648 35.5188 296.401 35.4335V34.8173ZM295.361 40.0172V42.5433C294.466 42.3109 293.801 41.5039 293.801 40.5372C293.801 39.3132 294.222 38.1135 294.986 37.1583L295.442 36.5879C295.549 36.4537 295.709 36.3773 295.881 36.3773C296.052 36.3773 296.212 36.4537 296.32 36.5884L296.776 37.1583C297.539 38.1135 297.961 39.3132 297.961 40.5372C297.961 41.5039 297.295 42.3109 296.401 42.5433V40.0172H295.361ZM302.641 45.2171H300.561V41.0572H302.641V45.2171ZM308.36 40.0172V42.5433C307.466 42.3109 306.8 41.5039 306.8 40.5372C306.8 39.3132 307.222 38.1135 307.986 37.1583L308.442 36.5879C308.549 36.4537 308.709 36.3773 308.88 36.3773C309.052 36.3773 309.212 36.4537 309.319 36.5884L309.775 37.1583C310.539 38.1135 310.96 39.3132 310.96 40.5372C310.96 41.5039 310.295 42.3109 309.4 42.5433V40.0172H308.36ZM317.72 45.2171H315.64V41.0572H317.72V45.2171ZM318.76 36.8973V35.8573H319.8V36.8973H318.76ZM321.36 40.0172V42.5433C320.466 42.3109 319.8 41.5039 319.8 40.5372C319.8 39.3132 320.221 38.1135 320.985 37.1583L321.441 36.5879C321.549 36.4537 321.709 36.3773 321.88 36.3773C322.052 36.3773 322.211 36.4537 322.319 36.5884L322.775 37.1583C323.539 38.1135 323.96 39.3132 323.96 40.5372C323.96 41.5039 323.295 42.3109 322.4 42.5433V40.0172H321.36Z" fill="#F1F3F8"/>
<path d="M310.44 30.6582H309.4V34.8181H310.44V30.6582Z" fill="#F1F3F8"/>
<path d="M323.96 30.6582H322.92V34.8181H323.96V30.6582Z" fill="#F1F3F8"/>
<path d="M320.84 30.6582H317.72V33.7781H320.84V30.6582ZM319.8 32.7382H318.76V31.6982H319.8V32.7382Z" fill="#F1F3F8"/>
<path d="M315.64 30.6582H312.52V33.7781H315.64V30.6582ZM314.6 32.7382H313.56V31.6982H314.6V32.7382Z" fill="#F1F3F8"/>
<path d="M302.641 21.2988H299.521V24.4188H302.641V21.2988ZM301.601 23.3788H300.561V22.3388H301.601V23.3788Z" fill="#F1F3F8"/>
<path d="M306.8 21.2988H303.68V24.4188H306.8V21.2988ZM305.76 23.3788H304.72V22.3388H305.76V23.3788Z" fill="#F1F3F8"/>
<path d="M298.481 21.2988H295.361V24.4188H298.481V21.2988ZM297.441 23.3788H296.401V22.3388H297.441V23.3788Z" fill="#F1F3F8"/>
<path d="M302.641 25.459H299.521V28.5789H302.641V25.459ZM301.601 27.5389H300.561V26.499H301.601V27.5389Z" fill="#F1F3F8"/>
<path d="M306.8 25.459H303.68V28.5789H306.8V25.459ZM305.76 27.5389H304.72V26.499H305.76V27.5389Z" fill="#F1F3F8"/>
<path d="M298.481 25.459H295.361V28.5789H298.481V25.459ZM297.441 27.5389H296.401V26.499H297.441V27.5389Z" fill="#F1F3F8"/>
<path d="M302.641 29.6191H299.521V32.7391H302.641V29.6191ZM301.601 31.6991H300.561V30.6591H301.601V31.6991Z" fill="#F1F3F8"/>
<path d="M306.8 29.6191H303.68V32.7391H306.8V29.6191ZM305.76 31.6991H304.72V30.6591H305.76V31.6991Z" fill="#F1F3F8"/>
<path d="M295.361 32.7391H298.481V29.6191H295.361V32.7391ZM296.401 30.6591H297.441V31.6991H296.401V30.6591Z" fill="#F1F3F8"/>
<path d="M299.521 36.8973H302.641V33.7773H299.521V36.8973ZM300.561 34.8173H301.601V35.8573H300.561V34.8173Z" fill="#F1F3F8"/>
<path d="M303.68 36.8973H306.8V33.7773H303.68V36.8973ZM304.72 34.8173H305.76V35.8573H304.72V34.8173Z" fill="#F1F3F8"/>
<path d="M312.52 37.9403H315.64V34.8203H312.52V37.9403ZM313.56 35.8603H314.6V36.9003H313.56V35.8603Z" fill="#F1F3F8"/>
<path d="M293.801 20.2568H308.36V22.8567H309.4V19.2168H292.761V36.3765H293.801V20.2568Z" fill="#F1F3F8"/>
<path d="M295.361 17.1395H306.801V18.1795H307.841V16.0995H306.801V14.0195H295.361V16.0995H294.321V18.1795H295.361V17.1395ZM296.401 15.0595H305.761V16.0995H296.401V15.0595Z" fill="#F1F3F8"/>
</g>
<g clip-path="url(#clip3)">
<path d="M482.216 36.166C482.564 36.166 482.847 36.4486 482.847 36.7968V38.0583C482.847 38.4065 482.564 38.6891 482.216 38.6891C481.868 38.6891 481.585 38.4065 481.585 38.0583V36.7968C481.585 36.4486 481.868 36.166 482.216 36.166Z" fill="#F1F3F8"/>
<path d="M482.216 39.9492C482.564 39.9492 482.847 40.2318 482.847 40.58V41.8415C482.847 42.1897 482.564 42.4723 482.216 42.4723C481.868 42.4723 481.585 42.1897 481.585 41.8415V40.58C481.585 40.2318 481.868 39.9492 482.216 39.9492Z" fill="#F1F3F8"/>
<path d="M482.216 32.3809C482.564 32.3809 482.847 32.6634 482.847 33.0116V34.2732C482.847 34.6213 482.564 34.9039 482.216 34.9039C481.868 34.9039 481.585 34.6213 481.585 34.2732V33.0116C481.585 32.6634 481.868 32.3809 482.216 32.3809Z" fill="#F1F3F8"/>
<path d="M479.692 36.166C480.041 36.166 480.323 36.4486 480.323 36.7968V38.0583C480.323 38.4065 480.041 38.6891 479.692 38.6891C479.344 38.6891 479.062 38.4065 479.062 38.0583V36.7968C479.062 36.4486 479.344 36.166 479.692 36.166Z" fill="#F1F3F8"/>
<path d="M479.692 32.3809C480.041 32.3809 480.323 32.6634 480.323 33.0116V34.2732C480.323 34.6213 480.041 34.9039 479.692 34.9039C479.344 34.9039 479.062 34.6213 479.062 34.2732V33.0116C479.062 32.6634 479.344 32.3809 479.692 32.3809Z" fill="#F1F3F8"/>
<path d="M479.692 39.9492C480.041 39.9492 480.323 40.2318 480.323 40.58V41.8415C480.323 42.1897 480.041 42.4723 479.692 42.4723C479.344 42.4723 479.062 42.1897 479.062 41.8415V40.58C479.062 40.2318 479.344 39.9492 479.692 39.9492Z" fill="#F1F3F8"/>
<path d="M449.416 15.3506H450.677V13.4583C450.677 13.1101 450.96 12.8276 451.308 12.8276H455.093C455.441 12.8276 455.724 13.1101 455.724 13.4583V15.3506H456.985C457.333 15.3506 457.616 15.6332 457.616 15.9814V26.0737H458.247V24.1813C458.247 23.8332 458.529 23.5506 458.877 23.5506H459.508V22.9199C459.508 22.5717 459.791 22.2891 460.139 22.2891C460.487 22.2891 460.77 22.5717 460.77 22.9199V23.5506H461.4C461.749 23.5506 462.031 23.8332 462.031 24.1813V26.0737H463.924V13.4583C463.924 13.1101 464.206 12.8276 464.554 12.8276H466.447V9.04293C466.447 8.6947 466.729 8.41211 467.077 8.41211H474.647C474.995 8.41211 475.277 8.6947 475.277 9.04286V12.8275H477.17C477.518 12.8275 477.8 13.1101 477.8 13.4582V29.8583H479.062V27.966C479.062 27.6178 479.345 27.3352 479.693 27.3352H483.477C483.826 27.3352 484.108 27.6178 484.108 27.966V29.8583H484.739C485.087 29.8583 485.37 30.1409 485.37 30.489V45.6275C485.37 45.9757 485.087 46.2583 484.739 46.2583H477.17H472.123H456.985H449.416C449.068 46.2583 448.785 45.9757 448.785 45.6275V15.9814C448.785 15.6332 449.068 15.3506 449.416 15.3506ZM467.708 15.9814C467.708 15.6332 467.426 15.3506 467.077 15.3506C466.729 15.3506 466.447 15.6332 466.447 15.9814V26.0737H467.708V15.9814H467.708ZM470.231 11.566C470.231 11.2178 469.949 10.9352 469.601 10.9352C469.252 10.9352 468.97 11.2178 468.97 11.566V13.4583C468.97 13.8065 469.252 14.089 469.601 14.089C469.949 14.089 470.231 13.8065 470.231 13.4583V11.566ZM470.231 15.9814C470.231 15.6332 469.949 15.3506 469.601 15.3506C469.252 15.3506 468.97 15.6332 468.97 15.9814V26.0737H470.231V15.9814H470.231ZM472.754 11.566C472.754 11.2178 472.472 10.9352 472.124 10.9352C471.775 10.9352 471.493 11.2178 471.493 11.566V13.4583C471.493 13.8065 471.775 14.089 472.124 14.089C472.472 14.089 472.754 13.8065 472.754 13.4583V11.566ZM475.277 15.9814C475.277 15.6332 474.995 15.3506 474.647 15.3506C474.298 15.3506 474.016 15.6332 474.016 15.9814V29.8583H475.277V15.9814H475.277ZM472.754 43.7353H474.647C474.995 43.7353 475.277 43.4527 475.277 43.1045C475.277 42.7564 474.995 42.4738 474.647 42.4738H472.754V43.7353ZM472.754 41.2121H474.647C474.995 41.2121 475.277 40.9296 475.277 40.5814C475.277 40.2332 474.995 39.9507 474.647 39.9507H472.754V41.2121ZM472.754 38.6891H474.647C474.995 38.6891 475.277 38.4065 475.277 38.0583C475.277 37.7102 474.995 37.4276 474.647 37.4276H472.754V38.6891ZM472.754 36.166H474.647C474.995 36.166 475.277 35.8834 475.277 35.5353C475.277 35.1871 474.995 34.9045 474.647 34.9045H472.754V36.166ZM472.754 32.3814H477.17C477.518 32.3814 477.8 32.664 477.8 33.0122V44.9968H484.108V31.1198H483.477H479.693H477.17H474.647H472.754V32.3814ZM472.754 26.7045V15.9814C472.754 15.6332 472.472 15.3506 472.124 15.3506C471.775 15.3506 471.493 15.6332 471.493 15.9814V26.0737H472.124C472.472 26.0737 472.754 26.3562 472.754 26.7045ZM457.616 44.9968H458.877V29.2275C458.877 28.8794 459.16 28.5968 459.508 28.5968C459.856 28.5968 460.139 28.8794 460.139 29.2275V44.9968H461.4V29.2275C461.4 28.8794 461.683 28.5968 462.031 28.5968C462.379 28.5968 462.662 28.8794 462.662 29.2275V44.9968H463.924V29.2275C463.924 28.8794 464.206 28.5968 464.554 28.5968C464.902 28.5968 465.185 28.8794 465.185 29.2275V44.9968H466.447V29.2275C466.447 28.8794 466.729 28.5968 467.077 28.5968C467.425 28.5968 467.708 28.8794 467.708 29.2275V44.9968H468.97V29.2275C468.97 28.8794 469.252 28.5968 469.6 28.5968C469.949 28.5968 470.231 28.8794 470.231 29.2275V44.9968H471.493V43.1045V40.5814V38.0583V35.5353V33.0122V30.4891V27.3352H469.6H467.077H464.554H461.4H458.877H457.616V44.9968ZM453.831 42.5967C453.831 42.9449 454.114 43.2275 454.462 43.2275C454.81 43.2275 455.093 42.9449 455.093 42.5967V41.3351C455.093 40.987 454.81 40.7044 454.462 40.7044C454.114 40.7044 453.831 40.987 453.831 41.3351V42.5967ZM453.831 38.8121C453.831 39.1602 454.114 39.4428 454.462 39.4428C454.81 39.4428 455.093 39.1602 455.093 38.8121V37.5505C455.093 37.2024 454.81 36.9198 454.462 36.9198C454.114 36.9198 453.831 37.2024 453.831 37.5505V38.8121ZM453.831 35.0275C453.831 35.3756 454.114 35.6582 454.462 35.6582C454.81 35.6582 455.093 35.3756 455.093 35.0275V33.7659C455.093 33.4177 454.81 33.1352 454.462 33.1352C454.114 33.1352 453.831 33.4177 453.831 33.7659V35.0275ZM453.831 31.2428C453.831 31.591 454.114 31.8736 454.462 31.8736C454.81 31.8736 455.093 31.591 455.093 31.2428V29.9813C455.093 29.6331 454.81 29.3505 454.462 29.3505C454.114 29.3505 453.831 29.6331 453.831 29.9813V31.2428ZM453.831 27.4582C453.831 27.8064 454.114 28.089 454.462 28.089C454.81 28.089 455.093 27.8064 455.093 27.4582V26.1967C455.093 25.8485 454.81 25.5659 454.462 25.5659C454.114 25.5659 453.831 25.8485 453.831 26.1967V27.4582ZM453.831 23.6736C453.831 24.0218 454.114 24.3043 454.462 24.3043C454.81 24.3043 455.093 24.0218 455.093 23.6736V22.412C455.093 22.0639 454.81 21.7813 454.462 21.7813C454.114 21.7813 453.831 22.0639 453.831 22.412V23.6736ZM453.831 19.889C453.831 20.2371 454.114 20.5197 454.462 20.5197C454.81 20.5197 455.093 20.2371 455.093 19.889V18.6274C455.093 18.2793 454.81 17.9967 454.462 17.9967C454.114 17.9967 453.831 18.2793 453.831 18.6274V19.889ZM451.308 42.5967C451.308 42.9449 451.591 43.2275 451.939 43.2275C452.287 43.2275 452.57 42.9449 452.57 42.5967V41.3351C452.57 40.987 452.287 40.7044 451.939 40.7044C451.591 40.7044 451.308 40.987 451.308 41.3351V42.5967ZM451.308 38.8121C451.308 39.1602 451.591 39.4428 451.939 39.4428C452.287 39.4428 452.57 39.1602 452.57 38.8121V37.5505C452.57 37.2024 452.287 36.9198 451.939 36.9198C451.591 36.9198 451.308 37.2024 451.308 37.5505V38.8121ZM451.308 35.0275C451.308 35.3756 451.591 35.6582 451.939 35.6582C452.287 35.6582 452.57 35.3756 452.57 35.0275V33.7659C452.57 33.4177 452.287 33.1352 451.939 33.1352C451.591 33.1352 451.308 33.4177 451.308 33.7659V35.0275ZM451.308 31.2428C451.308 31.591 451.591 31.8736 451.939 31.8736C452.287 31.8736 452.57 31.591 452.57 31.2428V29.9813C452.57 29.6331 452.287 29.3505 451.939 29.3505C451.591 29.3505 451.308 29.6331 451.308 29.9813V31.2428ZM451.308 27.4582C451.308 27.8064 451.591 28.089 451.939 28.089C452.287 28.089 452.57 27.8064 452.57 27.4582V26.1967C452.57 25.8485 452.287 25.5659 451.939 25.5659C451.591 25.5659 451.308 25.8485 451.308 26.1967V27.4582ZM451.308 23.6736C451.308 24.0218 451.591 24.3043 451.939 24.3043C452.287 24.3043 452.57 24.0218 452.57 23.6736V22.412C452.57 22.0639 452.287 21.7813 451.939 21.7813C451.591 21.7813 451.308 22.0639 451.308 22.412V23.6736ZM451.308 19.889C451.308 20.2371 451.591 20.5197 451.939 20.5197C452.287 20.5197 452.57 20.2371 452.57 19.889V18.6274C452.57 18.2793 452.287 17.9967 451.939 17.9967C451.591 17.9967 451.308 18.2793 451.308 18.6274V19.889Z" fill="#F1F3F8"/>
</g>
<g clip-path="url(#clip4)">
<path d="M403.265 35.2233H407.654V29.7801C407.654 29.4122 407.952 29.1139 408.32 29.1139C408.688 29.1139 408.986 29.4122 408.986 29.7801V44.8557H418.088H420.419V41.8849V39.8865V36.0561V34.0577V30.2275V28.2291V25.065H408.986V26.6711C408.986 27.0389 408.688 27.3372 408.32 27.3372C407.952 27.3372 407.654 27.0389 407.654 26.6711V24.3989C407.654 24.031 407.952 23.7327 408.32 23.7327H417.422V2.13882C417.422 1.77096 417.72 1.47266 418.088 1.47266H431.943C432.311 1.47266 432.609 1.77096 432.609 2.13882V12.1043H441.226C441.594 12.1043 441.893 12.4026 441.893 12.7705V29.1489H446.787C447.155 29.1489 447.453 29.4472 447.453 29.8151V45.5218C447.453 45.8897 447.155 46.188 446.787 46.188H441.226H427.371C427.37 46.188 427.37 46.1879 427.369 46.1879H421.085H418.088H408.322C408.321 46.1879 408.32 46.188 408.32 46.188H403.265C402.897 46.188 402.598 45.8897 402.598 45.5218V35.8894C402.598 35.5216 402.897 35.2233 403.265 35.2233ZM441.893 44.8556H446.121V30.4813H441.893V44.8556ZM428.037 44.8556H431.943V44.8557H440.56V41.1719H428.037V44.8556ZM428.037 35.3543H434.041C434.409 35.3543 434.707 35.6526 434.707 36.0205C434.707 36.3883 434.409 36.6866 434.041 36.6866H428.037V39.8396H440.56V36.6866H437.15C436.782 36.6866 436.484 36.3883 436.484 36.0205C436.484 35.6526 436.782 35.3543 437.15 35.3543H440.56V32.2013H428.037V35.3543ZM428.037 30.8692H440.56V29.8151V27.7161H428.037V30.8692ZM428.037 26.3839H440.56V23.231H428.037V26.3839ZM428.037 21.8987H440.56V18.7457H428.037V21.8987ZM428.037 17.4134H440.56V13.4365H428.037V17.4134ZM421.751 24.399V28.2292V30.2276V34.0579V36.0563V39.8867V41.8851V44.8559H426.705V12.7704C426.705 12.4025 427.003 12.1042 427.371 12.1042H428.279V10.772C428.279 10.4041 428.577 10.1058 428.945 10.1058C429.313 10.1058 429.612 10.4041 429.612 10.772V12.1042H431.277V2.80498H418.754V23.7328H421.085C421.453 23.7328 421.751 24.031 421.751 24.399ZM403.931 44.8556H407.654V36.5555H403.931V44.8556Z" fill="#F1F3F8"/>
<path d="M421.085 15.9043C421.453 15.9043 421.751 16.2026 421.751 16.5705V18.5689C421.751 18.9368 421.453 19.235 421.085 19.235C420.717 19.235 420.419 18.9367 420.419 18.5689V16.5705C420.419 16.2026 420.717 15.9043 421.085 15.9043Z" fill="#F1F3F8"/>
<path d="M425.015 15.9043C425.383 15.9043 425.682 16.2026 425.682 16.5705V18.5689C425.682 18.9368 425.383 19.235 425.015 19.235C424.648 19.235 424.349 18.9367 424.349 18.5689V16.5705C424.349 16.2026 424.648 15.9043 425.015 15.9043Z" fill="#F1F3F8"/>
<path d="M421.085 10.1055C421.453 10.1055 421.751 10.4038 421.751 10.7716V12.77C421.751 13.1379 421.453 13.4362 421.085 13.4362C420.717 13.4362 420.419 13.1379 420.419 12.77V10.7716C420.419 10.4038 420.717 10.1055 421.085 10.1055Z" fill="#F1F3F8"/>
<path d="M425.015 10.1055C425.383 10.1055 425.682 10.4038 425.682 10.7716V12.77C425.682 13.1379 425.383 13.4362 425.015 13.4362C424.648 13.4362 424.349 13.1379 424.349 12.77V10.7716C424.349 10.4038 424.648 10.1055 425.015 10.1055Z" fill="#F1F3F8"/>
<path d="M428.946 4.30469C429.314 4.30469 429.612 4.60299 429.612 4.97085V6.96925C429.612 7.33712 429.314 7.63542 428.946 7.63542C428.578 7.63542 428.279 7.33712 428.279 6.96925V4.97085C428.279 4.60299 428.578 4.30469 428.946 4.30469Z" fill="#F1F3F8"/>
<path d="M421.085 4.30469C421.453 4.30469 421.751 4.60299 421.751 4.97085V6.96925C421.751 7.33712 421.453 7.63542 421.085 7.63542C420.717 7.63542 420.419 7.33712 420.419 6.96925V4.97085C420.419 4.60299 420.717 4.30469 421.085 4.30469Z" fill="#F1F3F8"/>
<path d="M425.015 4.30469C425.383 4.30469 425.682 4.60299 425.682 4.97085V6.96925C425.682 7.33712 425.383 7.63542 425.015 7.63542C424.648 7.63542 424.349 7.33712 424.349 6.96925V4.97085C424.349 4.60299 424.648 4.30469 425.015 4.30469Z" fill="#F1F3F8"/>
<path d="M421.441 21.8372C421.71 22.0068 421.824 22.3597 421.7 22.6542C421.593 22.9055 421.343 23.0717 421.069 23.065C420.79 23.0582 420.541 22.8734 420.453 22.6085C420.259 22.0258 420.925 21.5125 421.441 21.8372Z" fill="#F1F3F8"/>
<path d="M425.015 21.7344C425.383 21.7344 425.682 22.0327 425.682 22.4005V24.3989C425.682 24.7669 425.383 25.0651 425.015 25.0651C424.648 25.0651 424.349 24.7668 424.349 24.3989V22.4005C424.349 22.0326 424.648 21.7344 425.015 21.7344Z" fill="#F1F3F8"/>
<path d="M425.015 39.2188C425.383 39.2188 425.682 39.5171 425.682 39.8849V41.8833C425.682 42.2512 425.383 42.5495 425.015 42.5495C424.648 42.5495 424.349 42.2512 424.349 41.8833V39.8849C424.349 39.517 424.648 39.2188 425.015 39.2188Z" fill="#F1F3F8"/>
<path d="M425.015 33.3906C425.383 33.3906 425.682 33.6889 425.682 34.0568V36.0552C425.682 36.4231 425.383 36.7214 425.015 36.7214C424.648 36.7214 424.349 36.4231 424.349 36.0552V34.0568C424.349 33.6889 424.648 33.3906 425.015 33.3906Z" fill="#F1F3F8"/>
<path d="M425.015 27.5625C425.383 27.5625 425.682 27.8608 425.682 28.2287V30.2271C425.682 30.5949 425.383 30.8932 425.015 30.8932C424.648 30.8932 424.349 30.5949 424.349 30.2271V28.2287C424.349 27.8607 424.648 27.5625 425.015 27.5625Z" fill="#F1F3F8"/>
<path d="M411.018 39.0176H418.388C418.755 39.0176 419.054 39.3159 419.054 39.6837C419.054 40.0516 418.755 40.3499 418.388 40.3499H411.018C410.65 40.3499 410.352 40.0516 410.352 39.6837C410.352 39.3159 410.65 39.0176 411.018 39.0176Z" fill="#F1F3F8"/>
<path d="M411.018 42.166H418.388C418.755 42.166 419.054 42.4643 419.054 42.8322C419.054 43.2 418.755 43.4983 418.388 43.4983H411.018C410.65 43.4983 410.352 43.2 410.352 42.8322C410.352 42.4642 410.65 42.166 411.018 42.166Z" fill="#F1F3F8"/>
<path d="M411.018 35.8691H418.388C418.755 35.8691 419.054 36.1674 419.054 36.5353C419.054 36.9032 418.755 37.2015 418.388 37.2015H411.018C410.65 37.2015 410.352 36.9032 410.352 36.5353C410.352 36.1674 410.65 35.8691 411.018 35.8691Z" fill="#F1F3F8"/>
<path d="M411.018 26.4199H418.388C418.755 26.4199 419.054 26.7182 419.054 27.0861C419.054 27.4539 418.755 27.7522 418.388 27.7522H411.018C410.65 27.7522 410.352 27.4539 410.352 27.0861C410.352 26.7182 410.65 26.4199 411.018 26.4199Z" fill="#F1F3F8"/>
<path d="M411.018 32.7188H418.388C418.755 32.7188 419.054 33.0171 419.054 33.3849C419.054 33.7528 418.755 34.0511 418.388 34.0511H411.018C410.65 34.0511 410.352 33.7528 410.352 33.3849C410.352 33.0171 410.65 32.7188 411.018 32.7188Z" fill="#F1F3F8"/>
<path d="M411.018 29.5703H418.388C418.755 29.5703 419.054 29.8686 419.054 30.2365C419.054 30.6043 418.755 30.9026 418.388 30.9026H411.018C410.65 30.9026 410.352 30.6043 410.352 30.2365C410.352 29.8686 410.65 29.5703 411.018 29.5703Z" fill="#F1F3F8"/>
<path d="M444.007 31.5391C444.375 31.5391 444.673 31.8374 444.673 32.2052V33.9371C444.673 34.305 444.375 34.6033 444.007 34.6033C443.639 34.6033 443.341 34.305 443.341 33.9371V32.2052C443.341 31.8374 443.639 31.5391 444.007 31.5391Z" fill="#F1F3F8"/>
<path d="M444.007 36.1348C444.375 36.1348 444.673 36.4331 444.673 36.8009V38.5328C444.673 38.9007 444.375 39.199 444.007 39.199C443.639 39.199 443.341 38.9007 443.341 38.5328V36.8009C443.341 36.433 443.639 36.1348 444.007 36.1348Z" fill="#F1F3F8"/>
<path d="M444.007 40.7324C444.375 40.7324 444.673 41.0307 444.673 41.3986V43.1305C444.673 43.4984 444.375 43.7967 444.007 43.7967C443.639 43.7967 443.341 43.4984 443.341 43.1305V41.3986C443.341 41.0306 443.639 40.7324 444.007 40.7324Z" fill="#F1F3F8"/>
<path d="M405.792 38.1523C406.16 38.1523 406.458 38.4506 406.458 38.8185V40.7038C406.458 41.0717 406.16 41.37 405.792 41.37C405.424 41.37 405.126 41.0717 405.126 40.7038V38.8185C405.126 38.4506 405.424 38.1523 405.792 38.1523Z" fill="#F1F3F8"/>
<path d="M407.745 14.3066H415.872C416.24 14.3066 416.538 14.6049 416.538 14.9728C416.538 15.3407 416.24 15.639 415.872 15.639H407.745C407.377 15.639 407.079 15.3407 407.079 14.9728C407.079 14.6049 407.377 14.3066 407.745 14.3066Z" fill="#F1F3F8"/>
<path d="M405.214 17.1016H411.076C411.444 17.1016 411.742 17.3999 411.742 17.7677C411.742 18.1356 411.444 18.4339 411.076 18.4339H405.214C404.846 18.4339 404.548 18.1356 404.548 17.7677C404.548 17.3999 404.846 17.1016 405.214 17.1016Z" fill="#F1F3F8"/>
<path d="M435.456 6.44531H441.318C441.686 6.44531 441.984 6.74361 441.984 7.11148C441.984 7.47934 441.686 7.77764 441.318 7.77764H435.456C435.088 7.77764 434.79 7.47934 434.79 7.11148C434.79 6.74361 435.088 6.44531 435.456 6.44531Z" fill="#F1F3F8"/>
<path d="M438.786 8.66797H444.648C445.016 8.66797 445.314 8.96627 445.314 9.33413C445.314 9.70199 445.016 10.0003 444.648 10.0003H438.786C438.418 10.0003 438.12 9.70199 438.12 9.33413C438.12 8.96627 438.418 8.66797 438.786 8.66797Z" fill="#F1F3F8"/>
</g>
<path d="M370.653 37.3047H369.161V43.2733H370.653V37.3047Z" fill="#F1F3F8"/>
<path d="M367.668 37.3047H366.176V43.2733H367.668V37.3047Z" fill="#F1F3F8"/>
<path d="M360.208 26.1051V10.445H361.7V2.84925L363.192 3.09769V1.49215H364.684V3.34688L366.176 3.59532V0H367.668V3.84451L369.161 4.09295V1.49215H370.653V4.3414L372.145 4.58984V10.445H373.637V17.9057H379.606V7.46073H382.59V2.98429H384.082V0H391.543V2.98429H393.035V7.46073H396.019V21.4011C397.565 22.139 398.691 23.611 398.944 25.3665H400.496V46.2565H354.239V25.2523L360.208 26.1051ZM370.653 5.85443L363.192 4.61073V10.445H370.653V5.85443ZM372.145 11.9372H361.7V26.3185L366.176 26.9578V30.8382L368.414 27.8539L370.653 30.8382V17.9057H372.145V11.9372ZM372.145 20.89H382.59V19.3979H372.145V20.89ZM372.145 35.8115H364.684V44.7644H372.145V35.8115ZM371.399 34.3193L368.414 30.3405L365.43 34.3193H371.399ZM390.051 1.49215H385.574V2.98429H390.051V1.49215ZM391.543 4.47644H384.082V7.46073H391.543V4.47644ZM394.527 8.95287H381.098V17.9057H384.082V21.4011C384.762 21.0773 385.519 20.89 386.32 20.89H393.781C394.035 20.89 394.282 20.9147 394.527 20.9497V8.95287ZM393.781 22.3822H386.32C384.519 22.3822 383.012 23.6662 382.665 25.3665H397.436C397.089 23.6662 395.582 22.3822 393.781 22.3822ZM381.098 26.8586V28.3508H399.003V26.8586H381.098ZM384.082 40.2879H387.066V37.3036H384.082V40.2879ZM388.558 40.2879H391.543V37.3036H388.558V40.2879ZM388.558 41.7801V44.7644H391.543V41.7801H388.558ZM387.066 41.7801H384.082V44.7644H387.066V41.7801ZM384.082 35.8115H387.066V32.8272H384.082V35.8115ZM388.558 35.8115H391.543V32.8272H388.558V35.8115ZM393.035 35.8115H396.019V32.8272H393.035V35.8115ZM396.019 37.3036H393.035V40.2879H396.019V37.3036ZM396.019 41.7801H393.035V44.7644H396.019V41.7801ZM382.59 44.7644V31.335H397.511V44.7644H399.003V29.8429H381.098V44.7644H382.59ZM381.157 25.3665C381.319 24.2459 381.833 23.2379 382.59 22.465V22.3822H372.145V32.8272L373.637 34.817V44.7644H379.606V25.3665H381.157ZM355.731 44.7644H363.192V34.817L364.684 32.8272V28.2515L355.731 26.9728V44.7644Z" fill="#F1F3F8"/>
<path d="M378.113 23.875H376.621V25.3671H378.113V23.875Z" fill="#F1F3F8"/>
<path d="M378.113 41.7812H376.621V43.2734H378.113V41.7812Z" fill="#F1F3F8"/>
<path d="M378.113 26.8594H376.621V28.3515H378.113V26.8594Z" fill="#F1F3F8"/>
<path d="M378.113 38.7969H376.621V40.289H378.113V38.7969Z" fill="#F1F3F8"/>
<path d="M378.113 32.8281H376.621V34.3203H378.113V32.8281Z" fill="#F1F3F8"/>
<path d="M378.113 29.8438H376.621V31.3359H378.113V29.8438Z" fill="#F1F3F8"/>
<path d="M378.113 35.8125H376.621V37.3046H378.113V35.8125Z" fill="#F1F3F8"/>
<path d="M375.129 29.8438H373.637V31.3359H375.129V29.8438Z" fill="#F1F3F8"/>
<path d="M375.129 26.8594H373.637V28.3515H375.129V26.8594Z" fill="#F1F3F8"/>
<path d="M375.129 23.875H373.637V25.3671H375.129V23.875Z" fill="#F1F3F8"/>
<path d="M358.716 41.7812H357.224V43.2734H358.716V41.7812Z" fill="#F1F3F8"/>
<path d="M358.716 35.8125H357.224V37.3046H358.716V35.8125Z" fill="#F1F3F8"/>
<path d="M358.716 38.7969H357.224V40.289H358.716V38.7969Z" fill="#F1F3F8"/>
<path d="M358.716 32.8281H357.224V34.3203H358.716V32.8281Z" fill="#F1F3F8"/>
<path d="M358.716 29.8438H357.224V31.3359H358.716V29.8438Z" fill="#F1F3F8"/>
<path d="M361.7 38.7969H360.208V40.289H361.7V38.7969Z" fill="#F1F3F8"/>
<path d="M361.7 29.8438H360.208V31.3359H361.7V29.8438Z" fill="#F1F3F8"/>
<path d="M361.7 35.8125H360.208V37.3046H361.7V35.8125Z" fill="#F1F3F8"/>
<path d="M361.7 41.7812H360.208V43.2734H361.7V41.7812Z" fill="#F1F3F8"/>
<path d="M361.7 32.8281H360.208V34.3203H361.7V32.8281Z" fill="#F1F3F8"/>
<path d="M384.082 10.4453H382.59V11.9375H384.082V10.4453Z" fill="#F1F3F8"/>
<path d="M387.066 10.4453H385.574V11.9375H387.066V10.4453Z" fill="#F1F3F8"/>
<path d="M393.035 10.4453H391.543V11.9375H393.035V10.4453Z" fill="#F1F3F8"/>
<path d="M390.051 10.4453H388.559V11.9375H390.051V10.4453Z" fill="#F1F3F8"/>
<path d="M390.051 13.4297H388.559V14.9218H390.051V13.4297Z" fill="#F1F3F8"/>
<path d="M384.082 13.4297H382.59V14.9218H384.082V13.4297Z" fill="#F1F3F8"/>
<path d="M393.035 13.4297H391.543V14.9218H393.035V13.4297Z" fill="#F1F3F8"/>
<path d="M387.066 13.4297H385.574V14.9218H387.066V13.4297Z" fill="#F1F3F8"/>
<path d="M393.035 16.4141H391.543V17.9062H393.035V16.4141Z" fill="#F1F3F8"/>
<path d="M390.051 16.4141H388.559V17.9062H390.051V16.4141Z" fill="#F1F3F8"/>
<path d="M387.066 16.4141H385.574V17.9062H387.066V16.4141Z" fill="#F1F3F8"/>
<path d="M364.684 13.4297H363.192V14.9218H364.684V13.4297Z" fill="#F1F3F8"/>
<path d="M367.668 13.4297H366.176V14.9218H367.668V13.4297Z" fill="#F1F3F8"/>
<path d="M370.653 13.4297H369.161V14.9218H370.653V13.4297Z" fill="#F1F3F8"/>
<path d="M364.684 16.4141H363.192V17.9062H364.684V16.4141Z" fill="#F1F3F8"/>
<path d="M370.653 16.4141H369.161V17.9062H370.653V16.4141Z" fill="#F1F3F8"/>
<path d="M367.668 16.4141H366.176V17.9062H367.668V16.4141Z" fill="#F1F3F8"/>
<path d="M367.668 25.3672H366.176V26.8593H367.668V25.3672Z" fill="#F1F3F8"/>
<path d="M367.668 22.3828H366.176V23.875H367.668V22.3828Z" fill="#F1F3F8"/>
<path d="M367.668 19.3984H366.176V20.8906H367.668V19.3984Z" fill="#F1F3F8"/>
<path d="M364.684 22.3828H363.192V23.875H364.684V22.3828Z" fill="#F1F3F8"/>
<path d="M364.684 19.3984H363.192V20.8906H364.684V19.3984Z" fill="#F1F3F8"/>
<g clip-path="url(#clip5)">
<path d="M338.639 26.5V29.6199H321.999V26.5H338.639ZM323.039 28.58H337.599V27.54H323.039V28.58Z" fill="#F1F3F8"/>
<path d="M337.6 25.4586H336.56V24.6745L330.32 19.875L324.08 24.6745V25.4586H323.04V24.1628L330.32 18.5625L337.6 24.1628V25.4586Z" fill="#F1F3F8"/>
<path d="M322 40.5372C322 39.0781 322.502 37.6476 323.413 36.5083L323.869 35.9389C324.174 35.5568 324.63 35.3373 325.12 35.3373C325.508 35.3373 325.872 35.4803 326.16 35.7278V34.8173H329.28V37.9373H327.689C328.048 38.7526 328.24 39.6392 328.24 40.5372C328.24 42.08 327.113 43.3613 325.64 43.6104V45.2171H328.24V40.5372V40.0172H332.4V45.2171H337.6V43.6104C336.126 43.3618 335 42.0805 335 40.5372C335 39.0781 335.501 37.6476 336.413 36.5083L336.868 35.9389C337.174 35.5568 337.63 35.3373 338.12 35.3373C338.609 35.3373 339.065 35.5567 339.37 35.9384L339.826 36.5083C340.738 37.6476 341.24 39.0781 341.24 40.5372C341.24 42.08 340.113 43.3613 338.64 43.6104V45.2171H343.319V40.0172H347.479V45.2171H350.599V43.6104C349.126 43.3618 347.999 42.0805 347.999 40.5372C347.999 39.2393 348.399 37.9653 349.128 36.8973H348.519V33.7773H351.639V35.4335C351.922 35.5308 352.178 35.6977 352.37 35.9384L352.826 36.5083C353.737 37.6476 354.239 39.0781 354.239 40.5372C354.239 42.08 353.112 43.3613 351.639 43.6104V45.2171H353.199V43.6572H354.239V46.2571H351.639H350.599H338.64H337.6H325.64H324.6H322V43.6572H323.04V45.2171H324.6V43.6104C323.127 43.3613 322 42.08 322 40.5372ZM350.599 34.8173H349.559V35.8573H349.95C350.131 35.6613 350.352 35.5188 350.599 35.4335V34.8173ZM351.639 40.0172V42.5433C352.534 42.3109 353.199 41.5039 353.199 40.5372C353.199 39.3132 352.778 38.1135 352.014 37.1583L351.558 36.5879C351.451 36.4537 351.291 36.3773 351.119 36.3773C350.948 36.3773 350.788 36.4537 350.68 36.5884L350.224 37.1583C349.461 38.1135 349.039 39.3132 349.039 40.5372C349.039 41.5039 349.705 42.3109 350.599 42.5433V40.0172H351.639ZM344.359 45.2171H346.439V41.0572H344.359V45.2171ZM338.64 40.0172V42.5433C339.534 42.3109 340.2 41.5039 340.2 40.5372C340.2 39.3132 339.778 38.1135 339.014 37.1583L338.558 36.5879C338.451 36.4537 338.291 36.3773 338.12 36.3773C337.948 36.3773 337.788 36.4537 337.681 36.5884L337.225 37.1583C336.461 38.1135 336.04 39.3132 336.04 40.5372C336.04 41.5039 336.705 42.3109 337.6 42.5433V40.0172H338.64ZM329.28 45.2171H331.36V41.0572H329.28V45.2171ZM328.24 36.8973V35.8573H327.2V36.8973H328.24ZM325.64 40.0172V42.5433C326.534 42.3109 327.2 41.5039 327.2 40.5372C327.2 39.3132 326.779 38.1135 326.015 37.1583L325.559 36.5879C325.451 36.4537 325.291 36.3773 325.12 36.3773C324.948 36.3773 324.789 36.4537 324.681 36.5884L324.225 37.1583C323.461 38.1135 323.04 39.3132 323.04 40.5372C323.04 41.5039 323.705 42.3109 324.6 42.5433V40.0172H325.64Z" fill="#F1F3F8"/>
<path d="M336.56 30.6582H337.6V34.8181H336.56V30.6582Z" fill="#F1F3F8"/>
<path d="M323.04 30.6582H324.08V34.8181H323.04V30.6582Z" fill="#F1F3F8"/>
<path d="M326.16 30.6582H329.28V33.7781H326.16V30.6582ZM327.2 32.7382H328.24V31.6982H327.2V32.7382Z" fill="#F1F3F8"/>
<path d="M331.36 30.6582H334.48V33.7781H331.36V30.6582ZM332.4 32.7382H333.44V31.6982H332.4V32.7382Z" fill="#F1F3F8"/>
<path d="M344.359 21.2988H347.479V24.4188H344.359V21.2988ZM345.399 23.3788H346.439V22.3388H345.399V23.3788Z" fill="#F1F3F8"/>
<path d="M340.2 21.2988H343.32V24.4188H340.2V21.2988ZM341.24 23.3788H342.28V22.3388H341.24V23.3788Z" fill="#F1F3F8"/>
<path d="M348.519 21.2988H351.639V24.4188H348.519V21.2988ZM349.559 23.3788H350.599V22.3388H349.559V23.3788Z" fill="#F1F3F8"/>
<path d="M344.359 25.459H347.479V28.5789H344.359V25.459ZM345.399 27.5389H346.439V26.499H345.399V27.5389Z" fill="#F1F3F8"/>
<path d="M340.2 25.459H343.32V28.5789H340.2V25.459ZM341.24 27.5389H342.28V26.499H341.24V27.5389Z" fill="#F1F3F8"/>
<path d="M348.519 25.459H351.639V28.5789H348.519V25.459ZM349.559 27.5389H350.599V26.499H349.559V27.5389Z" fill="#F1F3F8"/>
<path d="M344.359 29.6191H347.479V32.7391H344.359V29.6191ZM345.399 31.6991H346.439V30.6591H345.399V31.6991Z" fill="#F1F3F8"/>
<path d="M340.2 29.6191H343.32V32.7391H340.2V29.6191ZM341.24 31.6991H342.28V30.6591H341.24V31.6991Z" fill="#F1F3F8"/>
<path d="M351.639 32.7391H348.519V29.6191H351.639V32.7391ZM350.599 30.6591H349.559V31.6991H350.599V30.6591Z" fill="#F1F3F8"/>
<path d="M347.479 36.8973H344.359V33.7773H347.479V36.8973ZM346.439 34.8173H345.399V35.8573H346.439V34.8173Z" fill="#F1F3F8"/>
<path d="M343.32 36.8973H340.2V33.7773H343.32V36.8973ZM342.28 34.8173H341.24V35.8573H342.28V34.8173Z" fill="#F1F3F8"/>
<path d="M334.48 37.9403H331.36V34.8203H334.48V37.9403ZM333.44 35.8603H332.4V36.9003H333.44V35.8603Z" fill="#F1F3F8"/>
<path d="M353.199 20.2568H338.64V22.8567H337.6V19.2168H354.239V36.3765H353.199V20.2568Z" fill="#F1F3F8"/>
<path d="M351.639 17.1395H340.199V18.1795H339.159V16.0995H340.199V14.0195H351.639V16.0995H352.679V18.1795H351.639V17.1395ZM350.599 15.0595H341.239V16.0995H350.599V15.0595Z" fill="#F1F3F8"/>
</g>
<g clip-path="url(#clip6)">
<path d="M160.216 36.166C160.564 36.166 160.846 36.4486 160.846 36.7968V38.0583C160.846 38.4065 160.564 38.6891 160.216 38.6891C159.868 38.6891 159.585 38.4065 159.585 38.0583V36.7968C159.585 36.4486 159.868 36.166 160.216 36.166Z" fill="#F1F3F8"/>
<path d="M160.216 39.9492C160.564 39.9492 160.846 40.2318 160.846 40.58V41.8415C160.846 42.1897 160.564 42.4723 160.216 42.4723C159.868 42.4723 159.585 42.1897 159.585 41.8415V40.58C159.585 40.2318 159.868 39.9492 160.216 39.9492Z" fill="#F1F3F8"/>
<path d="M160.216 32.3809C160.564 32.3809 160.846 32.6634 160.846 33.0116V34.2732C160.846 34.6213 160.564 34.9039 160.216 34.9039C159.868 34.9039 159.585 34.6213 159.585 34.2732V33.0116C159.585 32.6634 159.868 32.3809 160.216 32.3809Z" fill="#F1F3F8"/>
<path d="M157.692 36.166C158.041 36.166 158.323 36.4486 158.323 36.7968V38.0583C158.323 38.4065 158.041 38.6891 157.692 38.6891C157.344 38.6891 157.062 38.4065 157.062 38.0583V36.7968C157.062 36.4486 157.344 36.166 157.692 36.166Z" fill="#F1F3F8"/>
<path d="M157.692 32.3809C158.041 32.3809 158.323 32.6634 158.323 33.0116V34.2732C158.323 34.6213 158.041 34.9039 157.692 34.9039C157.344 34.9039 157.062 34.6213 157.062 34.2732V33.0116C157.062 32.6634 157.344 32.3809 157.692 32.3809Z" fill="#F1F3F8"/>
<path d="M157.692 39.9492C158.041 39.9492 158.323 40.2318 158.323 40.58V41.8415C158.323 42.1897 158.041 42.4723 157.692 42.4723C157.344 42.4723 157.062 42.1897 157.062 41.8415V40.58C157.062 40.2318 157.344 39.9492 157.692 39.9492Z" fill="#F1F3F8"/>
<path d="M127.416 15.3506H128.677V13.4583C128.677 13.1101 128.96 12.8276 129.308 12.8276H133.093C133.441 12.8276 133.723 13.1101 133.723 13.4583V15.3506H134.985C135.333 15.3506 135.616 15.6332 135.616 15.9814V26.0737H136.246V24.1813C136.246 23.8332 136.529 23.5506 136.877 23.5506H137.508V22.9199C137.508 22.5717 137.791 22.2891 138.139 22.2891C138.487 22.2891 138.769 22.5717 138.769 22.9199V23.5506H139.4C139.748 23.5506 140.031 23.8332 140.031 24.1813V26.0737H141.923V13.4583C141.923 13.1101 142.206 12.8276 142.554 12.8276H144.446V9.04293C144.446 8.6947 144.729 8.41211 145.077 8.41211H152.646C152.995 8.41211 153.277 8.6947 153.277 9.04286V12.8275H155.169C155.518 12.8275 155.8 13.1101 155.8 13.4582V29.8583H157.062V27.966C157.062 27.6178 157.344 27.3352 157.693 27.3352H161.477C161.825 27.3352 162.108 27.6178 162.108 27.966V29.8583H162.739C163.087 29.8583 163.369 30.1409 163.369 30.489V45.6275C163.369 45.9757 163.087 46.2583 162.739 46.2583H155.169H150.123H134.985H127.415C127.067 46.2583 126.785 45.9757 126.785 45.6275V15.9814C126.785 15.6332 127.067 15.3506 127.416 15.3506ZM145.708 15.9814C145.708 15.6332 145.425 15.3506 145.077 15.3506C144.729 15.3506 144.446 15.6332 144.446 15.9814V26.0737H145.708V15.9814H145.708ZM148.231 11.566C148.231 11.2178 147.948 10.9352 147.6 10.9352C147.252 10.9352 146.97 11.2178 146.97 11.566V13.4583C146.97 13.8065 147.252 14.089 147.6 14.089C147.948 14.089 148.231 13.8065 148.231 13.4583V11.566ZM148.231 15.9814C148.231 15.6332 147.948 15.3506 147.6 15.3506C147.252 15.3506 146.97 15.6332 146.97 15.9814V26.0737H148.231V15.9814H148.231ZM150.754 11.566C150.754 11.2178 150.472 10.9352 150.123 10.9352C149.775 10.9352 149.493 11.2178 149.493 11.566V13.4583C149.493 13.8065 149.775 14.089 150.123 14.089C150.472 14.089 150.754 13.8065 150.754 13.4583V11.566ZM153.277 15.9814C153.277 15.6332 152.995 15.3506 152.646 15.3506C152.298 15.3506 152.016 15.6332 152.016 15.9814V29.8583H153.277V15.9814H153.277ZM150.754 43.7353H152.646C152.995 43.7353 153.277 43.4527 153.277 43.1045C153.277 42.7564 152.995 42.4738 152.646 42.4738H150.754V43.7353ZM150.754 41.2121H152.646C152.995 41.2121 153.277 40.9296 153.277 40.5814C153.277 40.2332 152.995 39.9507 152.646 39.9507H150.754V41.2121ZM150.754 38.6891H152.646C152.995 38.6891 153.277 38.4065 153.277 38.0583C153.277 37.7102 152.995 37.4276 152.646 37.4276H150.754V38.6891ZM150.754 36.166H152.646C152.995 36.166 153.277 35.8834 153.277 35.5353C153.277 35.1871 152.995 34.9045 152.646 34.9045H150.754V36.166ZM150.754 32.3814H155.169C155.518 32.3814 155.8 32.664 155.8 33.0122V44.9968H162.108V31.1198H161.477H157.693H155.17H152.646H150.754V32.3814ZM150.754 26.7045V15.9814C150.754 15.6332 150.472 15.3506 150.123 15.3506C149.775 15.3506 149.493 15.6332 149.493 15.9814V26.0737H150.123C150.472 26.0737 150.754 26.3562 150.754 26.7045ZM135.616 44.9968H136.877V29.2275C136.877 28.8794 137.16 28.5968 137.508 28.5968C137.856 28.5968 138.139 28.8794 138.139 29.2275V44.9968H139.4V29.2275C139.4 28.8794 139.683 28.5968 140.031 28.5968C140.379 28.5968 140.662 28.8794 140.662 29.2275V44.9968H141.923V29.2275C141.923 28.8794 142.206 28.5968 142.554 28.5968C142.902 28.5968 143.185 28.8794 143.185 29.2275V44.9968H144.446V29.2275C144.446 28.8794 144.729 28.5968 145.077 28.5968C145.425 28.5968 145.708 28.8794 145.708 29.2275V44.9968H146.969V29.2275C146.969 28.8794 147.252 28.5968 147.6 28.5968C147.948 28.5968 148.231 28.8794 148.231 29.2275V44.9968H149.493V43.1045V40.5814V38.0583V35.5353V33.0122V30.4891V27.3352H147.6H145.077H142.554H139.4H136.877H135.616V44.9968ZM131.831 42.5967C131.831 42.9449 132.114 43.2275 132.462 43.2275C132.81 43.2275 133.092 42.9449 133.092 42.5967V41.3351C133.092 40.987 132.81 40.7044 132.462 40.7044C132.114 40.7044 131.831 40.987 131.831 41.3351V42.5967ZM131.831 38.8121C131.831 39.1602 132.114 39.4428 132.462 39.4428C132.81 39.4428 133.092 39.1602 133.092 38.8121V37.5505C133.092 37.2024 132.81 36.9198 132.462 36.9198C132.114 36.9198 131.831 37.2024 131.831 37.5505V38.8121ZM131.831 35.0275C131.831 35.3756 132.114 35.6582 132.462 35.6582C132.81 35.6582 133.092 35.3756 133.092 35.0275V33.7659C133.092 33.4177 132.81 33.1352 132.462 33.1352C132.114 33.1352 131.831 33.4177 131.831 33.7659V35.0275ZM131.831 31.2428C131.831 31.591 132.114 31.8736 132.462 31.8736C132.81 31.8736 133.092 31.591 133.092 31.2428V29.9813C133.092 29.6331 132.81 29.3505 132.462 29.3505C132.114 29.3505 131.831 29.6331 131.831 29.9813V31.2428ZM131.831 27.4582C131.831 27.8064 132.114 28.089 132.462 28.089C132.81 28.089 133.092 27.8064 133.092 27.4582V26.1967C133.092 25.8485 132.81 25.5659 132.462 25.5659C132.114 25.5659 131.831 25.8485 131.831 26.1967V27.4582ZM131.831 23.6736C131.831 24.0218 132.114 24.3043 132.462 24.3043C132.81 24.3043 133.092 24.0218 133.092 23.6736V22.412C133.092 22.0639 132.81 21.7813 132.462 21.7813C132.114 21.7813 131.831 22.0639 131.831 22.412V23.6736ZM131.831 19.889C131.831 20.2371 132.114 20.5197 132.462 20.5197C132.81 20.5197 133.092 20.2371 133.092 19.889V18.6274C133.092 18.2793 132.81 17.9967 132.462 17.9967C132.114 17.9967 131.831 18.2793 131.831 18.6274V19.889ZM129.308 42.5967C129.308 42.9449 129.591 43.2275 129.939 43.2275C130.287 43.2275 130.569 42.9449 130.569 42.5967V41.3351C130.569 40.987 130.287 40.7044 129.939 40.7044C129.591 40.7044 129.308 40.987 129.308 41.3351V42.5967ZM129.308 38.8121C129.308 39.1602 129.591 39.4428 129.939 39.4428C130.287 39.4428 130.569 39.1602 130.569 38.8121V37.5505C130.569 37.2024 130.287 36.9198 129.939 36.9198C129.591 36.9198 129.308 37.2024 129.308 37.5505V38.8121ZM129.308 35.0275C129.308 35.3756 129.591 35.6582 129.939 35.6582C130.287 35.6582 130.569 35.3756 130.569 35.0275V33.7659C130.569 33.4177 130.287 33.1352 129.939 33.1352C129.591 33.1352 129.308 33.4177 129.308 33.7659V35.0275ZM129.308 31.2428C129.308 31.591 129.591 31.8736 129.939 31.8736C130.287 31.8736 130.569 31.591 130.569 31.2428V29.9813C130.569 29.6331 130.287 29.3505 129.939 29.3505C129.591 29.3505 129.308 29.6331 129.308 29.9813V31.2428ZM129.308 27.4582C129.308 27.8064 129.591 28.089 129.939 28.089C130.287 28.089 130.569 27.8064 130.569 27.4582V26.1967C130.569 25.8485 130.287 25.5659 129.939 25.5659C129.591 25.5659 129.308 25.8485 129.308 26.1967V27.4582ZM129.308 23.6736C129.308 24.0218 129.591 24.3043 129.939 24.3043C130.287 24.3043 130.569 24.0218 130.569 23.6736V22.412C130.569 22.0639 130.287 21.7813 129.939 21.7813C129.591 21.7813 129.308 22.0639 129.308 22.412V23.6736ZM129.308 19.889C129.308 20.2371 129.591 20.5197 129.939 20.5197C130.287 20.5197 130.569 20.2371 130.569 19.889V18.6274C130.569 18.2793 130.287 17.9967 129.939 17.9967C129.591 17.9967 129.308 18.2793 129.308 18.6274V19.889Z" fill="#F1F3F8"/>
</g>
<g clip-path="url(#clip7)">
<path d="M81.2645 35.2233H85.6538V29.7801C85.6538 29.4122 85.9521 29.1139 86.32 29.1139C86.6878 29.1139 86.9861 29.4122 86.9861 29.7801V44.8557H96.088H98.4189V41.8849V39.8865V36.0561V34.0577V30.2275V28.2291V25.065H86.9861V26.6711C86.9861 27.0389 86.6878 27.3372 86.32 27.3372C85.9521 27.3372 85.6538 27.0389 85.6538 26.6711V24.3989C85.6538 24.031 85.9521 23.7327 86.32 23.7327H95.4218V2.13882C95.4218 1.77096 95.7201 1.47266 96.088 1.47266H109.943C110.311 1.47266 110.609 1.77096 110.609 2.13882V12.1043H119.226C119.594 12.1043 119.893 12.4026 119.893 12.7705V29.1489H124.787C125.155 29.1489 125.453 29.4472 125.453 29.8151V45.5218C125.453 45.8897 125.155 46.188 124.787 46.188H119.226H105.371C105.37 46.188 105.37 46.1879 105.369 46.1879H99.0851H96.088H86.3216C86.3211 46.1879 86.3205 46.188 86.32 46.188H81.2645C80.8966 46.188 80.5983 45.8897 80.5983 45.5218V35.8894C80.5983 35.5216 80.8966 35.2233 81.2645 35.2233ZM119.893 44.8556H124.121V30.4813H119.893V44.8556ZM106.037 44.8556H109.943V44.8557H118.56V41.1719H106.037V44.8556ZM106.037 35.3543H112.041C112.409 35.3543 112.707 35.6526 112.707 36.0205C112.707 36.3883 112.409 36.6866 112.041 36.6866H106.037V39.8396H118.56V36.6866H115.15C114.782 36.6866 114.484 36.3883 114.484 36.0205C114.484 35.6526 114.782 35.3543 115.15 35.3543H118.56V32.2013H106.037V35.3543ZM106.037 30.8692H118.56V29.8151V27.7161H106.037V30.8692ZM106.037 26.3839H118.56V23.231H106.037V26.3839ZM106.037 21.8987H118.56V18.7457H106.037V21.8987ZM106.037 17.4134H118.56V13.4365H106.037V17.4134ZM99.7512 24.399V28.2292V30.2276V34.0579V36.0563V39.8867V41.8851V44.8559H104.705V12.7704C104.705 12.4025 105.003 12.1042 105.371 12.1042H106.279V10.772C106.279 10.4041 106.577 10.1058 106.945 10.1058C107.313 10.1058 107.612 10.4041 107.612 10.772V12.1042H109.277V2.80498H96.7542V23.7328H99.0852C99.453 23.7328 99.7512 24.031 99.7512 24.399ZM81.9307 44.8556H85.6537V36.5555H81.9307V44.8556Z" fill="#F1F3F8"/>
<path d="M99.0848 15.9043C99.4528 15.9043 99.751 16.2026 99.751 16.5705V18.5689C99.751 18.9368 99.4527 19.235 99.0848 19.235C98.7169 19.235 98.4187 18.9367 98.4187 18.5689V16.5705C98.4187 16.2026 98.7169 15.9043 99.0848 15.9043Z" fill="#F1F3F8"/>
<path d="M103.015 15.9043C103.383 15.9043 103.681 16.2026 103.681 16.5705V18.5689C103.681 18.9368 103.383 19.235 103.015 19.235C102.647 19.235 102.349 18.9367 102.349 18.5689V16.5705C102.349 16.2026 102.647 15.9043 103.015 15.9043Z" fill="#F1F3F8"/>
<path d="M99.0848 10.1055C99.4528 10.1055 99.751 10.4038 99.751 10.7716V12.77C99.751 13.1379 99.4527 13.4362 99.0848 13.4362C98.7169 13.4362 98.4187 13.1379 98.4187 12.77V10.7716C98.4187 10.4038 98.7169 10.1055 99.0848 10.1055Z" fill="#F1F3F8"/>
<path d="M103.015 10.1055C103.383 10.1055 103.681 10.4038 103.681 10.7716V12.77C103.681 13.1379 103.383 13.4362 103.015 13.4362C102.647 13.4362 102.349 13.1379 102.349 12.77V10.7716C102.349 10.4038 102.647 10.1055 103.015 10.1055Z" fill="#F1F3F8"/>
<path d="M106.946 4.30469C107.314 4.30469 107.612 4.60299 107.612 4.97085V6.96925C107.612 7.33712 107.314 7.63542 106.946 7.63542C106.578 7.63542 106.279 7.33712 106.279 6.96925V4.97085C106.279 4.60299 106.578 4.30469 106.946 4.30469Z" fill="#F1F3F8"/>
<path d="M99.0848 4.30469C99.4528 4.30469 99.751 4.60299 99.751 4.97085V6.96925C99.751 7.33712 99.4527 7.63542 99.0848 7.63542C98.7169 7.63542 98.4187 7.33712 98.4187 6.96925V4.97085C98.4187 4.60299 98.7169 4.30469 99.0848 4.30469Z" fill="#F1F3F8"/>
<path d="M103.015 4.30469C103.383 4.30469 103.681 4.60299 103.681 4.97085V6.96925C103.681 7.33712 103.383 7.63542 103.015 7.63542C102.647 7.63542 102.349 7.33712 102.349 6.96925V4.97085C102.349 4.60299 102.647 4.30469 103.015 4.30469Z" fill="#F1F3F8"/>
<path d="M99.4408 21.8372C99.7104 22.0068 99.8239 22.3597 99.6999 22.6542C99.5935 22.9055 99.3431 23.0717 99.069 23.065C98.7897 23.0582 98.5411 22.8734 98.4527 22.6085C98.2585 22.0258 98.9248 21.5125 99.4408 21.8372Z" fill="#F1F3F8"/>
<path d="M103.015 21.7344C103.383 21.7344 103.681 22.0327 103.681 22.4005V24.3989C103.681 24.7669 103.383 25.0651 103.015 25.0651C102.647 25.0651 102.349 24.7668 102.349 24.3989V22.4005C102.349 22.0326 102.647 21.7344 103.015 21.7344Z" fill="#F1F3F8"/>
<path d="M103.015 39.2188C103.383 39.2188 103.681 39.5171 103.681 39.8849V41.8833C103.681 42.2512 103.383 42.5495 103.015 42.5495C102.647 42.5495 102.349 42.2512 102.349 41.8833V39.8849C102.349 39.517 102.647 39.2188 103.015 39.2188Z" fill="#F1F3F8"/>
<path d="M103.015 33.3906C103.383 33.3906 103.681 33.6889 103.681 34.0568V36.0552C103.681 36.4231 103.383 36.7214 103.015 36.7214C102.647 36.7214 102.349 36.4231 102.349 36.0552V34.0568C102.349 33.6889 102.647 33.3906 103.015 33.3906Z" fill="#F1F3F8"/>
<path d="M103.015 27.5625C103.383 27.5625 103.681 27.8608 103.681 28.2287V30.2271C103.681 30.5949 103.383 30.8932 103.015 30.8932C102.647 30.8932 102.349 30.5949 102.349 30.2271V28.2287C102.349 27.8607 102.647 27.5625 103.015 27.5625Z" fill="#F1F3F8"/>
<path d="M89.0178 39.0176H96.3875C96.7555 39.0176 97.0537 39.3159 97.0537 39.6837C97.0537 40.0516 96.7555 40.3499 96.3875 40.3499H89.0178C88.6498 40.3499 88.3516 40.0516 88.3516 39.6837C88.3516 39.3159 88.6497 39.0176 89.0178 39.0176Z" fill="#F1F3F8"/>
<path d="M89.0178 42.166H96.3875C96.7555 42.166 97.0537 42.4643 97.0537 42.8322C97.0537 43.2 96.7555 43.4983 96.3875 43.4983H89.0178C88.6498 43.4983 88.3516 43.2 88.3516 42.8322C88.3516 42.4642 88.6497 42.166 89.0178 42.166Z" fill="#F1F3F8"/>
<path d="M89.0178 35.8691H96.3875C96.7555 35.8691 97.0537 36.1674 97.0537 36.5353C97.0537 36.9032 96.7555 37.2015 96.3875 37.2015H89.0178C88.6498 37.2015 88.3516 36.9032 88.3516 36.5353C88.3516 36.1674 88.6497 35.8691 89.0178 35.8691Z" fill="#F1F3F8"/>
<path d="M89.0178 26.4199H96.3875C96.7555 26.4199 97.0537 26.7182 97.0537 27.0861C97.0537 27.4539 96.7555 27.7522 96.3875 27.7522H89.0178C88.6498 27.7522 88.3516 27.4539 88.3516 27.0861C88.3516 26.7182 88.6497 26.4199 89.0178 26.4199Z" fill="#F1F3F8"/>
<path d="M89.0178 32.7188H96.3875C96.7555 32.7188 97.0537 33.0171 97.0537 33.3849C97.0537 33.7528 96.7555 34.0511 96.3875 34.0511H89.0178C88.6498 34.0511 88.3516 33.7528 88.3516 33.3849C88.3516 33.0171 88.6497 32.7188 89.0178 32.7188Z" fill="#F1F3F8"/>
<path d="M89.0178 29.5703H96.3875C96.7555 29.5703 97.0537 29.8686 97.0537 30.2365C97.0537 30.6043 96.7555 30.9026 96.3875 30.9026H89.0178C88.6498 30.9026 88.3516 30.6043 88.3516 30.2365C88.3516 29.8686 88.6497 29.5703 89.0178 29.5703Z" fill="#F1F3F8"/>
<path d="M122.007 31.5391C122.375 31.5391 122.673 31.8374 122.673 32.2052V33.9371C122.673 34.305 122.375 34.6033 122.007 34.6033C121.639 34.6033 121.341 34.305 121.341 33.9371V32.2052C121.341 31.8374 121.639 31.5391 122.007 31.5391Z" fill="#F1F3F8"/>
<path d="M122.007 36.1348C122.375 36.1348 122.673 36.4331 122.673 36.8009V38.5328C122.673 38.9007 122.375 39.199 122.007 39.199C121.639 39.199 121.341 38.9007 121.341 38.5328V36.8009C121.341 36.433 121.639 36.1348 122.007 36.1348Z" fill="#F1F3F8"/>
<path d="M122.007 40.7324C122.375 40.7324 122.673 41.0307 122.673 41.3986V43.1305C122.673 43.4984 122.375 43.7967 122.007 43.7967C121.639 43.7967 121.341 43.4984 121.341 43.1305V41.3986C121.341 41.0306 121.639 40.7324 122.007 40.7324Z" fill="#F1F3F8"/>
<path d="M83.7918 38.1523C84.1598 38.1523 84.458 38.4506 84.458 38.8185V40.7038C84.458 41.0717 84.1598 41.37 83.7918 41.37C83.4239 41.37 83.1257 41.0717 83.1257 40.7038V38.8185C83.1257 38.4506 83.4239 38.1523 83.7918 38.1523Z" fill="#F1F3F8"/>
<path d="M85.7452 14.3066H93.8719C94.2399 14.3066 94.5381 14.6049 94.5381 14.9728C94.5381 15.3407 94.2399 15.639 93.8719 15.639H85.7452C85.3773 15.639 85.0791 15.3407 85.0791 14.9728C85.0791 14.6049 85.3773 14.3066 85.7452 14.3066Z" fill="#F1F3F8"/>
<path d="M83.2138 17.1016H89.0758C89.4437 17.1016 89.7419 17.3999 89.7419 17.7677C89.7419 18.1356 89.4437 18.4339 89.0758 18.4339H83.2138C82.8459 18.4339 82.5477 18.1356 82.5477 17.7677C82.5477 17.3999 82.8459 17.1016 83.2138 17.1016Z" fill="#F1F3F8"/>
<path d="M113.456 6.44531H119.318C119.686 6.44531 119.984 6.74361 119.984 7.11148C119.984 7.47934 119.686 7.77764 119.318 7.77764H113.456C113.088 7.77764 112.79 7.47934 112.79 7.11148C112.79 6.74361 113.088 6.44531 113.456 6.44531Z" fill="#F1F3F8"/>
<path d="M116.787 8.66797H122.649C123.016 8.66797 123.315 8.96627 123.315 9.33413C123.315 9.70199 123.016 10.0003 122.649 10.0003H116.787C116.419 10.0003 116.12 9.70199 116.12 9.33413C116.12 8.96627 116.419 8.66797 116.787 8.66797Z" fill="#F1F3F8"/>
</g>
<path d="M48.6528 37.3047H47.1607V43.2733H48.6528V37.3047Z" fill="#F1F3F8"/>
<path d="M45.6685 37.3047H44.1763V43.2733H45.6685V37.3047Z" fill="#F1F3F8"/>
<path d="M38.2077 26.1051V10.445H39.6998V2.84925L41.192 3.09769V1.49215H42.6841V3.34688L44.1763 3.59532V0H45.6684V3.84451L47.1606 4.09295V1.49215H48.6527V4.3414L50.1448 4.58984V10.445H51.637V17.9057H57.6056V7.46073H60.5899V2.98429H62.082V0H69.5427V2.98429H71.0349V7.46073H74.0192V21.4011C75.565 22.139 76.6909 23.611 76.9438 25.3665H78.4956V46.2565H32.2391V25.2523L38.2077 26.1051ZM48.6527 5.85443L41.192 4.61073V10.445H48.6527V5.85443ZM50.1448 11.9372H39.6998V26.3185L44.1763 26.9578V30.8382L46.4145 27.8539L48.6527 30.8382V17.9057H50.1448V11.9372ZM50.1448 20.89H60.5899V19.3979H50.1448V20.89ZM50.1448 35.8115H42.6841V44.7644H50.1448V35.8115ZM49.3988 34.3193L46.4145 30.3405L43.4302 34.3193H49.3988ZM68.0506 1.49215H63.5742V2.98429H68.0506V1.49215ZM69.5427 4.47644H62.082V7.46073H69.5427V4.47644ZM72.527 8.95287H59.0977V17.9057H62.082V21.4011C62.7617 21.0773 63.5189 20.89 64.3202 20.89H71.781C72.0346 20.89 72.2823 20.9147 72.527 20.9497V8.95287ZM71.781 22.3822H64.3202C62.5192 22.3822 61.0121 23.6662 60.6652 25.3665H75.436C75.089 23.6662 73.582 22.3822 71.781 22.3822ZM59.0977 26.8586V28.3508H77.0035V26.8586H59.0977ZM62.082 40.2879H65.0663V37.3036H62.082V40.2879ZM66.5584 40.2879H69.5427V37.3036H66.5584V40.2879ZM66.5584 41.7801V44.7644H69.5427V41.7801H66.5584ZM65.0663 41.7801H62.082V44.7644H65.0663V41.7801ZM62.082 35.8115H65.0663V32.8272H62.082V35.8115ZM66.5584 35.8115H69.5427V32.8272H66.5584V35.8115ZM71.0349 35.8115H74.0192V32.8272H71.0349V35.8115ZM74.0192 37.3036H71.0349V40.2879H74.0192V37.3036ZM74.0192 41.7801H71.0349V44.7644H74.0192V41.7801ZM60.5899 44.7644V31.335H75.5113V44.7644H77.0035V29.8429H59.0977V44.7644H60.5899ZM59.1574 25.3665C59.3186 24.2459 59.8333 23.2379 60.5899 22.465V22.3822H50.1448V32.8272L51.637 34.817V44.7644H57.6056V25.3665H59.1574ZM33.7313 44.7644H41.192V34.817L42.6841 32.8272V28.2515L33.7313 26.9728V44.7644Z" fill="#F1F3F8"/>
<path d="M56.1133 23.875H54.6211V25.3671H56.1133V23.875Z" fill="#F1F3F8"/>
<path d="M56.1133 41.7812H54.6211V43.2734H56.1133V41.7812Z" fill="#F1F3F8"/>
<path d="M56.1133 26.8594H54.6211V28.3515H56.1133V26.8594Z" fill="#F1F3F8"/>
<path d="M56.1133 38.7969H54.6211V40.289H56.1133V38.7969Z" fill="#F1F3F8"/>
<path d="M56.1133 32.8281H54.6211V34.3203H56.1133V32.8281Z" fill="#F1F3F8"/>
<path d="M56.1133 29.8438H54.6211V31.3359H56.1133V29.8438Z" fill="#F1F3F8"/>
<path d="M56.1133 35.8125H54.6211V37.3046H56.1133V35.8125Z" fill="#F1F3F8"/>
<path d="M53.1292 29.8438H51.637V31.3359H53.1292V29.8438Z" fill="#F1F3F8"/>
<path d="M53.1292 26.8594H51.637V28.3515H53.1292V26.8594Z" fill="#F1F3F8"/>
<path d="M53.1292 23.875H51.637V25.3671H53.1292V23.875Z" fill="#F1F3F8"/>
<path d="M36.7158 41.7812H35.2237V43.2734H36.7158V41.7812Z" fill="#F1F3F8"/>
<path d="M36.7158 35.8125H35.2237V37.3046H36.7158V35.8125Z" fill="#F1F3F8"/>
<path d="M36.7158 38.7969H35.2237V40.289H36.7158V38.7969Z" fill="#F1F3F8"/>
<path d="M36.7158 32.8281H35.2237V34.3203H36.7158V32.8281Z" fill="#F1F3F8"/>
<path d="M36.7158 29.8438H35.2237V31.3359H36.7158V29.8438Z" fill="#F1F3F8"/>
<path d="M39.7 38.7969H38.2078V40.289H39.7V38.7969Z" fill="#F1F3F8"/>
<path d="M39.7 29.8438H38.2078V31.3359H39.7V29.8438Z" fill="#F1F3F8"/>
<path d="M39.7 35.8125H38.2078V37.3046H39.7V35.8125Z" fill="#F1F3F8"/>
<path d="M39.7 41.7812H38.2078V43.2734H39.7V41.7812Z" fill="#F1F3F8"/>
<path d="M39.7 32.8281H38.2078V34.3203H39.7V32.8281Z" fill="#F1F3F8"/>
<path d="M62.0823 10.4453H60.5901V11.9375H62.0823V10.4453Z" fill="#F1F3F8"/>
<path d="M65.0664 10.4453H63.5743V11.9375H65.0664V10.4453Z" fill="#F1F3F8"/>
<path d="M71.0349 10.4453H69.5428V11.9375H71.0349V10.4453Z" fill="#F1F3F8"/>
<path d="M68.0508 10.4453H66.5586V11.9375H68.0508V10.4453Z" fill="#F1F3F8"/>
<path d="M68.0508 13.4297H66.5586V14.9218H68.0508V13.4297Z" fill="#F1F3F8"/>
<path d="M62.0823 13.4297H60.5901V14.9218H62.0823V13.4297Z" fill="#F1F3F8"/>
<path d="M71.0349 13.4297H69.5428V14.9218H71.0349V13.4297Z" fill="#F1F3F8"/>
<path d="M65.0664 13.4297H63.5743V14.9218H65.0664V13.4297Z" fill="#F1F3F8"/>
<path d="M71.0349 16.4141H69.5428V17.9062H71.0349V16.4141Z" fill="#F1F3F8"/>
<path d="M68.0508 16.4141H66.5586V17.9062H68.0508V16.4141Z" fill="#F1F3F8"/>
<path d="M65.0664 16.4141H63.5743V17.9062H65.0664V16.4141Z" fill="#F1F3F8"/>
<path d="M42.6843 13.4297H41.1922V14.9218H42.6843V13.4297Z" fill="#F1F3F8"/>
<path d="M45.6685 13.4297H44.1763V14.9218H45.6685V13.4297Z" fill="#F1F3F8"/>
<path d="M48.6528 13.4297H47.1607V14.9218H48.6528V13.4297Z" fill="#F1F3F8"/>
<path d="M42.6843 16.4141H41.1922V17.9062H42.6843V16.4141Z" fill="#F1F3F8"/>
<path d="M48.6528 16.4141H47.1607V17.9062H48.6528V16.4141Z" fill="#F1F3F8"/>
<path d="M45.6685 16.4141H44.1763V17.9062H45.6685V16.4141Z" fill="#F1F3F8"/>
<path d="M45.6685 25.3672H44.1763V26.8593H45.6685V25.3672Z" fill="#F1F3F8"/>
<path d="M45.6685 22.3828H44.1763V23.875H45.6685V22.3828Z" fill="#F1F3F8"/>
<path d="M45.6685 19.3984H44.1763V20.8906H45.6685V19.3984Z" fill="#F1F3F8"/>
<path d="M42.6843 22.3828H41.1922V23.875H42.6843V22.3828Z" fill="#F1F3F8"/>
<path d="M42.6843 19.3984H41.1922V20.8906H42.6843V19.3984Z" fill="#F1F3F8"/>
<g clip-path="url(#clip8)">
<path d="M16.6392 26.5V29.6199H-0.000516891V26.5H16.6392ZM1.03946 28.58H15.5992V27.54H1.03946V28.58Z" fill="#F1F3F8"/>
<path d="M15.5999 25.4586H14.5599V24.6745L8.31999 19.875L2.08011 24.6745V25.4586H1.04013V24.1628L8.31999 18.5625L15.5999 24.1628V25.4586Z" fill="#F1F3F8"/>
<path d="M-0.000118256 40.5372C-0.000118256 39.0781 0.501673 37.6476 1.41322 36.5083L1.86873 35.9389C2.17396 35.5568 2.62999 35.3373 3.11982 35.3373C3.50826 35.3373 3.87225 35.4803 4.1598 35.7278V34.8173H7.27974V37.9373H5.68909C6.04789 38.7526 6.23976 39.6392 6.23976 40.5372C6.23976 42.08 5.11294 43.3613 3.63981 43.6104V45.2171H6.23976V40.5372V40.0172H10.3997V45.2171H15.5996V43.6104C14.1264 43.3618 12.9996 42.0805 12.9996 40.5372C12.9996 39.0781 13.5014 37.6476 14.413 36.5083L14.8685 35.9389C15.1737 35.5568 15.6297 35.3373 16.1196 35.3373C16.6094 35.3373 17.0654 35.5567 17.3701 35.9384L17.8262 36.5083C18.7377 37.6476 19.2395 39.0781 19.2395 40.5372C19.2395 42.08 18.1127 43.3613 16.6396 43.6104V45.2171H21.3195V40.0172H25.4794V45.2171H28.5993V43.6104C27.1262 43.3618 25.9994 42.0805 25.9994 40.5372C25.9994 39.2393 26.3987 37.9653 27.1278 36.8973H26.5194V33.7773H29.6393V35.4335C29.9222 35.5308 30.178 35.6977 30.3699 35.9384L30.8259 36.5083C31.7375 37.6476 32.2393 39.0781 32.2393 40.5372C32.2393 42.08 31.1124 43.3613 29.6393 43.6104V45.2171H31.1993V43.6572H32.2393V46.2571H29.6393H28.5993H16.6396H15.5996H3.63981H2.59983H-0.000118256V43.6572H1.03986V45.2171H2.59983V43.6104C1.1267 43.3613 -0.000118256 42.08 -0.000118256 40.5372ZM28.5993 34.8173H27.5593V35.8573H27.9499C28.1308 35.6613 28.3523 35.5188 28.5993 35.4335V34.8173ZM29.6393 40.0172V42.5433C30.5337 42.3109 31.1993 41.5039 31.1993 40.5372C31.1993 39.3132 30.7781 38.1135 30.0142 37.1583L29.5582 36.5879C29.4506 36.4537 29.2909 36.3773 29.1193 36.3773C28.9477 36.3773 28.7881 36.4537 28.6804 36.5884L28.2244 37.1583C27.4606 38.1135 27.0394 39.3132 27.0394 40.5372C27.0394 41.5039 27.7049 42.3109 28.5993 42.5433V40.0172H29.6393ZM22.3594 45.2171H24.4394V41.0572H22.3594V45.2171ZM16.6396 40.0172V42.5433C17.5339 42.3109 18.1995 41.5039 18.1995 40.5372C18.1995 39.3132 17.7783 38.1135 17.0145 37.1583L16.5584 36.5879C16.4508 36.4537 16.2912 36.3773 16.1196 36.3773C15.948 36.3773 15.7883 36.4537 15.6807 36.5884L15.2247 37.1583C14.4608 38.1135 14.0396 39.3132 14.0396 40.5372C14.0396 41.5039 14.7052 42.3109 15.5996 42.5433V40.0172H16.6396ZM7.27974 45.2171H9.3597V41.0572H7.27974V45.2171ZM6.23976 36.8973V35.8573H5.19978V36.8973H6.23976ZM3.63981 40.0172V42.5433C4.53419 42.3109 5.19978 41.5039 5.19978 40.5372C5.19978 39.3132 4.77859 38.1135 4.01473 37.1583L3.55869 36.5879C3.45106 36.4537 3.29142 36.3773 3.11982 36.3773C2.94823 36.3773 2.78859 36.4537 2.68095 36.5884L2.22492 37.1583C1.46106 38.1135 1.03986 39.3132 1.03986 40.5372C1.03986 41.5039 1.70545 42.3109 2.59983 42.5433V40.0172H3.63981Z" fill="#F1F3F8"/>
<path d="M14.5599 30.6582H15.5999V34.8181H14.5599V30.6582Z" fill="#F1F3F8"/>
<path d="M1.03985 30.6582H2.07983V34.8181H1.03985V30.6582Z" fill="#F1F3F8"/>
<path d="M4.16009 30.6582H7.28003V33.7781H4.16009V30.6582ZM5.20007 32.7382H6.24005V31.6982H5.20007V32.7382Z" fill="#F1F3F8"/>
<path d="M9.3598 30.6582H12.4797V33.7781H9.3598V30.6582ZM10.3998 32.7382H11.4398V31.6982H10.3998V32.7382Z" fill="#F1F3F8"/>
<path d="M22.3591 21.2988H25.479V24.4188H22.3591V21.2988ZM23.399 23.3788H24.439V22.3388H23.399V23.3788Z" fill="#F1F3F8"/>
<path d="M18.1996 21.2988H21.3196V24.4188H18.1996V21.2988ZM19.2396 23.3788H20.2796V22.3388H19.2396V23.3788Z" fill="#F1F3F8"/>
<path d="M26.5195 21.2988H29.6394V24.4188H26.5195V21.2988ZM27.5594 23.3788H28.5994V22.3388H27.5594V23.3788Z" fill="#F1F3F8"/>
<path d="M22.3591 25.459H25.479V28.5789H22.3591V25.459ZM23.399 27.5389H24.439V26.499H23.399V27.5389Z" fill="#F1F3F8"/>
<path d="M18.1996 25.459H21.3196V28.5789H18.1996V25.459ZM19.2396 27.5389H20.2796V26.499H19.2396V27.5389Z" fill="#F1F3F8"/>
<path d="M26.5195 25.459H29.6394V28.5789H26.5195V25.459ZM27.5594 27.5389H28.5994V26.499H27.5594V27.5389Z" fill="#F1F3F8"/>
<path d="M22.3591 29.6191H25.479V32.7391H22.3591V29.6191ZM23.399 31.6991H24.439V30.6591H23.399V31.6991Z" fill="#F1F3F8"/>
<path d="M18.1996 29.6191H21.3196V32.7391H18.1996V29.6191ZM19.2396 31.6991H20.2796V30.6591H19.2396V31.6991Z" fill="#F1F3F8"/>
<path d="M29.6394 32.7391H26.5195V29.6191H29.6394V32.7391ZM28.5994 30.6591H27.5594V31.6991H28.5994V30.6591Z" fill="#F1F3F8"/>
<path d="M25.479 36.8973H22.3591V33.7773H25.479V36.8973ZM24.439 34.8173H23.399V35.8573H24.439V34.8173Z" fill="#F1F3F8"/>
<path d="M21.3196 36.8973H18.1996V33.7773H21.3196V36.8973ZM20.2796 34.8173H19.2396V35.8573H20.2796V34.8173Z" fill="#F1F3F8"/>
<path d="M12.4797 37.9403H9.3598V34.8203H12.4797V37.9403ZM11.4398 35.8603H10.3998V36.9003H11.4398V35.8603Z" fill="#F1F3F8"/>
<path d="M31.1993 20.2568H16.6396V22.8567H15.5996V19.2168H32.2393V36.3765H31.1993V20.2568Z" fill="#F1F3F8"/>
<path d="M29.6392 17.1395H18.1994V18.1795H17.1595V16.0995H18.1994V14.0195H29.6392V16.0995H30.6792V18.1795H29.6392V17.1395ZM28.5992 15.0595H19.2394V16.0995H28.5992V15.0595Z" fill="#F1F3F8"/>
</g>
</g>
<defs>
<clipPath id="clip0">
<rect width="37.8462" height="37.8462" fill="white" transform="translate(161 8.41211)"/>
</clipPath>
<clipPath id="clip1">
<rect width="44.8548" height="44.8548" fill="white" transform="translate(199.547 1.40234)"/>
</clipPath>
<clipPath id="clip2">
<rect width="32.2394" height="32.2394" fill="white" transform="translate(292.761 14.0176)"/>
</clipPath>
<clipPath id="clip3">
<rect width="37.8462" height="37.8462" fill="white" transform="matrix(-1 0 0 1 486 8.41211)"/>
</clipPath>
<clipPath id="clip4">
<rect width="44.8548" height="44.8548" fill="white" transform="matrix(-1 0 0 1 447.453 1.40234)"/>
</clipPath>
<clipPath id="clip5">
<rect width="32.2394" height="32.2394" fill="white" transform="matrix(-1 0 0 1 354.239 14.0176)"/>
</clipPath>
<clipPath id="clip6">
<rect width="37.8462" height="37.8462" fill="white" transform="matrix(-1 0 0 1 164 8.41211)"/>
</clipPath>
<clipPath id="clip7">
<rect width="44.8548" height="44.8548" fill="white" transform="matrix(-1 0 0 1 125.453 1.40234)"/>
</clipPath>
<clipPath id="clip8">
<rect width="32.2394" height="32.2394" fill="white" transform="matrix(-1 0 0 1 32.2393 14.0176)"/>
</clipPath>
</defs>
</svg>
