<svg width="69" height="26" viewBox="0 0 69 26" fill="none" xmlns="http://www.w3.org/2000/svg">
<path d="M39.6343 15.2757C39.6343 18.0634 39.0817 20.2357 37.9767 21.7928C36.8968 23.3248 35.3648 24.3921 33.3808 24.9949C31.3968 25.5976 29.0612 25.899 26.374 25.899H20.5349V4.69007H26.374C29.0612 4.69007 31.3968 5.09189 33.3808 5.89555C35.3648 6.67409 36.8968 7.84189 37.9767 9.39897C39.0817 10.956 39.6343 12.915 39.6343 15.2757ZM24.3397 22.7346H27.4664C29.124 22.7346 30.5555 22.5462 31.761 22.1695C32.9664 21.7677 33.8957 21.0268 34.5486 19.9469C35.2016 18.867 35.5281 17.2974 35.5281 15.238C35.5281 12.8019 34.7998 10.9937 33.3432 9.81336C31.9116 8.60788 29.9527 8.00514 27.4664 8.00514H24.3397V22.7346Z" fill="#475CA7"/>
<path d="M0 10.6233C2.43706e-07 7.83561 0.552512 5.66324 1.65754 4.10616C2.73744 2.5742 4.26941 1.50685 6.25343 0.904109C8.23744 0.301369 10.5731 -2.34924e-07 13.2603 0L19.0993 5.10466e-07L19.0993 21.2089H13.2603C10.5731 21.2089 8.23744 20.8071 6.25342 20.0034C4.26941 19.2249 2.73744 18.0571 1.65753 16.5C0.552511 14.9429 -2.06382e-07 12.984 0 10.6233ZM15.2945 3.16438L12.1678 3.16438C10.5103 3.16438 9.07877 3.35274 7.87329 3.72945C6.66781 4.13128 5.73859 4.87214 5.08562 5.95205C4.43265 7.03196 4.10616 8.6016 4.10616 10.661C4.10616 13.097 4.83447 14.9052 6.2911 16.0856C7.7226 17.2911 9.68151 17.8938 12.1678 17.8938H15.2945L15.2945 3.16438Z" fill="#475CA7"/>
<path d="M45.1359 2.10683H43.9711V1.68458H46.7813V2.10683H45.6164V5.08203H45.1359V2.10683ZM48.6155 2.4854C48.9423 2.4854 49.2011 2.58086 49.392 2.77176C49.5862 2.95943 49.6832 3.23608 49.6832 3.60171V5.08203H49.2173V3.6551C49.2173 3.40595 49.1574 3.21828 49.0377 3.09209C48.918 2.9659 48.7465 2.90281 48.5232 2.90281C48.2709 2.90281 48.0719 2.97723 47.9263 3.12607C47.7807 3.27167 47.7079 3.48199 47.7079 3.75702V5.08203H47.2419V1.48073H47.7079V2.87368C47.8049 2.75073 47.9311 2.65528 48.0864 2.58733C48.245 2.51938 48.4213 2.4854 48.6155 2.4854ZM52.8846 3.81041C52.8846 3.846 52.8813 3.89292 52.8749 3.95116H50.7879C50.817 4.17766 50.9157 4.36048 51.0839 4.49961C51.2554 4.63551 51.4674 4.70346 51.7197 4.70346C52.0271 4.70346 52.2747 4.59992 52.4623 4.39283L52.7196 4.69375C52.6031 4.82965 52.4575 4.93319 52.2827 5.00438C52.1113 5.07556 51.9187 5.11115 51.7052 5.11115C51.4334 5.11115 51.1923 5.05615 50.982 4.94613C50.7717 4.83288 50.6083 4.67595 50.4918 4.47534C50.3786 4.27473 50.3219 4.04823 50.3219 3.79585C50.3219 3.5467 50.3769 3.32183 50.4869 3.12121C50.6002 2.9206 50.7539 2.76529 50.948 2.65528C51.1454 2.54203 51.367 2.4854 51.613 2.4854C51.8589 2.4854 52.0773 2.54203 52.2682 2.65528C52.4623 2.76529 52.6128 2.9206 52.7196 3.12121C52.8296 3.32183 52.8846 3.55156 52.8846 3.81041ZM51.613 2.87854C51.3897 2.87854 51.202 2.94649 51.05 3.08239C50.9011 3.21828 50.8137 3.39625 50.7879 3.61627H52.4381C52.4122 3.39948 52.3232 3.22314 52.1711 3.08724C52.0223 2.94811 51.8362 2.87854 51.613 2.87854ZM44.4613 7.68458H45.8931C46.2522 7.68458 46.5709 7.75576 46.8492 7.89813C47.1275 8.0405 47.3426 8.24111 47.4947 8.49996C47.65 8.75558 47.7277 9.05003 47.7277 9.3833C47.7277 9.71658 47.65 10.0126 47.4947 10.2715C47.3426 10.5271 47.1275 10.7261 46.8492 10.8685C46.5709 11.0108 46.2522 11.082 45.8931 11.082H44.4613V7.68458ZM45.8639 10.6598C46.139 10.6598 46.38 10.6064 46.5871 10.4996C46.7974 10.3928 46.9592 10.244 47.0725 10.0531C47.1857 9.85895 47.2423 9.63569 47.2423 9.3833C47.2423 9.13092 47.1857 8.90928 47.0725 8.71837C46.9592 8.52423 46.7974 8.37377 46.5871 8.267C46.38 8.16022 46.139 8.10683 45.8639 8.10683H44.9466V10.6598H45.8639ZM50.728 9.81041C50.728 9.846 50.7248 9.89292 50.7183 9.95116H48.6313C48.6604 10.1777 48.7591 10.3605 48.9273 10.4996C49.0988 10.6355 49.3108 10.7035 49.5632 10.7035C49.8705 10.7035 50.1181 10.5999 50.3057 10.3928L50.563 10.6938C50.4465 10.8296 50.3009 10.9332 50.1262 11.0044C49.9547 11.0756 49.7621 11.1112 49.5486 11.1112C49.2768 11.1112 49.0357 11.0561 48.8254 10.9461C48.6151 10.8329 48.4517 10.676 48.3352 10.4753C48.222 10.2747 48.1653 10.0482 48.1653 9.79585C48.1653 9.5467 48.2203 9.32183 48.3304 9.12121C48.4436 8.9206 48.5973 8.76529 48.7914 8.65528C48.9888 8.54203 49.2105 8.4854 49.4564 8.4854C49.7023 8.4854 49.9207 8.54203 50.1116 8.65528C50.3057 8.76529 50.4562 8.9206 50.563 9.12121C50.673 9.32183 50.728 9.55156 50.728 9.81041ZM49.4564 8.87854C49.2331 8.87854 49.0454 8.94649 48.8934 9.08239C48.7445 9.21828 48.6572 9.39625 48.6313 9.61627H50.2815C50.2556 9.39948 50.1666 9.22314 50.0145 9.08724C49.8657 8.94811 49.6796 8.87854 49.4564 8.87854ZM52.7485 8.4854C53.0753 8.4854 53.3342 8.58086 53.5251 8.77176C53.7192 8.95943 53.8163 9.23608 53.8163 9.60171V11.082H53.3504V9.6551C53.3504 9.40595 53.2905 9.21828 53.1708 9.09209C53.0511 8.9659 52.8796 8.90281 52.6563 8.90281C52.4039 8.90281 52.2049 8.97723 52.0593 9.12607C51.9137 9.27167 51.8409 9.48199 51.8409 9.75702V11.082H51.375V8.50967H51.8215V8.89795C51.9153 8.76529 52.0415 8.66337 52.2001 8.59218C52.3619 8.521 52.5447 8.4854 52.7485 8.4854ZM54.6786 8.50967H55.1445V11.082H54.6786V8.50967ZM54.9116 8.01461C54.821 8.01461 54.7449 7.98549 54.6834 7.92725C54.6252 7.86901 54.5961 7.79782 54.5961 7.7137C54.5961 7.62957 54.6252 7.55838 54.6834 7.50014C54.7449 7.43866 54.821 7.40793 54.9116 7.40793C55.0022 7.40793 55.0766 7.43705 55.1348 7.49529C55.1963 7.55029 55.227 7.61986 55.227 7.70399C55.227 7.79135 55.1963 7.86577 55.1348 7.92725C55.0766 7.98549 55.0022 8.01461 54.9116 8.01461ZM57.9416 10.6986V11.082H55.7866V10.7811L57.3058 8.8931H55.8158V8.50967H57.9028V8.81544L56.3836 10.6986H57.9416ZM60.8521 9.81041C60.8521 9.846 60.8489 9.89292 60.8424 9.95116H58.7554C58.7845 10.1777 58.8832 10.3605 59.0515 10.4996C59.2229 10.6355 59.4349 10.7035 59.6873 10.7035C59.9947 10.7035 60.2422 10.5999 60.4299 10.3928L60.6871 10.6938C60.5706 10.8296 60.425 10.9332 60.2503 11.0044C60.0788 11.0756 59.8863 11.1112 59.6727 11.1112C59.4009 11.1112 59.1599 11.0561 58.9495 10.9461C58.7392 10.8329 58.5758 10.676 58.4593 10.4753C58.3461 10.2747 58.2895 10.0482 58.2895 9.79585C58.2895 9.5467 58.3445 9.32183 58.4545 9.12121C58.5677 8.9206 58.7214 8.76529 58.9156 8.65528C59.1129 8.54203 59.3346 8.4854 59.5805 8.4854C59.8264 8.4854 60.0448 8.54203 60.2357 8.65528C60.4299 8.76529 60.5803 8.9206 60.6871 9.12121C60.7971 9.32183 60.8521 9.55156 60.8521 9.81041ZM59.5805 8.87854C59.3572 8.87854 59.1696 8.94649 59.0175 9.08239C58.8686 9.21828 58.7813 9.39625 58.7554 9.61627H60.4056C60.3797 9.39948 60.2907 9.22314 60.1386 9.08724C59.9898 8.94811 59.8038 8.87854 59.5805 8.87854ZM62.8726 8.4854C63.1994 8.4854 63.4583 8.58086 63.6492 8.77176C63.8433 8.95943 63.9404 9.23608 63.9404 9.60171V11.082H63.4745V9.6551C63.4745 9.40595 63.4146 9.21828 63.2949 9.09209C63.1752 8.9659 63.0037 8.90281 62.7804 8.90281C62.528 8.90281 62.3291 8.97723 62.1834 9.12607C62.0378 9.27167 61.965 9.48199 61.965 9.75702V11.082H61.4991V8.50967H61.9456V8.89795C62.0395 8.76529 62.1657 8.66337 62.3242 8.59218C62.486 8.521 62.6688 8.4854 62.8726 8.4854ZM44.4613 13.6846H45.8931C46.2522 13.6846 46.5709 13.7558 46.8492 13.8981C47.1275 14.0405 47.3426 14.2411 47.4947 14.5C47.65 14.7556 47.7277 15.05 47.7277 15.3833C47.7277 15.7166 47.65 16.0126 47.4947 16.2715C47.3426 16.5271 47.1275 16.7261 46.8492 16.8685C46.5709 17.0108 46.2522 17.082 45.8931 17.082H44.4613V13.6846ZM45.8639 16.6598C46.139 16.6598 46.38 16.6064 46.5871 16.4996C46.7974 16.3928 46.9592 16.244 47.0725 16.0531C47.1857 15.8589 47.2423 15.6357 47.2423 15.3833C47.2423 15.1309 47.1857 14.9093 47.0725 14.7184C46.9592 14.5242 46.7974 14.3738 46.5871 14.267C46.38 14.1602 46.139 14.1068 45.8639 14.1068H44.9466V16.6598H45.8639ZM50.728 15.8104C50.728 15.846 50.7248 15.8929 50.7183 15.9512H48.6313C48.6604 16.1777 48.7591 16.3605 48.9273 16.4996C49.0988 16.6355 49.3108 16.7035 49.5632 16.7035C49.8705 16.7035 50.1181 16.5999 50.3057 16.3928L50.563 16.6938C50.4465 16.8296 50.3009 16.9332 50.1262 17.0044C49.9547 17.0756 49.7621 17.1112 49.5486 17.1112C49.2768 17.1112 49.0357 17.0561 48.8254 16.9461C48.6151 16.8329 48.4517 16.676 48.3352 16.4753C48.222 16.2747 48.1653 16.0482 48.1653 15.7959C48.1653 15.5467 48.2203 15.3218 48.3304 15.1212C48.4436 14.9206 48.5973 14.7653 48.7914 14.6553C48.9888 14.542 49.2105 14.4854 49.4564 14.4854C49.7023 14.4854 49.9207 14.542 50.1116 14.6553C50.3057 14.7653 50.4562 14.9206 50.563 15.1212C50.673 15.3218 50.728 15.5516 50.728 15.8104ZM49.4564 14.8785C49.2331 14.8785 49.0454 14.9465 48.8934 15.0824C48.7445 15.2183 48.6572 15.3962 48.6313 15.6163H50.2815C50.2556 15.3995 50.1666 15.2231 50.0145 15.0872C49.8657 14.9481 49.6796 14.8785 49.4564 14.8785ZM52.1127 17.1112C51.9024 17.1112 51.7002 17.0836 51.506 17.0286C51.3119 16.9704 51.1598 16.8976 51.0498 16.8102L51.2439 16.4414C51.3572 16.5223 51.4947 16.587 51.6565 16.6355C51.8183 16.684 51.9817 16.7083 52.1467 16.7083C52.5544 16.7083 52.7582 16.5918 52.7582 16.3589C52.7582 16.2812 52.7307 16.2197 52.6757 16.1744C52.6207 16.1291 52.5512 16.0968 52.467 16.0774C52.3861 16.0547 52.2697 16.0304 52.1176 16.0046C51.9105 15.9722 51.7406 15.935 51.608 15.8929C51.4785 15.8509 51.3669 15.7797 51.2731 15.6794C51.1792 15.5791 51.1323 15.4383 51.1323 15.2571C51.1323 15.0241 51.2294 14.8381 51.4235 14.699C51.6177 14.5566 51.8781 14.4854 52.2049 14.4854C52.3764 14.4854 52.5479 14.5064 52.7194 14.5485C52.8909 14.5906 53.0317 14.6472 53.1417 14.7184L52.9427 15.0872C52.7324 14.9513 52.4848 14.8834 52.2001 14.8834C52.0027 14.8834 51.8522 14.9157 51.7487 14.9805C51.6452 15.0452 51.5934 15.1309 51.5934 15.2377C51.5934 15.3218 51.6225 15.3882 51.6808 15.4367C51.739 15.4852 51.8102 15.5208 51.8943 15.5435C51.9817 15.5661 52.103 15.592 52.2583 15.6211C52.4654 15.6567 52.632 15.6955 52.7582 15.7376C52.8877 15.7764 52.9977 15.8444 53.0883 15.9415C53.1789 16.0385 53.2242 16.1744 53.2242 16.3492C53.2242 16.5821 53.1239 16.7682 52.9233 16.9073C52.7259 17.0432 52.4557 17.1112 52.1127 17.1112ZM53.8065 14.5097H54.2724V17.082H53.8065V14.5097ZM54.0395 14.0146C53.9489 14.0146 53.8728 13.9855 53.8113 13.9273C53.7531 13.869 53.724 13.7978 53.724 13.7137C53.724 13.6296 53.7531 13.5584 53.8113 13.5001C53.8728 13.4387 53.9489 13.4079 54.0395 13.4079C54.13 13.4079 54.2045 13.437 54.2627 13.4953C54.3242 13.5503 54.3549 13.6199 54.3549 13.704C54.3549 13.7914 54.3242 13.8658 54.2627 13.9273C54.2045 13.9855 54.13 14.0146 54.0395 14.0146ZM57.6228 14.5097V16.7326C57.6228 17.1823 57.5112 17.514 57.2879 17.7275C57.0646 17.9443 56.7314 18.0527 56.2881 18.0527C56.0454 18.0527 55.814 18.0188 55.594 17.9508C55.374 17.8861 55.196 17.7923 55.0601 17.6693L55.2834 17.3101C55.4031 17.4137 55.5503 17.4946 55.7251 17.5528C55.903 17.6143 56.0858 17.645 56.2735 17.645C56.5744 17.645 56.7961 17.5739 56.9384 17.4315C57.084 17.2891 57.1568 17.0723 57.1568 16.7811V16.5773C57.0468 16.7099 56.9109 16.8102 56.7491 16.8782C56.5906 16.9429 56.4175 16.9753 56.2298 16.9753C55.9839 16.9753 55.7607 16.9235 55.56 16.8199C55.3627 16.7132 55.2074 16.5659 55.0941 16.3783C54.9809 16.1874 54.9242 15.9706 54.9242 15.7279C54.9242 15.4852 54.9809 15.2701 55.0941 15.0824C55.2074 14.8915 55.3627 14.7443 55.56 14.6407C55.7607 14.5372 55.9839 14.4854 56.2298 14.4854C56.424 14.4854 56.6035 14.521 56.7686 14.5922C56.9368 14.6634 57.0743 14.7685 57.1811 14.9077V14.5097H57.6228ZM56.2832 16.5676C56.4515 16.5676 56.6019 16.532 56.7346 16.4608C56.8705 16.3896 56.9756 16.2909 57.0501 16.1647C57.1277 16.0353 57.1666 15.8897 57.1666 15.7279C57.1666 15.4788 57.084 15.2781 56.919 15.1261C56.754 14.9708 56.5421 14.8931 56.2832 14.8931C56.0211 14.8931 55.8076 14.9708 55.6425 15.1261C55.4775 15.2781 55.395 15.4788 55.395 15.7279C55.395 15.8897 55.4322 16.0353 55.5067 16.1647C55.5843 16.2909 55.6895 16.3896 55.8221 16.4608C55.958 16.532 56.1117 16.5676 56.2832 16.5676ZM59.8866 14.4854C60.2134 14.4854 60.4723 14.5809 60.6632 14.7718C60.8573 14.9594 60.9544 15.2361 60.9544 15.6017V17.082H60.4884V15.6551C60.4884 15.406 60.4286 15.2183 60.3089 15.0921C60.1891 14.9659 60.0176 14.9028 59.7944 14.9028C59.542 14.9028 59.343 14.9772 59.1974 15.1261C59.0518 15.2717 58.979 15.482 58.979 15.757V17.082H58.5131V14.5097H58.9596V14.898C59.0534 14.7653 59.1796 14.6634 59.3382 14.5922C59.4999 14.521 59.6828 14.4854 59.8866 14.4854ZM64.1557 15.8104C64.1557 15.846 64.1525 15.8929 64.146 15.9512H62.059C62.0881 16.1777 62.1868 16.3605 62.3551 16.4996C62.5266 16.6355 62.7385 16.7035 62.9909 16.7035C63.2983 16.7035 63.5458 16.5999 63.7335 16.3928L63.9907 16.6938C63.8742 16.8296 63.7286 16.9332 63.5539 17.0044C63.3824 17.0756 63.1899 17.1112 62.9763 17.1112C62.7045 17.1112 62.4635 17.0561 62.2531 16.9461C62.0428 16.8329 61.8794 16.676 61.7629 16.4753C61.6497 16.2747 61.5931 16.0482 61.5931 15.7959C61.5931 15.5467 61.6481 15.3218 61.7581 15.1212C61.8713 14.9206 62.025 14.7653 62.2192 14.6553C62.4165 14.542 62.6382 14.4854 62.8841 14.4854C63.13 14.4854 63.3484 14.542 63.5393 14.6553C63.7335 14.7653 63.8839 14.9206 63.9907 15.1212C64.1007 15.3218 64.1557 15.5516 64.1557 15.8104ZM62.8841 14.8785C62.6608 14.8785 62.4732 14.9465 62.3211 15.0824C62.1723 15.2183 62.0849 15.3962 62.059 15.6163H63.7092C63.6833 15.3995 63.5943 15.2231 63.4423 15.0872C63.2934 14.9481 63.1074 14.8785 62.8841 14.8785ZM65.2492 14.9416C65.3301 14.7928 65.4498 14.6795 65.6084 14.6019C65.7669 14.5242 65.9595 14.4854 66.186 14.4854V14.9368C66.1601 14.9335 66.1245 14.9319 66.0792 14.9319C65.8268 14.9319 65.6278 15.008 65.4822 15.16C65.3398 15.3089 65.2686 15.5224 65.2686 15.8007V17.082H64.8027V14.5097H65.2492V14.9416ZM45.7863 19.6846C46.2263 19.6846 46.5726 19.7897 46.8249 20.0001C47.0773 20.2104 47.2035 20.5 47.2035 20.8688C47.2035 21.2377 47.0773 21.5273 46.8249 21.7376C46.5726 21.9479 46.2263 22.0531 45.7863 22.0531H44.9466V23.082H44.4613V19.6846H45.7863ZM45.7717 21.6308C46.0791 21.6308 46.3137 21.5661 46.4755 21.4367C46.6373 21.304 46.7182 21.1147 46.7182 20.8688C46.7182 20.6229 46.6373 20.4353 46.4755 20.3058C46.3137 20.1732 46.0791 20.1068 45.7717 20.1068H44.9466V21.6308H45.7717ZM48.2525 20.9416C48.3334 20.7928 48.4531 20.6795 48.6116 20.6019C48.7702 20.5242 48.9627 20.4854 49.1892 20.4854V20.9368C49.1633 20.9335 49.1277 20.9319 49.0824 20.9319C48.83 20.9319 48.631 21.008 48.4854 21.16C48.3431 21.3089 48.2719 21.5224 48.2719 21.8007V23.082H47.806V20.5097H48.2525V20.9416ZM50.8415 23.1112C50.5859 23.1112 50.3562 23.0545 50.1523 22.9413C49.9485 22.828 49.7883 22.6727 49.6718 22.4753C49.5586 22.2747 49.502 22.0482 49.502 21.7959C49.502 21.5435 49.5586 21.3186 49.6718 21.1212C49.7883 20.9206 49.9485 20.7653 50.1523 20.6553C50.3562 20.542 50.5859 20.4854 50.8415 20.4854C51.0971 20.4854 51.3253 20.542 51.5259 20.6553C51.7297 20.7653 51.8883 20.9206 52.0015 21.1212C52.118 21.3186 52.1762 21.5435 52.1762 21.7959C52.1762 22.0482 52.118 22.2747 52.0015 22.4753C51.8883 22.6727 51.7297 22.828 51.5259 22.9413C51.3253 23.0545 51.0971 23.1112 50.8415 23.1112ZM50.8415 22.7035C51.0065 22.7035 51.1538 22.6662 51.2832 22.5918C51.4159 22.5142 51.5194 22.4074 51.5938 22.2715C51.6682 22.1324 51.7054 21.9738 51.7054 21.7959C51.7054 21.6179 51.6682 21.461 51.5938 21.3251C51.5194 21.1859 51.4159 21.0791 51.2832 21.0047C51.1538 20.9303 51.0065 20.8931 50.8415 20.8931C50.6765 20.8931 50.5277 20.9303 50.395 21.0047C50.2656 21.0791 50.162 21.1859 50.0844 21.3251C50.01 21.461 49.9727 21.6179 49.9727 21.7959C49.9727 21.9738 50.01 22.1324 50.0844 22.2715C50.162 22.4074 50.2656 22.5142 50.395 22.5918C50.5277 22.6662 50.6765 22.7035 50.8415 22.7035ZM52.4906 24.0527C52.3773 24.0527 52.2722 24.0398 52.1751 24.0139C52.078 23.988 51.9971 23.9492 51.9324 23.8974L52.0829 23.5383C52.1799 23.6192 52.3061 23.6596 52.4615 23.6596C52.5844 23.6596 52.6782 23.6208 52.743 23.5431C52.8109 23.4687 52.8449 23.3571 52.8449 23.2082V20.5097H53.3108V23.1985C53.3108 23.4638 53.2396 23.6725 53.0973 23.8246C52.9549 23.9767 52.7527 24.0527 52.4906 24.0527ZM53.0778 20.0146C52.9872 20.0146 52.9112 19.9855 52.8497 19.9273C52.7915 19.869 52.7624 19.7978 52.7624 19.7137C52.7624 19.6296 52.7915 19.5584 52.8497 19.5001C52.9112 19.4387 52.9872 19.4079 53.0778 19.4079C53.1684 19.4079 53.2429 19.437 53.3011 19.4953C53.3626 19.5503 53.3933 19.6199 53.3933 19.704C53.3933 19.7914 53.3626 19.8658 53.3011 19.9273C53.2429 19.9855 53.1684 20.0146 53.0778 20.0146ZM56.5247 21.8104C56.5247 21.846 56.5215 21.8929 56.515 21.9512H54.428C54.4571 22.1777 54.5558 22.3605 54.7241 22.4996C54.8956 22.6355 55.1075 22.7035 55.3599 22.7035C55.6673 22.7035 55.9148 22.5999 56.1025 22.3928L56.3597 22.6938C56.2432 22.8296 56.0976 22.9332 55.9229 23.0044C55.7514 23.0756 55.5589 23.1112 55.3453 23.1112C55.0735 23.1112 54.8325 23.0561 54.6221 22.9461C54.4118 22.8329 54.2484 22.676 54.1319 22.4753C54.0187 22.2747 53.9621 22.0482 53.9621 21.7959C53.9621 21.5467 54.0171 21.3218 54.1271 21.1212C54.2403 20.9206 54.394 20.7653 54.5882 20.6553C54.7855 20.542 55.0072 20.4854 55.2531 20.4854C55.499 20.4854 55.7174 20.542 55.9083 20.6553C56.1025 20.7653 56.2529 20.9206 56.3597 21.1212C56.4697 21.3218 56.5247 21.5516 56.5247 21.8104ZM55.2531 20.8785C55.0298 20.8785 54.8422 20.9465 54.6901 21.0824C54.5412 21.2183 54.4539 21.3962 54.428 21.6163H56.0782C56.0523 21.3995 55.9633 21.2231 55.8112 21.0872C55.6624 20.9481 55.4764 20.8785 55.2531 20.8785ZM58.2929 23.1112C58.0308 23.1112 57.7962 23.0545 57.5891 22.9413C57.3853 22.828 57.2251 22.6727 57.1086 22.4753C56.9921 22.2747 56.9339 22.0482 56.9339 21.7959C56.9339 21.5435 56.9921 21.3186 57.1086 21.1212C57.2251 20.9206 57.3853 20.7653 57.5891 20.6553C57.7962 20.542 58.0308 20.4854 58.2929 20.4854C58.5258 20.4854 58.7329 20.5323 58.9141 20.6262C59.0985 20.72 59.2409 20.8559 59.3412 21.0339L58.9869 21.262C58.906 21.139 58.8057 21.0468 58.686 20.9853C58.5663 20.9238 58.4336 20.8931 58.288 20.8931C58.1198 20.8931 57.9677 20.9303 57.8318 21.0047C57.6991 21.0791 57.594 21.1859 57.5163 21.3251C57.4419 21.461 57.4047 21.6179 57.4047 21.7959C57.4047 21.977 57.4419 22.1372 57.5163 22.2763C57.594 22.4122 57.6991 22.5174 57.8318 22.5918C57.9677 22.6662 58.1198 22.7035 58.288 22.7035C58.4336 22.7035 58.5663 22.6727 58.686 22.6112C58.8057 22.5498 58.906 22.4575 58.9869 22.3346L59.3412 22.5579C59.2409 22.7358 59.0985 22.8733 58.9141 22.9704C58.7329 23.0642 58.5258 23.1112 58.2929 23.1112ZM61.424 22.9316C61.356 22.9898 61.2719 23.0351 61.1716 23.0675C61.0713 23.0966 60.9678 23.1112 60.861 23.1112C60.6021 23.1112 60.4015 23.0416 60.2591 22.9025C60.1168 22.7633 60.0456 22.5643 60.0456 22.3055V20.8931H59.6088V20.5097H60.0456V19.9467H60.5115V20.5097H61.2493V20.8931H60.5115V22.2861C60.5115 22.4252 60.5455 22.532 60.6135 22.6064C60.6846 22.6808 60.7849 22.718 60.9144 22.718C61.0567 22.718 61.1781 22.6776 61.2784 22.5967L61.424 22.9316Z" fill="#475CA7"/>
</svg>
