<svg width="116" height="44" viewBox="0 0 116 44" fill="none" xmlns="http://www.w3.org/2000/svg">
<path d="M66.6923 25.7043C66.6923 30.3951 65.7625 34.0505 63.9031 36.6706C62.086 39.2484 59.5082 41.0444 56.1697 42.0587C52.8312 43.0729 48.9011 43.58 44.3793 43.58H34.554V7.89194H44.3793C48.9011 7.89194 52.8312 8.56809 56.1697 9.92039C59.5082 11.2304 62.086 13.1955 63.9031 15.8156C65.7625 18.4357 66.6923 21.7319 66.6923 25.7043ZM40.9563 38.2553H46.2176C49.0067 38.2553 51.4155 37.9384 53.4439 37.3045C55.4724 36.6283 57.036 35.3817 58.1347 33.5645C59.2335 31.7474 59.7828 29.1062 59.7828 25.6409C59.7828 21.5417 58.5573 18.4991 56.1063 16.5129C53.6975 14.4844 50.4013 13.4702 46.2176 13.4702H40.9563V38.2553Z" fill="#475CA7"/>
<path d="M0 17.8757C4.10082e-07 13.1849 0.929708 9.52949 2.78912 6.90941C4.60628 4.33159 7.1841 2.53556 10.5226 1.52134C13.8611 0.507112 17.7912 -3.95304e-07 22.313 0L32.1383 8.58958e-07L32.1383 35.6881H22.313C17.7912 35.6881 13.8611 35.0119 10.5226 33.6596C7.1841 32.3496 4.60628 30.3845 2.78912 27.7644C0.929707 25.1443 -3.47277e-07 21.8481 0 17.8757ZM25.736 5.32468L20.4747 5.32468C17.6856 5.32468 15.2768 5.64163 13.2483 6.27552C11.2199 6.95167 9.65627 8.19832 8.55753 10.0155C7.45879 11.8326 6.90941 14.4738 6.90941 17.9391C6.90941 22.0383 8.13493 25.0809 10.586 27.0671C12.9948 29.0956 16.291 30.1098 20.4747 30.1098H25.736L25.736 5.32468Z" fill="#475CA7"/>
<path d="M75.9492 4.81006H73.9891V4.09953H78.7178V4.81006H76.7577V9.81641H75.9492V4.81006ZM81.8042 5.44708C82.3541 5.44708 82.7897 5.6077 83.1109 5.92893C83.4376 6.24472 83.601 6.71024 83.601 7.32548V9.81641H82.8169V7.41532C82.8169 6.99608 82.7162 6.68029 82.5148 6.46795C82.3133 6.25561 82.0247 6.14944 81.6491 6.14944C81.2244 6.14944 80.8895 6.27467 80.6445 6.52512C80.3995 6.77013 80.277 7.12403 80.277 7.58683V9.81641H79.493V3.75652H80.277V6.10044C80.4403 5.89354 80.6527 5.73293 80.914 5.61859C81.1808 5.50425 81.4776 5.44708 81.8042 5.44708ZM88.9878 7.67666C88.9878 7.73655 88.9824 7.8155 88.9715 7.9135H85.4597C85.5087 8.29463 85.6748 8.60225 85.9579 8.83637C86.2465 9.06505 86.6031 9.17938 87.0278 9.17938C87.545 9.17938 87.9615 9.00515 88.2773 8.6567L88.7102 9.16305C88.5142 9.39172 88.2691 9.56595 87.9751 9.68573C87.6866 9.80552 87.3626 9.86541 87.0033 9.86541C86.5459 9.86541 86.1403 9.77285 85.7864 9.58773C85.4325 9.39717 85.1575 9.1331 84.9615 8.79554C84.771 8.45797 84.6757 8.07684 84.6757 7.65216C84.6757 7.23292 84.7682 6.85452 84.9534 6.51695C85.1439 6.17939 85.4025 5.91804 85.7292 5.73293C86.0613 5.54236 86.4343 5.44708 86.8481 5.44708C87.2619 5.44708 87.6294 5.54236 87.9506 5.73293C88.2773 5.91804 88.5305 6.17939 88.7102 6.51695C88.8953 6.85452 88.9878 7.24109 88.9878 7.67666ZM86.8481 6.10861C86.4724 6.10861 86.1566 6.22294 85.9007 6.45162C85.6503 6.68029 85.5033 6.97975 85.4597 7.34998H88.2365C88.1929 6.98519 88.0432 6.68846 87.7873 6.45978C87.5368 6.22567 87.2238 6.10861 86.8481 6.10861ZM74.814 14.0995H77.2233C77.8276 14.0995 78.3639 14.2193 78.8322 14.4589C79.3004 14.6984 79.6625 15.036 79.9184 15.4716C80.1797 15.9017 80.3104 16.3972 80.3104 16.958C80.3104 17.5188 80.1797 18.017 79.9184 18.4525C79.6625 18.8827 79.3004 19.2175 78.8322 19.4571C78.3639 19.6966 77.8276 19.8164 77.2233 19.8164H74.814V14.0995ZM77.1743 19.1059C77.6371 19.1059 78.0427 19.016 78.3911 18.8364C78.745 18.6567 79.0173 18.4062 79.2078 18.085C79.3984 17.7583 79.4937 17.3827 79.4937 16.958C79.4937 16.5333 79.3984 16.1603 79.2078 15.8391C79.0173 15.5124 78.745 15.2592 78.3911 15.0796C78.0427 14.8999 77.6371 14.8101 77.1743 14.8101H75.6307V19.1059H77.1743ZM85.359 17.6767C85.359 17.7366 85.3535 17.8155 85.3426 17.9135H81.8308C81.8798 18.2946 82.0459 18.6023 82.329 18.8364C82.6176 19.065 82.9742 19.1794 83.3989 19.1794C83.9161 19.1794 84.3326 19.0052 84.6484 18.6567L85.0813 19.163C84.8853 19.3917 84.6403 19.566 84.3463 19.6857C84.0577 19.8055 83.7337 19.8654 83.3744 19.8654C82.917 19.8654 82.5114 19.7728 82.1575 19.5877C81.8036 19.3972 81.5287 19.1331 81.3327 18.7955C81.1421 18.458 81.0468 18.0768 81.0468 17.6522C81.0468 17.2329 81.1394 16.8545 81.3245 16.517C81.515 16.1794 81.7737 15.918 82.1003 15.7329C82.4325 15.5424 82.8054 15.4471 83.2192 15.4471C83.633 15.4471 84.0005 15.5424 84.3218 15.7329C84.6484 15.918 84.9016 16.1794 85.0813 16.517C85.2664 16.8545 85.359 17.2411 85.359 17.6767ZM83.2192 16.1086C82.8435 16.1086 82.5278 16.2229 82.2719 16.4516C82.0214 16.6803 81.8744 16.9797 81.8308 17.35H84.6076C84.564 16.9852 84.4143 16.6885 84.1584 16.4598C83.908 16.2257 83.5949 16.1086 83.2192 16.1086ZM88.7589 15.4471C89.3088 15.4471 89.7444 15.6077 90.0656 15.9289C90.3923 16.2447 90.5556 16.7102 90.5556 17.3255V19.8164H89.7716V17.4153C89.7716 16.9961 89.6709 16.6803 89.4694 16.468C89.268 16.2556 88.9794 16.1494 88.6037 16.1494C88.1791 16.1494 87.8442 16.2747 87.5992 16.5251C87.3542 16.7701 87.2317 17.124 87.2317 17.5868V19.8164H86.4477V15.4879H87.199V16.1413C87.3569 15.918 87.5693 15.7465 87.836 15.6268C88.1083 15.507 88.4159 15.4471 88.7589 15.4471ZM92.0066 15.4879H92.7906V19.8164H92.0066V15.4879ZM92.3986 14.6549C92.2462 14.6549 92.1182 14.6059 92.0148 14.5079C91.9168 14.4099 91.8678 14.2901 91.8678 14.1485C91.8678 14.007 91.9168 13.8872 92.0148 13.7892C92.1182 13.6857 92.2462 13.634 92.3986 13.634C92.5511 13.634 92.6763 13.683 92.7743 13.781C92.8778 13.8736 92.9295 13.9906 92.9295 14.1322C92.9295 14.2792 92.8778 14.4044 92.7743 14.5079C92.6763 14.6059 92.5511 14.6549 92.3986 14.6549ZM97.4972 19.1712V19.8164H93.8711V19.3101L96.4274 16.1331H93.9201V15.4879H97.4319V16.0024L94.8756 19.1712H97.4972ZM102.395 17.6767C102.395 17.7366 102.389 17.8155 102.378 17.9135H98.8666C98.9156 18.2946 99.0817 18.6023 99.3648 18.8364C99.6534 19.065 100.01 19.1794 100.435 19.1794C100.952 19.1794 101.368 19.0052 101.684 18.6567L102.117 19.163C101.921 19.3917 101.676 19.566 101.382 19.6857C101.093 19.8055 100.77 19.8654 100.41 19.8654C99.9528 19.8654 99.5472 19.7728 99.1933 19.5877C98.8394 19.3972 98.5644 19.1331 98.3684 18.7955C98.1779 18.458 98.0826 18.0768 98.0826 17.6522C98.0826 17.2329 98.1751 16.8545 98.3603 16.517C98.5508 16.1794 98.8094 15.918 99.1361 15.7329C99.4682 15.5424 99.8412 15.4471 100.255 15.4471C100.669 15.4471 101.036 15.5424 101.358 15.7329C101.684 15.918 101.937 16.1794 102.117 16.517C102.302 16.8545 102.395 17.2411 102.395 17.6767ZM100.255 16.1086C99.8793 16.1086 99.5635 16.2229 99.3076 16.4516C99.0572 16.6803 98.9102 16.9797 98.8666 17.35H101.643C101.6 16.9852 101.45 16.6885 101.194 16.4598C100.944 16.2257 100.631 16.1086 100.255 16.1086ZM105.795 15.4471C106.345 15.4471 106.78 15.6077 107.101 15.9289C107.428 16.2447 107.591 16.7102 107.591 17.3255V19.8164H106.807V17.4153C106.807 16.9961 106.707 16.6803 106.505 16.468C106.304 16.2556 106.015 16.1494 105.64 16.1494C105.215 16.1494 104.88 16.2747 104.635 16.5251C104.39 16.7701 104.267 17.124 104.267 17.5868V19.8164H103.483V15.4879H104.235V16.1413C104.393 15.918 104.605 15.7465 104.872 15.6268C105.144 15.507 105.452 15.4471 105.795 15.4471ZM74.814 24.0995H77.2233C77.8276 24.0995 78.3639 24.2193 78.8322 24.4589C79.3004 24.6984 79.6625 25.036 79.9184 25.4716C80.1797 25.9017 80.3104 26.3972 80.3104 26.958C80.3104 27.5188 80.1797 28.017 79.9184 28.4525C79.6625 28.8827 79.3004 29.2175 78.8322 29.4571C78.3639 29.6966 77.8276 29.8164 77.2233 29.8164H74.814V24.0995ZM77.1743 29.1059C77.6371 29.1059 78.0427 29.016 78.3911 28.8364C78.745 28.6567 79.0173 28.4062 79.2078 28.085C79.3984 27.7583 79.4937 27.3827 79.4937 26.958C79.4937 26.5333 79.3984 26.1603 79.2078 25.8391C79.0173 25.5124 78.745 25.2592 78.3911 25.0796C78.0427 24.8999 77.6371 24.8101 77.1743 24.8101H75.6307V29.1059H77.1743ZM85.359 27.6767C85.359 27.7366 85.3535 27.8155 85.3426 27.9135H81.8308C81.8798 28.2946 82.0459 28.6023 82.329 28.8364C82.6176 29.065 82.9742 29.1794 83.3989 29.1794C83.9161 29.1794 84.3326 29.0052 84.6484 28.6567L85.0813 29.163C84.8853 29.3917 84.6403 29.566 84.3463 29.6857C84.0577 29.8055 83.7337 29.8654 83.3744 29.8654C82.917 29.8654 82.5114 29.7728 82.1575 29.5877C81.8036 29.3972 81.5287 29.1331 81.3327 28.7955C81.1421 28.458 81.0468 28.0768 81.0468 27.6522C81.0468 27.2329 81.1394 26.8545 81.3245 26.517C81.515 26.1794 81.7737 25.918 82.1003 25.7329C82.4325 25.5424 82.8054 25.4471 83.2192 25.4471C83.633 25.4471 84.0005 25.5424 84.3218 25.7329C84.6484 25.918 84.9016 26.1794 85.0813 26.517C85.2664 26.8545 85.359 27.2411 85.359 27.6767ZM83.2192 26.1086C82.8435 26.1086 82.5278 26.2229 82.2719 26.4516C82.0214 26.6803 81.8744 26.9797 81.8308 27.35H84.6076C84.564 26.9852 84.4143 26.6885 84.1584 26.4598C83.908 26.2257 83.5949 26.1086 83.2192 26.1086ZM87.689 29.8654C87.3351 29.8654 86.9948 29.8191 86.6682 29.7266C86.3415 29.6286 86.0856 29.5061 85.9005 29.3591L86.2272 28.7384C86.4177 28.8745 86.6491 28.9834 86.9213 29.065C87.1936 29.1467 87.4685 29.1876 87.7462 29.1876C88.4322 29.1876 88.7752 28.9915 88.7752 28.5995C88.7752 28.4689 88.729 28.3654 88.6364 28.2892C88.5438 28.213 88.4268 28.1585 88.2852 28.1258C88.1491 28.0877 87.9531 28.0469 87.6972 28.0033C87.3487 27.9489 87.0629 27.8863 86.8397 27.8155C86.6219 27.7447 86.434 27.6249 86.2762 27.4562C86.1183 27.2874 86.0393 27.0505 86.0393 26.7456C86.0393 26.3536 86.2026 26.0405 86.5293 25.8064C86.856 25.5669 87.2943 25.4471 87.8442 25.4471C88.1328 25.4471 88.4213 25.4825 88.7099 25.5533C88.9985 25.624 89.2353 25.7193 89.4204 25.8391L89.0856 26.4598C88.7317 26.2311 88.3152 26.1168 87.836 26.1168C87.5039 26.1168 87.2507 26.1712 87.0765 26.2801C86.9023 26.389 86.8152 26.5333 86.8152 26.713C86.8152 26.8545 86.8642 26.9661 86.9622 27.0478C87.0602 27.1295 87.18 27.1894 87.3215 27.2275C87.4685 27.2656 87.6727 27.3091 87.934 27.3582C88.2825 27.418 88.5629 27.4834 88.7752 27.5542C88.993 27.6195 89.1781 27.7338 89.3306 27.8972C89.483 28.0605 89.5593 28.2892 89.5593 28.5832C89.5593 28.9752 89.3905 29.2883 89.0529 29.5224C88.7208 29.7511 88.2662 29.8654 87.689 29.8654ZM90.5391 25.4879H91.3231V29.8164H90.5391V25.4879ZM90.9311 24.6549C90.7787 24.6549 90.6507 24.6059 90.5473 24.5079C90.4493 24.4099 90.4003 24.2901 90.4003 24.1485C90.4003 24.007 90.4493 23.8872 90.5473 23.7892C90.6507 23.6857 90.7787 23.634 90.9311 23.634C91.0836 23.634 91.2088 23.683 91.3068 23.781C91.4103 23.8736 91.462 23.9906 91.462 24.1322C91.462 24.2792 91.4103 24.4044 91.3068 24.5079C91.2088 24.6059 91.0836 24.6549 90.9311 24.6549ZM96.9608 25.4879V29.2284C96.9608 29.9852 96.7729 30.5433 96.3973 30.9026C96.0216 31.2674 95.4608 31.4498 94.7149 31.4498C94.3065 31.4498 93.9172 31.3926 93.547 31.2783C93.1767 31.1694 92.8773 31.0115 92.6486 30.8046L93.0243 30.2003C93.2257 30.3745 93.4735 30.5106 93.7675 30.6086C94.0669 30.712 94.3746 30.7638 94.6904 30.7638C95.1967 30.7638 95.5697 30.644 95.8092 30.4044C96.0542 30.1649 96.1767 29.8001 96.1767 29.3101V28.967C95.9916 29.1903 95.7629 29.3591 95.4907 29.4734C95.2239 29.5823 94.9326 29.6367 94.6169 29.6367C94.2031 29.6367 93.8274 29.5496 93.4898 29.3754C93.1577 29.1957 92.8963 28.948 92.7058 28.6322C92.5152 28.311 92.4199 27.9462 92.4199 27.5378C92.4199 27.1295 92.5152 26.7674 92.7058 26.4516C92.8963 26.1304 93.1577 25.8827 93.4898 25.7084C93.8274 25.5342 94.2031 25.4471 94.6169 25.4471C94.9435 25.4471 95.2457 25.507 95.5234 25.6268C95.8065 25.7465 96.0379 25.9235 96.2176 26.1576V25.4879H96.9608ZM94.7067 28.9507C94.9898 28.9507 95.243 28.8908 95.4662 28.771C95.6949 28.6513 95.8718 28.4852 95.9971 28.2729C96.1277 28.0551 96.1931 27.8101 96.1931 27.5378C96.1931 27.1186 96.0542 26.781 95.7766 26.5251C95.4989 26.2638 95.1423 26.1331 94.7067 26.1331C94.2657 26.1331 93.9063 26.2638 93.6287 26.5251C93.351 26.781 93.2121 27.1186 93.2121 27.5378C93.2121 27.8101 93.2747 28.0551 93.4 28.2729C93.5306 28.4852 93.7076 28.6513 93.9308 28.771C94.1595 28.8908 94.4181 28.9507 94.7067 28.9507ZM100.77 25.4471C101.32 25.4471 101.756 25.6077 102.077 25.9289C102.403 26.2447 102.567 26.7102 102.567 27.3255V29.8164H101.783V27.4153C101.783 26.9961 101.682 26.6803 101.481 26.468C101.279 26.2556 100.991 26.1494 100.615 26.1494C100.19 26.1494 99.8554 26.2747 99.6104 26.5251C99.3654 26.7701 99.2429 27.124 99.2429 27.5868V29.8164H98.4588V25.4879H99.2102V26.1413C99.3681 25.918 99.5804 25.7465 99.8472 25.6268C100.119 25.507 100.427 25.4471 100.77 25.4471ZM107.954 27.6767C107.954 27.7366 107.948 27.8155 107.937 27.9135H104.426C104.475 28.2946 104.641 28.6023 104.924 28.8364C105.212 29.065 105.569 29.1794 105.994 29.1794C106.511 29.1794 106.927 29.0052 107.243 28.6567L107.676 29.163C107.48 29.3917 107.235 29.566 106.941 29.6857C106.652 29.8055 106.328 29.8654 105.969 29.8654C105.512 29.8654 105.106 29.7728 104.752 29.5877C104.398 29.3972 104.123 29.1331 103.927 28.7955C103.737 28.458 103.642 28.0768 103.642 27.6522C103.642 27.2329 103.734 26.8545 103.919 26.517C104.11 26.1794 104.368 25.918 104.695 25.7329C105.027 25.5424 105.4 25.4471 105.814 25.4471C106.228 25.4471 106.595 25.5424 106.916 25.7329C107.243 25.918 107.496 26.1794 107.676 26.517C107.861 26.8545 107.954 27.2411 107.954 27.6767ZM105.814 26.1086C105.438 26.1086 105.122 26.2229 104.867 26.4516C104.616 26.6803 104.469 26.9797 104.426 27.35H107.202C107.159 26.9852 107.009 26.6885 106.753 26.4598C106.503 26.2257 106.19 26.1086 105.814 26.1086ZM109.794 26.2148C109.93 25.9643 110.131 25.7738 110.398 25.6431C110.665 25.5124 110.989 25.4471 111.37 25.4471V26.2066C111.326 26.2012 111.267 26.1984 111.19 26.1984C110.766 26.1984 110.431 26.3264 110.186 26.5823C109.946 26.8327 109.826 27.1921 109.826 27.6603V29.8164H109.042V25.4879H109.794V26.2148ZM77.0436 34.0995C77.7841 34.0995 78.3666 34.2765 78.7913 34.6304C79.216 34.9843 79.4283 35.4716 79.4283 36.0923C79.4283 36.713 79.216 37.2003 78.7913 37.5542C78.3666 37.9081 77.7841 38.085 77.0436 38.085H75.6307V39.8164H74.814V34.0995H77.0436ZM77.0191 37.3745C77.5363 37.3745 77.9311 37.2656 78.2033 37.0478C78.4755 36.8246 78.6117 36.5061 78.6117 36.0923C78.6117 35.6785 78.4755 35.3627 78.2033 35.1449C77.9311 34.9217 77.5363 34.8101 77.0191 34.8101H75.6307V37.3745H77.0191ZM81.1934 36.2148C81.3295 35.9643 81.531 35.7738 81.7978 35.6431C82.0646 35.5124 82.3885 35.4471 82.7697 35.4471V36.2066C82.7261 36.2012 82.6662 36.1984 82.59 36.1984C82.1653 36.1984 81.8305 36.3264 81.5854 36.5823C81.3459 36.8327 81.2261 37.1921 81.2261 37.6603V39.8164H80.4421V35.4879H81.1934V36.2148ZM85.55 39.8654C85.1199 39.8654 84.7333 39.7701 84.3903 39.5796C84.0473 39.389 83.7778 39.1277 83.5818 38.7955C83.3912 38.458 83.2959 38.0768 83.2959 37.6522C83.2959 37.2275 83.3912 36.8491 83.5818 36.517C83.7778 36.1794 84.0473 35.918 84.3903 35.7329C84.7333 35.5424 85.1199 35.4471 85.55 35.4471C85.9801 35.4471 86.364 35.5424 86.7015 35.7329C87.0445 35.918 87.3113 36.1794 87.5019 36.517C87.6979 36.8491 87.7959 37.2275 87.7959 37.6522C87.7959 38.0768 87.6979 38.458 87.5019 38.7955C87.3113 39.1277 87.0445 39.389 86.7015 39.5796C86.364 39.7701 85.9801 39.8654 85.55 39.8654ZM85.55 39.1794C85.8277 39.1794 86.0754 39.1168 86.2932 38.9915C86.5164 38.8609 86.6906 38.6812 86.8159 38.4525C86.9411 38.2184 87.0037 37.9516 87.0037 37.6522C87.0037 37.3527 86.9411 37.0886 86.8159 36.86C86.6906 36.6258 86.5164 36.4462 86.2932 36.3209C86.0754 36.1957 85.8277 36.1331 85.55 36.1331C85.2723 36.1331 85.0219 36.1957 84.7986 36.3209C84.5808 36.4462 84.4066 36.6258 84.2759 36.86C84.1507 37.0886 84.0881 37.3527 84.0881 37.6522C84.0881 37.9516 84.1507 38.2184 84.2759 38.4525C84.4066 38.6812 84.5808 38.8609 84.7986 38.9915C85.0219 39.1168 85.2723 39.1794 85.55 39.1794ZM88.3248 41.4498C88.1343 41.4498 87.9573 41.428 87.794 41.3845C87.6307 41.3409 87.4945 41.2756 87.3856 41.1885L87.6388 40.5841C87.8022 40.7202 88.0145 40.7883 88.2758 40.7883C88.4827 40.7883 88.6406 40.7229 88.7495 40.5923C88.8639 40.467 88.921 40.2792 88.921 40.0287V35.4879H89.7051V40.0124C89.7051 40.4589 89.5853 40.8101 89.3457 41.066C89.1062 41.3218 88.7659 41.4498 88.3248 41.4498ZM89.313 34.6549C89.1606 34.6549 89.0327 34.6059 88.9292 34.5079C88.8312 34.4099 88.7822 34.2901 88.7822 34.1485C88.7822 34.007 88.8312 33.8872 88.9292 33.7892C89.0327 33.6857 89.1606 33.634 89.313 33.634C89.4655 33.634 89.5907 33.683 89.6887 33.781C89.7922 33.8736 89.8439 33.9906 89.8439 34.1322C89.8439 34.2792 89.7922 34.4044 89.6887 34.5079C89.5907 34.6059 89.4655 34.6549 89.313 34.6549ZM95.1131 37.6767C95.1131 37.7366 95.1076 37.8155 95.0967 37.9135H91.5849C91.6339 38.2946 91.8 38.6023 92.0831 38.8364C92.3717 39.065 92.7283 39.1794 93.153 39.1794C93.6702 39.1794 94.0867 39.0052 94.4025 38.6567L94.8354 39.163C94.6394 39.3917 94.3944 39.566 94.1004 39.6857C93.8118 39.8055 93.4878 39.8654 93.1285 39.8654C92.6711 39.8654 92.2655 39.7728 91.9116 39.5877C91.5577 39.3972 91.2828 39.1331 91.0867 38.7955C90.8962 38.458 90.8009 38.0768 90.8009 37.6522C90.8009 37.2329 90.8935 36.8545 91.0786 36.517C91.2691 36.1794 91.5278 35.918 91.8544 35.7329C92.1866 35.5424 92.5595 35.4471 92.9733 35.4471C93.3871 35.4471 93.7546 35.5424 94.0759 35.7329C94.4025 35.918 94.6557 36.1794 94.8354 36.517C95.0205 36.8545 95.1131 37.2411 95.1131 37.6767ZM92.9733 36.1086C92.5976 36.1086 92.2818 36.2229 92.0259 36.4516C91.7755 36.6803 91.6285 36.9797 91.5849 37.35H94.3617C94.3181 36.9852 94.1684 36.6885 93.9125 36.4598C93.6621 36.2257 93.349 36.1086 92.9733 36.1086ZM98.0883 39.8654C97.6473 39.8654 97.2526 39.7701 96.9041 39.5796C96.5611 39.389 96.2916 39.1277 96.0956 38.7955C95.8996 38.458 95.8016 38.0768 95.8016 37.6522C95.8016 37.2275 95.8996 36.8491 96.0956 36.517C96.2916 36.1794 96.5611 35.918 96.9041 35.7329C97.2526 35.5424 97.6473 35.4471 98.0883 35.4471C98.4803 35.4471 98.8288 35.526 99.1337 35.6839C99.444 35.8418 99.6836 36.0705 99.8524 36.3699L99.2562 36.7538C99.1201 36.5469 98.9513 36.3917 98.7498 36.2883C98.5484 36.1848 98.3252 36.1331 98.0802 36.1331C97.797 36.1331 97.5411 36.1957 97.3125 36.3209C97.0892 36.4462 96.9123 36.6258 96.7816 36.86C96.6564 37.0886 96.5938 37.3527 96.5938 37.6522C96.5938 37.9571 96.6564 38.2266 96.7816 38.4607C96.9123 38.6894 97.0892 38.8663 97.3125 38.9915C97.5411 39.1168 97.797 39.1794 98.0802 39.1794C98.3252 39.1794 98.5484 39.1277 98.7498 39.0242C98.9513 38.9208 99.1201 38.7656 99.2562 38.5587L99.8524 38.9344C99.6836 39.2338 99.444 39.4652 99.1337 39.6286C98.8288 39.7865 98.4803 39.8654 98.0883 39.8654ZM103.357 39.5632C103.243 39.6612 103.101 39.7375 102.932 39.7919C102.764 39.8409 102.589 39.8654 102.41 39.8654C101.974 39.8654 101.637 39.7483 101.397 39.5142C101.157 39.2801 101.038 38.9453 101.038 38.5097V36.1331H100.303V35.4879H101.038V34.5405H101.822V35.4879H103.063V36.1331H101.822V38.477C101.822 38.7111 101.879 38.8908 101.993 39.016C102.113 39.1413 102.282 39.2039 102.5 39.2039C102.739 39.2039 102.943 39.1358 103.112 38.9997L103.357 39.5632Z" fill="#475CA7"/>
</svg>
