<svg width="461" height="159" viewBox="0 0 461 159" fill="none" xmlns="http://www.w3.org/2000/svg">
<path d="M14.5313 35.0859C10.3547 42.0834 8.26648 51.8461 8.26648 64.3739C8.26648 74.9831 10.3547 83.7864 14.5313 90.7839C18.6129 97.7814 24.4031 103.03 31.9018 106.528C39.4006 110.14 48.2283 111.946 58.3848 111.946H61.0516C61.414 111.946 61.7079 111.652 61.7079 111.289V97.7041C61.7079 97.3416 61.414 97.0478 61.0516 97.0478H54.2558C44.8586 97.0478 37.4547 94.3391 32.0442 88.9217C26.5388 83.6171 23.7861 75.4909 23.7861 64.5432C23.7861 55.2884 25.0201 48.2345 27.488 43.3814C29.956 38.5283 33.468 35.1988 38.0243 33.393C42.5805 31.7 47.991 30.8536 54.2558 30.8536L65.4172 30.8536C65.7796 30.8536 66.0734 31.1474 66.0734 31.5098L66.0734 44.62C66.0734 44.9825 66.3673 45.2763 66.7297 45.2763H79.7977C80.1602 45.2763 80.454 44.9825 80.454 44.62V17.2891C80.454 16.9266 80.1602 16.6328 79.7977 16.6328L58.3848 16.6328C48.2283 16.6328 39.4006 17.9872 31.9018 20.6959C24.4031 23.4046 18.6129 28.2013 14.5313 35.0859Z" fill="#475CA7"/>
<path d="M138.475 97.2841C138.475 84.7563 136.387 74.9936 132.21 67.9961C128.128 61.1114 122.338 56.3148 114.839 53.606C107.341 50.8973 98.5131 49.543 88.3565 49.543L68.4748 49.543C67.2667 49.543 66.2873 50.5223 66.2873 51.7305V142.668C66.2873 143.877 67.2667 144.856 68.4748 144.856H88.3565C98.5131 144.856 107.341 143.05 114.839 139.438C122.338 135.94 128.128 130.692 132.21 123.694C136.387 116.697 138.475 107.893 138.475 97.2841ZM80.6679 65.9512C80.6679 64.7431 81.6473 63.7637 82.8554 63.7637L92.4856 63.7637C98.7504 63.7637 104.161 64.6102 108.717 66.3031C113.273 68.109 116.785 71.4384 119.253 76.2915C121.721 81.1446 122.955 88.1986 122.955 97.4534C122.955 108.401 120.203 116.527 114.697 121.832C109.287 127.249 101.883 129.958 92.4856 129.958H82.8554C81.6473 129.958 80.6679 128.979 80.6679 127.77L80.6679 65.9512Z" fill="#475CA7"/>
<path d="M172.675 21.2497H163.438V14.5047H190.376V21.2497H181.182V44.5781H172.675V21.2497ZM208.324 20.906C211.216 20.906 213.536 21.7653 215.283 23.4838C217.059 25.2022 217.947 27.7943 217.947 31.2599V44.5781H209.784V32.5917C209.784 29.4125 208.51 27.8229 205.961 27.8229C204.557 27.8229 203.426 28.2812 202.567 29.1977C201.736 30.1142 201.321 31.489 201.321 33.3221V44.5781H193.158V12.7003H201.321V23.4408C202.209 22.6102 203.254 21.9801 204.457 21.5505C205.66 21.1209 206.949 20.906 208.324 20.906ZM247.209 32.9784C247.209 33.0357 247.166 33.7087 247.08 34.9976H230.153C230.496 36.2005 231.155 37.1314 232.129 37.7901C233.131 38.4202 234.377 38.7353 235.867 38.7353C236.984 38.7353 237.943 38.5778 238.745 38.2627C239.576 37.9476 240.406 37.4321 241.237 36.7161L245.533 41.1841C243.27 43.7046 239.962 44.9648 235.609 44.9648C232.888 44.9648 230.496 44.4492 228.434 43.4181C226.372 42.3871 224.768 40.955 223.622 39.1219C222.505 37.2889 221.947 35.2124 221.947 32.8924C221.947 30.6011 222.491 28.5533 223.579 26.7489C224.696 24.9158 226.229 23.4838 228.176 22.4527C230.124 21.4216 232.315 20.906 234.75 20.906C237.07 20.906 239.175 21.3929 241.065 22.3667C242.955 23.3119 244.445 24.701 245.533 26.5341C246.65 28.3385 247.209 30.4866 247.209 32.9784ZM234.793 26.7059C233.532 26.7059 232.473 27.0639 231.613 27.78C230.783 28.496 230.253 29.4698 230.024 30.7014H239.561C239.332 29.4698 238.788 28.496 237.929 27.78C237.098 27.0639 236.053 26.7059 234.793 26.7059ZM263.861 14.5047H278.082C281.376 14.5047 284.297 15.1205 286.846 16.3521C289.395 17.5836 291.371 19.3308 292.775 21.5934C294.178 23.8561 294.88 26.5054 294.88 29.5414C294.88 32.5774 294.178 35.2267 292.775 37.4894C291.371 39.7521 289.395 41.4992 286.846 42.7308C284.297 43.9623 281.376 44.5781 278.082 44.5781H263.861V14.5047ZM277.738 37.7901C280.316 37.7901 282.378 37.0598 283.925 35.5991C285.5 34.1383 286.288 32.1191 286.288 29.5414C286.288 26.9637 285.5 24.9445 283.925 23.4838C282.378 22.0231 280.316 21.2927 277.738 21.2927H272.368V37.7901H277.738ZM322.77 32.9784C322.77 33.0357 322.727 33.7087 322.641 34.9976H305.714C306.058 36.2005 306.716 37.1314 307.69 37.7901C308.693 38.4202 309.938 38.7353 311.428 38.7353C312.545 38.7353 313.504 38.5778 314.306 38.2627C315.137 37.9476 315.967 37.4321 316.798 36.7161L321.094 41.1841C318.832 43.7046 315.524 44.9648 311.17 44.9648C308.449 44.9648 306.058 44.4492 303.995 43.4181C301.933 42.3871 300.329 40.955 299.184 39.1219C298.067 37.2889 297.508 35.2124 297.508 32.8924C297.508 30.6011 298.052 28.5533 299.141 26.7489C300.258 24.9158 301.79 23.4838 303.738 22.4527C305.685 21.4216 307.876 20.906 310.311 20.906C312.631 20.906 314.736 21.3929 316.626 22.3667C318.517 23.3119 320.006 24.701 321.094 26.5341C322.211 28.3385 322.77 30.4866 322.77 32.9784ZM310.354 26.7059C309.094 26.7059 308.034 27.0639 307.175 27.78C306.344 28.496 305.814 29.4698 305.585 30.7014H315.123C314.893 29.4698 314.349 28.496 313.49 27.78C312.659 27.0639 311.614 26.7059 310.354 26.7059ZM341.699 20.906C344.592 20.906 346.912 21.7653 348.659 23.4838C350.435 25.2022 351.322 27.7943 351.322 31.2599V44.5781H343.16V32.5917C343.16 29.4125 341.885 27.8229 339.336 27.8229C337.933 27.8229 336.801 28.2812 335.942 29.1977C335.111 30.1142 334.696 31.489 334.696 33.3221V44.5781H326.533V21.2927H334.309V23.8275C335.226 22.8823 336.314 22.1663 337.575 21.6794C338.835 21.1638 340.21 20.906 341.699 20.906ZM356.447 21.2927H364.61V44.5781H356.447V21.2927ZM360.529 18.715C359.039 18.715 357.836 18.2997 356.92 17.4691C356.003 16.6385 355.545 15.6074 355.545 14.3758C355.545 13.1442 356.003 12.1131 356.92 11.2825C357.836 10.4519 359.039 10.0366 360.529 10.0366C362.018 10.0366 363.221 10.4376 364.138 11.2396C365.054 12.0129 365.512 13.0153 365.512 14.2469C365.512 15.5358 365.054 16.6098 364.138 17.4691C363.221 18.2997 362.018 18.715 360.529 18.715ZM390.193 38.4775V44.5781H368.712V39.7664L379.495 27.3503H369.013V21.2927H389.763V26.0615L378.98 38.4775H390.193ZM417.337 32.9784C417.337 33.0357 417.294 33.7087 417.208 34.9976H400.281C400.624 36.2005 401.283 37.1314 402.257 37.7901C403.259 38.4202 404.505 38.7353 405.995 38.7353C407.112 38.7353 408.071 38.5778 408.873 38.2627C409.704 37.9476 410.534 37.4321 411.365 36.7161L415.661 41.1841C413.398 43.7046 410.09 44.9648 405.737 44.9648C403.016 44.9648 400.624 44.4492 398.562 43.4181C396.5 42.3871 394.896 40.955 393.75 39.1219C392.633 37.2889 392.075 35.2124 392.075 32.8924C392.075 30.6011 392.619 28.5533 393.707 26.7489C394.824 24.9158 396.357 23.4838 398.304 22.4527C400.252 21.4216 402.443 20.906 404.878 20.906C407.198 20.906 409.303 21.3929 411.193 22.3667C413.083 23.3119 414.573 24.701 415.661 26.5341C416.778 28.3385 417.337 30.4866 417.337 32.9784ZM404.921 26.7059C403.66 26.7059 402.601 27.0639 401.741 27.78C400.911 28.496 400.381 29.4698 400.152 30.7014H409.689C409.46 29.4698 408.916 28.496 408.057 27.78C407.226 27.0639 406.181 26.7059 404.921 26.7059ZM436.266 20.906C439.159 20.906 441.478 21.7653 443.226 23.4838C445.001 25.2022 445.889 27.7943 445.889 31.2599V44.5781H437.726V32.5917C437.726 29.4125 436.452 27.8229 433.903 27.8229C432.499 27.8229 431.368 28.2812 430.509 29.1977C429.678 30.1142 429.263 31.489 429.263 33.3221V44.5781H421.1V21.2927H428.876V23.8275C429.793 22.8823 430.881 22.1663 432.141 21.6794C433.402 21.1638 434.776 20.906 436.266 20.906ZM166.274 66.5047H180.494C183.788 66.5047 186.709 67.1205 189.259 68.3521C191.808 69.5836 193.784 71.3308 195.187 73.5934C196.591 75.8561 197.292 78.5054 197.292 81.5414C197.292 84.5774 196.591 87.2267 195.187 89.4894C193.784 91.7521 191.808 93.4992 189.259 94.7308C186.709 95.9623 183.788 96.5781 180.494 96.5781H166.274V66.5047ZM180.151 89.7901C182.728 89.7901 184.79 89.0598 186.337 87.5991C187.912 86.1383 188.7 84.1191 188.7 81.5414C188.7 78.9637 187.912 76.9445 186.337 75.4838C184.79 74.0231 182.728 73.2927 180.151 73.2927H174.78V89.7901H180.151ZM225.182 84.9784C225.182 85.0357 225.139 85.7087 225.053 86.9976H208.126C208.47 88.2005 209.129 89.1314 210.102 89.7901C211.105 90.4202 212.351 90.7353 213.84 90.7353C214.957 90.7353 215.917 90.5778 216.719 90.2627C217.549 89.9476 218.38 89.4321 219.21 88.7161L223.507 93.1841C221.244 95.7046 217.936 96.9648 213.582 96.9648C210.861 96.9648 208.47 96.4492 206.408 95.4181C204.346 94.3871 202.742 92.955 201.596 91.1219C200.479 89.2889 199.92 87.2124 199.92 84.8924C199.92 82.6011 200.465 80.5533 201.553 78.7489C202.67 76.9158 204.202 75.4838 206.15 74.4527C208.098 73.4216 210.289 72.906 212.723 72.906C215.043 72.906 217.148 73.3929 219.039 74.3667C220.929 75.3119 222.418 76.701 223.507 78.5341C224.624 80.3385 225.182 82.4866 225.182 84.9784ZM212.766 78.7059C211.506 78.7059 210.446 79.0639 209.587 79.78C208.756 80.496 208.226 81.4698 207.997 82.7014H217.535C217.306 81.4698 216.762 80.496 215.902 79.78C215.072 79.0639 214.026 78.7059 212.766 78.7059ZM237.409 96.9648C235.462 96.9648 233.543 96.75 231.652 96.3204C229.762 95.8621 228.244 95.2749 227.098 94.5589L229.547 88.9738C230.607 89.6326 231.867 90.1625 233.328 90.5634C234.789 90.9358 236.235 91.1219 237.667 91.1219C238.985 91.1219 239.915 90.9931 240.46 90.7353C241.032 90.4489 241.319 90.0479 241.319 89.5324C241.319 89.0168 240.975 88.6588 240.288 88.4583C239.629 88.2292 238.569 88.0144 237.108 87.8139C235.247 87.5847 233.657 87.284 232.34 86.9117C231.051 86.5393 229.934 85.8519 228.989 84.8495C228.044 83.847 227.571 82.4436 227.571 80.6392C227.571 79.1499 228.015 77.8324 228.903 76.6867C229.791 75.5124 231.079 74.5959 232.769 73.9371C234.488 73.2497 236.536 72.906 238.913 72.906C240.603 72.906 242.278 73.0779 243.939 73.4216C245.601 73.7653 246.99 74.2522 248.107 74.8823L245.658 80.4244C243.596 79.2787 241.362 78.7059 238.956 78.7059C237.667 78.7059 236.722 78.8634 236.12 79.1785C235.519 79.4649 235.218 79.8516 235.218 80.3385C235.218 80.8827 235.548 81.2693 236.206 81.4984C236.865 81.6989 237.953 81.9137 239.471 82.1429C241.39 82.4293 242.98 82.7587 244.24 83.131C245.5 83.5033 246.589 84.1907 247.505 85.1932C248.45 86.167 248.923 87.5418 248.923 89.3175C248.923 90.7782 248.479 92.0958 247.591 93.27C246.703 94.4157 245.386 95.3179 243.639 95.9767C241.92 96.6354 239.844 96.9648 237.409 96.9648ZM252.441 73.2927H260.603V96.5781H252.441V73.2927ZM256.522 70.715C255.033 70.715 253.83 70.2997 252.913 69.4691C251.997 68.6385 251.538 67.6074 251.538 66.3758C251.538 65.1442 251.997 64.1131 252.913 63.2825C253.83 62.4519 255.033 62.0366 256.522 62.0366C258.011 62.0366 259.214 62.4376 260.131 63.2396C261.047 64.0129 261.506 65.0153 261.506 66.2469C261.506 67.5358 261.047 68.6098 260.131 69.4691C259.214 70.2997 258.011 70.715 256.522 70.715ZM290.955 73.2927V92.3249C290.955 96.6497 289.781 99.8862 287.432 102.034C285.084 104.211 281.704 105.299 277.293 105.299C275.002 105.299 272.854 105.042 270.849 104.526C268.844 104.011 267.14 103.252 265.736 102.249L268.701 96.5352C269.646 97.3085 270.834 97.9099 272.267 98.3396C273.727 98.7978 275.159 99.027 276.563 99.027C278.711 99.027 280.286 98.5544 281.289 97.6092C282.291 96.664 282.792 95.2606 282.792 93.3989V92.6256C281.217 94.4587 278.911 95.3752 275.875 95.3752C273.813 95.3752 271.909 94.9169 270.161 94.0004C268.414 93.0552 267.025 91.7377 265.994 90.0479C264.963 88.3294 264.447 86.3532 264.447 84.1191C264.447 81.9137 264.963 79.9661 265.994 78.2763C267.025 76.5578 268.414 75.2403 270.161 74.3238C271.909 73.3786 273.813 72.906 275.875 72.906C279.198 72.906 281.632 73.9801 283.179 76.1282V73.2927H290.955ZM277.809 88.8879C279.269 88.8879 280.472 88.444 281.417 87.5561C282.391 86.6682 282.878 85.5226 282.878 84.1191C282.878 82.7157 282.406 81.5844 281.46 80.7251C280.515 79.8372 279.298 79.3933 277.809 79.3933C276.319 79.3933 275.088 79.8372 274.114 80.7251C273.169 81.5844 272.696 82.7157 272.696 84.1191C272.696 85.5226 273.183 86.6682 274.157 87.5561C275.131 88.444 276.348 88.8879 277.809 88.8879ZM311.365 72.906C314.258 72.906 316.578 73.7653 318.325 75.4838C320.101 77.2022 320.989 79.7943 320.989 83.2599V96.5781H312.826V84.5917C312.826 81.4125 311.552 79.8229 309.002 79.8229C307.599 79.8229 306.468 80.2812 305.608 81.1977C304.778 82.1142 304.363 83.489 304.363 85.3221V96.5781H296.2V73.2927H303.976V75.8275C304.892 74.8823 305.981 74.1663 307.241 73.6794C308.501 73.1638 309.876 72.906 311.365 72.906ZM350.25 84.9784C350.25 85.0357 350.207 85.7087 350.121 86.9976H333.194C333.538 88.2005 334.197 89.1314 335.171 89.7901C336.173 90.4202 337.419 90.7353 338.908 90.7353C340.025 90.7353 340.985 90.5778 341.787 90.2627C342.617 89.9476 343.448 89.4321 344.279 88.7161L348.575 93.1841C346.312 95.7046 343.004 96.9648 338.651 96.9648C335.93 96.9648 333.538 96.4492 331.476 95.4181C329.414 94.3871 327.81 92.955 326.664 91.1219C325.547 89.2889 324.989 87.2124 324.989 84.8924C324.989 82.6011 325.533 80.5533 326.621 78.7489C327.738 76.9158 329.271 75.4838 331.218 74.4527C333.166 73.4216 335.357 72.906 337.791 72.906C340.111 72.906 342.216 73.3929 344.107 74.3667C345.997 75.3119 347.486 76.701 348.575 78.5341C349.692 80.3385 350.25 82.4866 350.25 84.9784ZM337.834 78.7059C336.574 78.7059 335.514 79.0639 334.655 79.78C333.825 80.496 333.295 81.4698 333.066 82.7014H342.603C342.374 81.4698 341.83 80.496 340.971 79.78C340.14 79.0639 339.095 78.7059 337.834 78.7059ZM361.79 76.0852C362.621 75.0255 363.695 74.2379 365.012 73.7223C366.358 73.1781 367.891 72.906 369.609 72.906V80.2525C368.864 80.1666 368.249 80.1237 367.762 80.1237C366.015 80.1237 364.64 80.5962 363.637 81.5414C362.664 82.4866 362.177 83.933 362.177 85.8806V96.5781H354.014V73.2927H361.79V76.0852ZM180.022 118.505C182.743 118.505 185.106 118.963 187.11 119.879C189.115 120.767 190.662 122.056 191.75 123.746C192.839 125.407 193.383 127.369 193.383 129.632C193.383 131.895 192.839 133.856 191.75 135.518C190.662 137.179 189.115 138.468 187.11 139.384C185.106 140.272 182.743 140.716 180.022 140.716H174.78V148.578H166.274V118.505H180.022ZM179.506 134.014C181.253 134.014 182.571 133.642 183.459 132.897C184.347 132.124 184.79 131.035 184.79 129.632C184.79 128.228 184.347 127.14 183.459 126.367C182.571 125.593 181.253 125.207 179.506 125.207H174.78V134.014H179.506ZM205.13 128.085C205.96 127.026 207.034 126.238 208.352 125.722C209.698 125.178 211.23 124.906 212.949 124.906V132.253C212.204 132.167 211.588 132.124 211.101 132.124C209.354 132.124 207.979 132.596 206.977 133.541C206.003 134.487 205.516 135.933 205.516 137.881V148.578H197.354V125.293H205.13V128.085ZM227.793 148.965C225.301 148.965 223.053 148.449 221.048 147.418C219.043 146.387 217.468 144.955 216.322 143.122C215.205 141.289 214.647 139.212 214.647 136.892C214.647 134.601 215.205 132.539 216.322 130.706C217.468 128.873 219.029 127.455 221.005 126.453C223.01 125.422 225.273 124.906 227.793 124.906C230.314 124.906 232.576 125.422 234.581 126.453C236.586 127.455 238.147 128.873 239.264 130.706C240.381 132.51 240.94 134.572 240.94 136.892C240.94 139.212 240.381 141.289 239.264 143.122C238.147 144.955 236.586 146.387 234.581 147.418C232.576 148.449 230.314 148.965 227.793 148.965ZM227.793 142.478C229.225 142.478 230.399 141.991 231.316 141.017C232.233 140.014 232.691 138.64 232.691 136.892C232.691 135.174 232.233 133.828 231.316 132.854C230.399 131.88 229.225 131.393 227.793 131.393C226.361 131.393 225.187 131.88 224.27 132.854C223.354 133.828 222.895 135.174 222.895 136.892C222.895 138.64 223.354 140.014 224.27 141.017C225.187 141.991 226.361 142.478 227.793 142.478ZM243.733 157.299C241.355 157.299 239.465 156.898 238.062 156.096L240.124 150.297C240.869 150.755 241.713 150.984 242.659 150.984C243.403 150.984 243.99 150.726 244.42 150.211C244.85 149.695 245.065 148.936 245.065 147.934V125.293H253.227V147.977C253.227 150.841 252.382 153.103 250.693 154.765C249.031 156.454 246.711 157.299 243.733 157.299ZM249.146 122.715C247.657 122.715 246.454 122.3 245.537 121.469C244.621 120.638 244.162 119.607 244.162 118.376C244.162 117.144 244.621 116.113 245.537 115.283C246.454 114.452 247.657 114.037 249.146 114.037C250.635 114.037 251.838 114.438 252.755 115.24C253.671 116.013 254.13 117.015 254.13 118.247C254.13 119.536 253.671 120.61 252.755 121.469C251.838 122.3 250.635 122.715 249.146 122.715ZM282.283 136.978C282.283 137.036 282.24 137.709 282.154 138.998H265.227C265.571 140.201 266.23 141.131 267.203 141.79C268.206 142.42 269.452 142.735 270.941 142.735C272.058 142.735 273.018 142.578 273.82 142.263C274.65 141.948 275.481 141.432 276.311 140.716L280.608 145.184C278.345 147.705 275.037 148.965 270.683 148.965C267.962 148.965 265.571 148.449 263.509 147.418C261.446 146.387 259.843 144.955 258.697 143.122C257.58 141.289 257.021 139.212 257.021 136.892C257.021 134.601 257.566 132.553 258.654 130.749C259.771 128.916 261.303 127.484 263.251 126.453C265.199 125.422 267.39 124.906 269.824 124.906C272.144 124.906 274.249 125.393 276.14 126.367C278.03 127.312 279.519 128.701 280.608 130.534C281.725 132.338 282.283 134.487 282.283 136.978ZM269.867 130.706C268.607 130.706 267.547 131.064 266.688 131.78C265.857 132.496 265.327 133.47 265.098 134.701H274.636C274.407 133.47 273.863 132.496 273.003 131.78C272.173 131.064 271.127 130.706 269.867 130.706ZM297.947 148.965C295.369 148.965 293.064 148.449 291.03 147.418C288.997 146.387 287.407 144.955 286.261 143.122C285.144 141.289 284.586 139.212 284.586 136.892C284.586 134.572 285.144 132.51 286.261 130.706C287.407 128.873 288.997 127.455 291.03 126.453C293.064 125.422 295.369 124.906 297.947 124.906C300.582 124.906 302.859 125.479 304.778 126.625C306.697 127.742 308.058 129.302 308.859 131.307L302.544 134.53C301.484 132.439 299.938 131.393 297.904 131.393C296.443 131.393 295.226 131.88 294.252 132.854C293.307 133.828 292.835 135.174 292.835 136.892C292.835 138.64 293.307 140.014 294.252 141.017C295.226 141.991 296.443 142.478 297.904 142.478C299.938 142.478 301.484 141.432 302.544 139.341L308.859 142.563C308.058 144.568 306.697 146.144 304.778 147.289C302.859 148.406 300.582 148.965 297.947 148.965ZM328.378 147.633C327.691 148.063 326.846 148.392 325.844 148.621C324.87 148.85 323.824 148.965 322.707 148.965C319.671 148.965 317.337 148.22 315.705 146.731C314.072 145.241 313.256 143.022 313.256 140.072V132.253H309.862V126.152H313.256V120.094H321.418V126.152H326.746V132.253H321.418V139.986C321.418 140.816 321.633 141.475 322.063 141.962C322.521 142.42 323.123 142.649 323.867 142.649C324.812 142.649 325.643 142.406 326.359 141.919L328.378 147.633Z" fill="#475CA7"/>
</svg>
