<svg width="12" height="16" viewBox="0 0 12 16" fill="none" xmlns="http://www.w3.org/2000/svg">
<path d="M11.8647 3.95049L8.17256 0.258278C8.08499 0.170678 7.96533 0.123047 7.84616 0.123047H1.38462C0.621139 0.123047 0 0.744186 0 1.50766V14.4923C0 15.2558 0.621139 15.8769 1.38462 15.8769H10.6154C11.3789 15.8769 12 15.2558 12 14.4923V4.27689C12 4.15025 11.9464 4.03206 11.8647 3.95049ZM8.30769 1.69883L10.4242 3.81536H8.76923C8.51474 3.81536 8.30769 3.60831 8.30769 3.35382V1.69883ZM10.6154 14.9538H1.38462C1.13012 14.9538 0.923077 14.7468 0.923077 14.4923V1.50766C0.923077 1.25317 1.13012 1.04612 1.38462 1.04612H7.38462V3.35382C7.38462 4.11729 8.00576 4.73843 8.76923 4.73843H11.0769V14.4923C11.0769 14.7468 10.8699 14.9538 10.6154 14.9538Z" fill="#475CA7"/>
<path d="M8.76931 7.57031H4.15392C3.89903 7.57031 3.69238 7.77696 3.69238 8.03185C3.69238 8.28674 3.89903 8.49339 4.15392 8.49339H8.76931C9.0242 8.49339 9.23085 8.28674 9.23085 8.03185C9.23085 7.77696 9.0242 7.57031 8.76931 7.57031Z" fill="#475CA7"/>
<path d="M8.76931 9.41602H4.15392C3.89903 9.41602 3.69238 9.62266 3.69238 9.87755C3.69238 10.1324 3.89903 10.3391 4.15392 10.3391H8.76931C9.0242 10.3391 9.23085 10.1324 9.23085 9.87755C9.23085 9.62266 9.0242 9.41602 8.76931 9.41602Z" fill="#475CA7"/>
<path d="M8.76931 11.2617H4.15392C3.89903 11.2617 3.69238 11.4684 3.69238 11.7233C3.69238 11.9781 3.89903 12.1848 4.15392 12.1848H8.76931C9.0242 12.1848 9.23085 11.9781 9.23085 11.7233C9.23085 11.4684 9.0242 11.2617 8.76931 11.2617Z" fill="#475CA7"/>
<path d="M2.30773 8.49339C2.56263 8.49339 2.76927 8.28675 2.76927 8.03185C2.76927 7.77695 2.56263 7.57031 2.30773 7.57031C2.05283 7.57031 1.84619 7.77695 1.84619 8.03185C1.84619 8.28675 2.05283 8.49339 2.30773 8.49339Z" fill="#475CA7"/>
<path d="M2.30773 10.3391C2.56263 10.3391 2.76927 10.1325 2.76927 9.87755C2.76927 9.62265 2.56263 9.41602 2.30773 9.41602C2.05283 9.41602 1.84619 9.62265 1.84619 9.87755C1.84619 10.1325 2.05283 10.3391 2.30773 10.3391Z" fill="#475CA7"/>
<path d="M2.30773 12.1848C2.56263 12.1848 2.76927 11.9782 2.76927 11.7233C2.76927 11.4684 2.56263 11.2617 2.30773 11.2617C2.05283 11.2617 1.84619 11.4684 1.84619 11.7233C1.84619 11.9782 2.05283 12.1848 2.30773 12.1848Z" fill="#475CA7"/>
</svg>
