<svg width="15" height="15" viewBox="0 0 15 15" fill="none" xmlns="http://www.w3.org/2000/svg">
<path d="M0.915847 0.97497C-0.18432 2.11772 0.040847 3.33164 0.040847 7.01947C0.040847 10.082 -0.493486 13.1521 2.30301 13.8748C3.17626 14.0994 10.9136 14.0994 11.7857 13.8736C12.95 13.5732 13.8973 12.6288 14.0268 10.9821C14.0449 10.7522 14.0449 3.2908 14.0263 3.0563C13.8886 1.30222 12.8088 0.291303 11.3861 0.086553C11.06 0.0393029 10.9947 0.0253029 9.32168 0.0223863C3.38743 0.0253029 2.0866 -0.238947 0.915847 0.97497Z" fill="#8593A8"/>
<path d="M7.03941 1.85264C4.92133 1.85264 2.91 1.66423 2.14175 3.6359C1.82442 4.45023 1.8705 5.50781 1.8705 7.02215C1.8705 8.35098 1.82792 9.5999 2.14175 10.4078C2.90825 12.3806 4.93591 12.1916 7.03825 12.1916C9.0665 12.1916 11.1577 12.4028 11.9353 10.4078C12.2532 9.58531 12.2066 8.54348 12.2066 7.02215C12.2066 5.00265 12.318 3.6989 11.3386 2.72006C10.3469 1.72839 9.00583 1.85264 7.03708 1.85264H7.03941ZM6.57625 2.78423C10.9944 2.77723 11.5567 2.28606 11.2464 9.10931C11.1362 11.5226 9.29866 11.2577 7.04 11.2577C2.92166 11.2577 2.80325 11.1399 2.80325 7.01981C2.80325 2.8519 3.12992 2.78656 6.57625 2.78306V2.78423ZM9.79858 3.64231C9.45616 3.64231 9.1785 3.91998 9.1785 4.2624C9.1785 4.60481 9.45616 4.88248 9.79858 4.88248C10.141 4.88248 10.4187 4.60481 10.4187 4.2624C10.4187 3.91998 10.141 3.64231 9.79858 3.64231ZM7.03941 4.3674C5.5735 4.3674 4.38525 5.55623 4.38525 7.02215C4.38525 8.48806 5.5735 9.67631 7.03941 9.67631C8.50533 9.67631 9.693 8.48806 9.693 7.02215C9.693 5.55623 8.50533 4.3674 7.03941 4.3674ZM7.03941 5.29898C9.31733 5.29898 9.32025 8.74531 7.03941 8.74531C4.76208 8.74531 4.75858 5.29898 7.03941 5.29898Z" fill="white"/>
</svg>
