<svg width="15" height="14" viewBox="0 0 15 14" fill="none" xmlns="http://www.w3.org/2000/svg">
<circle cx="7.5" cy="7" r="5" fill="white"/>
<path d="M10.0623 4.37891H4.56445L7.31336 6.73513L10.0623 4.37891Z" fill="#8593A8"/>
<path d="M7.31324 7.29843C7.25514 7.29843 7.19894 7.27764 7.15486 7.23974L4.1499 4.66406V9.2451H10.4766V4.66406L7.47162 7.23974C7.42754 7.27764 7.37134 7.29843 7.31324 7.29843Z" fill="#8593A8"/>
<path d="M7.31333 0C3.55046 0 0.5 3.05046 0.5 6.81333C0.5 10.5762 3.55046 13.6267 7.31333 13.6267C11.0762 13.6267 14.1267 10.5762 14.1267 6.81333C14.1224 3.05224 11.0744 0.00427734 7.31333 0ZM10.9633 9.49C10.9633 9.62438 10.8544 9.73333 10.72 9.73333H3.90667C3.77229 9.73333 3.66333 9.62438 3.66333 9.49V4.13667C3.66333 4.00229 3.77229 3.89333 3.90667 3.89333H10.72C10.8544 3.89333 10.9633 4.00229 10.9633 4.13667V9.49Z" fill="#8593A8"/>
</svg>
