<svg width="123" height="60" viewBox="0 0 123 60" fill="none" xmlns="http://www.w3.org/2000/svg">
<path d="M70.6399 7.96833H68.2104V6.53665H74.8265V7.96833H72.397V14.1289H70.6399V7.96833ZM79.1992 8.20694C79.9223 8.20694 80.5044 8.42387 80.9455 8.85771C81.3938 9.29155 81.6179 9.93509 81.6179 10.7883V14.1289H79.9259V11.0486C79.9259 10.5859 79.8247 10.2424 79.6222 10.0182C79.4198 9.78686 79.1269 9.67117 78.7437 9.67117C78.3171 9.67117 77.9772 9.80493 77.7242 10.0725C77.4711 10.3328 77.3446 10.7232 77.3446 11.2438V14.1289H75.6526V6.08111H77.3446V8.90109C77.5687 8.67694 77.8399 8.50702 78.158 8.39133C78.4762 8.26841 78.8232 8.20694 79.1992 8.20694ZM88.9311 11.233C88.9311 11.2547 88.9202 11.4065 88.8985 11.6885H84.4842C84.5637 12.0501 84.7517 12.3357 85.0482 12.5454C85.3446 12.7551 85.7134 12.8599 86.1545 12.8599C86.4581 12.8599 86.7257 12.8165 86.9571 12.7298C87.1957 12.6358 87.4162 12.4911 87.6187 12.2959L88.5189 13.2721C87.9694 13.9011 87.1668 14.2157 86.1111 14.2157C85.4531 14.2157 84.871 14.0891 84.3649 13.8361C83.8587 13.5758 83.4682 13.2178 83.1935 12.7623C82.9187 12.3068 82.7813 11.7898 82.7813 11.2113C82.7813 10.6401 82.9151 10.1267 83.1826 9.67117C83.4574 9.2084 83.8298 8.85048 84.2998 8.5974C84.777 8.3371 85.3085 8.20694 85.8942 8.20694C86.4654 8.20694 86.9824 8.32987 87.4451 8.57571C87.9079 8.82156 88.2694 9.17586 88.5298 9.63863C88.7973 10.0942 88.9311 10.6256 88.9311 11.233ZM85.905 9.48678C85.5218 9.48678 85.2 9.59524 84.9397 9.81216C84.6794 10.0291 84.5203 10.3255 84.4625 10.7015H87.3367C87.2788 10.3328 87.1198 10.0399 86.8595 9.82301C86.5991 9.59886 86.281 9.48678 85.905 9.48678ZM69.0672 19.5366H72.5163C73.3406 19.5366 74.0673 19.6957 74.6963 20.0139C75.3326 20.3248 75.8243 20.7659 76.1714 21.3371C76.5257 21.9083 76.7029 22.5736 76.7029 23.3328C76.7029 24.092 76.5257 24.7572 76.1714 25.3285C75.8243 25.8997 75.3326 26.3444 74.6963 26.6625C74.0673 26.9734 73.3406 27.1289 72.5163 27.1289H69.0672V19.5366ZM72.4295 25.6864C73.1887 25.6864 73.7925 25.4767 74.2408 25.0573C74.6963 24.6307 74.9241 24.0558 74.9241 23.3328C74.9241 22.6097 74.6963 22.0385 74.2408 21.6191C73.7925 21.1925 73.1887 20.9792 72.4295 20.9792H70.8243V25.6864H72.4295ZM83.6245 24.233C83.6245 24.2547 83.6137 24.4065 83.592 24.6885H79.1776C79.2572 25.0501 79.4452 25.3357 79.7416 25.5454C80.0381 25.7551 80.4069 25.8599 80.8479 25.8599C81.1516 25.8599 81.4192 25.8165 81.6505 25.7298C81.8892 25.6358 82.1097 25.4911 82.3121 25.2959L83.2124 26.2721C82.6628 26.9011 81.8602 27.2157 80.8045 27.2157C80.1465 27.2157 79.5645 27.0891 79.0583 26.8361C78.5522 26.5758 78.1617 26.2178 77.8869 25.7623C77.6122 25.3068 77.4748 24.7898 77.4748 24.2113C77.4748 23.6401 77.6086 23.1267 77.8761 22.6712C78.1509 22.2084 78.5233 21.8505 78.9932 21.5974C79.4705 21.3371 80.0019 21.2069 80.5876 21.2069C81.1588 21.2069 81.6758 21.3299 82.1386 21.5757C82.6014 21.8216 82.9629 22.1759 83.2232 22.6386C83.4908 23.0942 83.6245 23.6256 83.6245 24.233ZM80.5985 22.4868C80.2152 22.4868 79.8935 22.5952 79.6332 22.8122C79.3729 23.0291 79.2138 23.3255 79.1559 23.7015H82.0302C81.9723 23.3328 81.8132 23.0399 81.5529 22.823C81.2926 22.5989 80.9745 22.4868 80.5985 22.4868ZM88.2977 21.2069C89.0207 21.2069 89.6028 21.4239 90.0439 21.8577C90.4922 22.2916 90.7163 22.9351 90.7163 23.7883V27.1289H89.0244V24.0486C89.0244 23.5859 88.9231 23.2424 88.7207 23.0182C88.5182 22.7869 88.2254 22.6712 87.8421 22.6712C87.4155 22.6712 87.0757 22.8049 86.8226 23.0725C86.5695 23.3328 86.443 23.7232 86.443 24.2438V27.1289H84.751V21.2937H86.3671V21.977C86.5912 21.7312 86.8696 21.5432 87.2022 21.413C87.5348 21.2756 87.9 21.2069 88.2977 21.2069ZM92.25 21.2937H93.942V27.1289H92.25V21.2937ZM93.096 20.4803C92.7851 20.4803 92.532 20.3899 92.3368 20.2091C92.1416 20.0283 92.044 19.8042 92.044 19.5366C92.044 19.2691 92.1416 19.045 92.3368 18.8642C92.532 18.6834 92.7851 18.593 93.096 18.593C93.407 18.593 93.66 18.6798 93.8553 18.8533C94.0505 19.0269 94.1481 19.2438 94.1481 19.5041C94.1481 19.7861 94.0505 20.0211 93.8553 20.2091C93.66 20.3899 93.407 20.4803 93.096 20.4803ZM100.317 25.8274V27.1289H95.111V26.1094L98.0829 22.5952H95.187V21.2937H100.22V22.3132L97.2477 25.8274H100.317ZM107.043 24.233C107.043 24.2547 107.032 24.4065 107.011 24.6885H102.596C102.676 25.0501 102.864 25.3357 103.16 25.5454C103.457 25.7551 103.825 25.8599 104.267 25.8599C104.57 25.8599 104.838 25.8165 105.069 25.7298C105.308 25.6358 105.528 25.4911 105.731 25.2959L106.631 26.2721C106.081 26.9011 105.279 27.2157 104.223 27.2157C103.565 27.2157 102.983 27.0891 102.477 26.8361C101.971 26.5758 101.58 26.2178 101.306 25.7623C101.031 25.3068 100.893 24.7898 100.893 24.2113C100.893 23.6401 101.027 23.1267 101.295 22.6712C101.57 22.2084 101.942 21.8505 102.412 21.5974C102.889 21.3371 103.421 21.2069 104.006 21.2069C104.577 21.2069 105.094 21.3299 105.557 21.5757C106.02 21.8216 106.382 22.1759 106.642 22.6386C106.909 23.0942 107.043 23.6256 107.043 24.233ZM104.017 22.4868C103.634 22.4868 103.312 22.5952 103.052 22.8122C102.792 23.0291 102.632 23.3255 102.575 23.7015H105.449C105.391 23.3328 105.232 23.0399 104.972 22.823C104.711 22.5989 104.393 22.4868 104.017 22.4868ZM111.716 21.2069C112.439 21.2069 113.021 21.4239 113.463 21.8577C113.911 22.2916 114.135 22.9351 114.135 23.7883V27.1289H112.443V24.0486C112.443 23.5859 112.342 23.2424 112.139 23.0182C111.937 22.7869 111.644 22.6712 111.261 22.6712C110.834 22.6712 110.494 22.8049 110.241 23.0725C109.988 23.3328 109.862 23.7232 109.862 24.2438V27.1289H108.17V21.2937H109.786V21.977C110.01 21.7312 110.288 21.5432 110.621 21.413C110.953 21.2756 111.319 21.2069 111.716 21.2069ZM69.0672 32.5366H72.5163C73.3406 32.5366 74.0673 32.6957 74.6963 33.0139C75.3326 33.3248 75.8243 33.7659 76.1714 34.3371C76.5257 34.9083 76.7029 35.5736 76.7029 36.3328C76.7029 37.092 76.5257 37.7572 76.1714 38.3285C75.8243 38.8997 75.3326 39.3444 74.6963 39.6625C74.0673 39.9734 73.3406 40.1289 72.5163 40.1289H69.0672V32.5366ZM72.4295 38.6864C73.1887 38.6864 73.7925 38.4767 74.2408 38.0573C74.6963 37.6307 74.9241 37.0558 74.9241 36.3328C74.9241 35.6097 74.6963 35.0385 74.2408 34.6191C73.7925 34.1925 73.1887 33.9792 72.4295 33.9792H70.8243V38.6864H72.4295ZM83.6245 37.233C83.6245 37.2547 83.6137 37.4065 83.592 37.6885H79.1776C79.2572 38.0501 79.4452 38.3357 79.7416 38.5454C80.0381 38.7551 80.4069 38.8599 80.8479 38.8599C81.1516 38.8599 81.4192 38.8165 81.6505 38.7298C81.8892 38.6358 82.1097 38.4911 82.3121 38.2959L83.2124 39.2721C82.6628 39.9011 81.8602 40.2157 80.8045 40.2157C80.1465 40.2157 79.5645 40.0891 79.0583 39.8361C78.5522 39.5758 78.1617 39.2178 77.8869 38.7623C77.6122 38.3068 77.4748 37.7898 77.4748 37.2113C77.4748 36.6401 77.6086 36.1267 77.8761 35.6712C78.1509 35.2084 78.5233 34.8505 78.9932 34.5974C79.4705 34.3371 80.0019 34.2069 80.5876 34.2069C81.1588 34.2069 81.6758 34.3299 82.1386 34.5757C82.6014 34.8216 82.9629 35.1759 83.2232 35.6386C83.4908 36.0942 83.6245 36.6256 83.6245 37.233ZM80.5985 35.4868C80.2152 35.4868 79.8935 35.5952 79.6332 35.8122C79.3729 36.0291 79.2138 36.3255 79.1559 36.7015H82.0302C81.9723 36.3328 81.8132 36.0399 81.5529 35.823C81.2926 35.5989 80.9745 35.4868 80.5985 35.4868ZM86.7141 40.2157C86.2297 40.2157 85.7561 40.1578 85.2933 40.0421C84.8305 39.9192 84.4618 39.7674 84.187 39.5866L84.751 38.3718C85.0113 38.5381 85.3258 38.6755 85.6946 38.784C86.0634 38.8852 86.4249 38.9358 86.7792 38.9358C87.4951 38.9358 87.853 38.7587 87.853 38.4044C87.853 38.2381 87.7554 38.1188 87.5601 38.0465C87.3649 37.9742 87.0648 37.9127 86.6599 37.8621C86.1827 37.7898 85.7886 37.7066 85.4777 37.6126C85.1668 37.5186 84.8956 37.3523 84.6642 37.1137C84.4401 36.8751 84.328 36.5352 84.328 36.0942C84.328 35.7254 84.4328 35.4 84.6425 35.118C84.8595 34.8288 85.1704 34.6046 85.5753 34.4456C85.9874 34.2865 86.4719 34.2069 87.0287 34.2069C87.4408 34.2069 87.8494 34.2539 88.2543 34.3479C88.6664 34.4347 89.0063 34.5576 89.2738 34.7167L88.7098 35.9206C88.1964 35.6314 87.6361 35.4868 87.0287 35.4868C86.6671 35.4868 86.396 35.5374 86.2152 35.6386C86.0344 35.7399 85.9441 35.87 85.9441 36.0291C85.9441 36.2099 86.0417 36.3364 86.2369 36.4087C86.4321 36.481 86.7431 36.5497 87.1697 36.6148C87.6469 36.6943 88.0374 36.7811 88.341 36.8751C88.6447 36.9618 88.9087 37.1245 89.1328 37.3632C89.357 37.6018 89.469 37.9344 89.469 38.361C89.469 38.7225 89.3606 39.0443 89.1437 39.3263C88.9267 39.6083 88.6086 39.8288 88.1892 39.9879C87.7771 40.1398 87.2854 40.2157 86.7141 40.2157ZM90.513 34.2937H92.205V40.1289H90.513V34.2937ZM91.359 33.4803C91.048 33.4803 90.795 33.3899 90.5997 33.2091C90.4045 33.0283 90.3069 32.8042 90.3069 32.5366C90.3069 32.2691 90.4045 32.045 90.5997 31.8642C90.795 31.6834 91.048 31.593 91.359 31.593C91.6699 31.593 91.923 31.6798 92.1182 31.8533C92.3134 32.0269 92.411 32.2438 92.411 32.5041C92.411 32.7861 92.3134 33.0211 92.1182 33.2091C91.923 33.3899 91.6699 33.4803 91.359 33.4803ZM99.7949 34.2937V39.1528C99.7949 40.2229 99.5165 41.0183 98.9597 41.5389C98.4029 42.0595 97.5895 42.3198 96.5193 42.3198C95.9553 42.3198 95.4203 42.2511 94.9141 42.1137C94.408 41.9764 93.9886 41.7775 93.656 41.5172L94.3284 40.3024C94.5743 40.5049 94.8852 40.664 95.2612 40.7797C95.6372 40.9026 96.0132 40.9641 96.3892 40.9641C96.9749 40.9641 97.4051 40.8303 97.6799 40.5627C97.9619 40.3024 98.1029 39.9048 98.1029 39.3697V39.1202C97.6618 39.6047 97.0472 39.8469 96.259 39.8469C95.724 39.8469 95.2323 39.7312 94.784 39.4998C94.3429 39.2612 93.9922 38.9286 93.7319 38.502C93.4716 38.0754 93.3414 37.5837 93.3414 37.0269C93.3414 36.4702 93.4716 35.9785 93.7319 35.5519C93.9922 35.1252 94.3429 34.7962 94.784 34.5649C95.2323 34.3263 95.724 34.2069 96.259 34.2069C97.105 34.2069 97.7486 34.4853 98.1896 35.0421V34.2937H99.7949ZM96.5953 38.4586C97.0436 38.4586 97.4087 38.3285 97.6907 38.0682C97.9799 37.8006 98.1246 37.4535 98.1246 37.0269C98.1246 36.6003 97.9799 36.2569 97.6907 35.9965C97.4087 35.729 97.0436 35.5952 96.5953 35.5952C96.147 35.5952 95.7782 35.729 95.489 35.9965C95.1997 36.2569 95.0551 36.6003 95.0551 37.0269C95.0551 37.4535 95.1997 37.8006 95.489 38.0682C95.7782 38.3285 96.147 38.4586 96.5953 38.4586ZM104.916 34.2069C105.639 34.2069 106.221 34.4239 106.663 34.8577C107.111 35.2916 107.335 35.9351 107.335 36.7883V40.1289H105.643V37.0486C105.643 36.5859 105.542 36.2424 105.339 36.0182C105.137 35.7869 104.844 35.6712 104.461 35.6712C104.034 35.6712 103.694 35.8049 103.441 36.0725C103.188 36.3328 103.062 36.7232 103.062 37.2438V40.1289H101.37V34.2937H102.986V34.977C103.21 34.7312 103.488 34.5432 103.821 34.413C104.153 34.2756 104.519 34.2069 104.916 34.2069ZM114.648 37.233C114.648 37.2547 114.637 37.4065 114.616 37.6885H110.201C110.281 38.0501 110.469 38.3357 110.765 38.5454C111.062 38.7551 111.43 38.8599 111.872 38.8599C112.175 38.8599 112.443 38.8165 112.674 38.7298C112.913 38.6358 113.133 38.4911 113.336 38.2959L114.236 39.2721C113.686 39.9011 112.884 40.2157 111.828 40.2157C111.17 40.2157 110.588 40.0891 110.082 39.8361C109.576 39.5758 109.185 39.2178 108.911 38.7623C108.636 38.3068 108.498 37.7898 108.498 37.2113C108.498 36.6401 108.632 36.1267 108.9 35.6712C109.174 35.2084 109.547 34.8505 110.017 34.5974C110.494 34.3371 111.026 34.2069 111.611 34.2069C112.182 34.2069 112.699 34.3299 113.162 34.5757C113.625 34.8216 113.987 35.1759 114.247 35.6386C114.514 36.0942 114.648 36.6256 114.648 37.233ZM111.622 35.4868C111.239 35.4868 110.917 35.5952 110.657 35.8122C110.396 36.0291 110.237 36.3255 110.18 36.7015H113.054C112.996 36.3328 112.837 36.0399 112.577 35.823C112.316 35.5989 111.998 35.4868 111.622 35.4868ZM117.391 35.0638C117.593 34.7818 117.864 34.5685 118.204 34.4239C118.551 34.2793 118.949 34.2069 119.397 34.2069V35.7688C119.209 35.7543 119.083 35.7471 119.018 35.7471C118.533 35.7471 118.154 35.8845 117.879 36.1592C117.604 36.4268 117.467 36.8317 117.467 37.374V40.1289H115.775V34.2937H117.391V35.0638ZM72.3536 45.5366C73.026 45.5366 73.6081 45.6487 74.0998 45.8729C74.5987 46.097 74.9819 46.4152 75.2495 46.8273C75.517 47.2395 75.6508 47.7276 75.6508 48.2916C75.6508 48.8483 75.517 49.3364 75.2495 49.7558C74.9819 50.1679 74.5987 50.4861 74.0998 50.7102C73.6081 50.9272 73.026 51.0356 72.3536 51.0356H70.8243V53.1289H69.0672V45.5366H72.3536ZM72.256 49.6039C72.7838 49.6039 73.1851 49.4919 73.4599 49.2677C73.7346 49.0363 73.872 48.7109 73.872 48.2916C73.872 47.8649 73.7346 47.5396 73.4599 47.3154C73.1851 47.084 72.7838 46.9683 72.256 46.9683H70.8243V49.6039H72.256ZM78.402 48.0638C78.6044 47.7818 78.8756 47.5685 79.2154 47.4239C79.5625 47.2793 79.9602 47.2069 80.4085 47.2069V48.7688C80.2205 48.7543 80.094 48.7471 80.0289 48.7471C79.5444 48.7471 79.1648 48.8845 78.89 49.1592C78.6153 49.4268 78.4779 49.8317 78.4779 50.374V53.1289H76.7859V47.2937H78.402V48.0638ZM84.1382 53.2157C83.5236 53.2157 82.9704 53.0891 82.4787 52.8361C81.9943 52.5758 81.6147 52.2178 81.3399 51.7623C81.0651 51.3068 80.9277 50.7898 80.9277 50.2113C80.9277 49.6329 81.0651 49.1159 81.3399 48.6603C81.6147 48.2048 81.9943 47.8505 82.4787 47.5974C82.9704 47.3371 83.5236 47.2069 84.1382 47.2069C84.7528 47.2069 85.3023 47.3371 85.7868 47.5974C86.2713 47.8505 86.6509 48.2048 86.9256 48.6603C87.2004 49.1159 87.3378 49.6329 87.3378 50.2113C87.3378 50.7898 87.2004 51.3068 86.9256 51.7623C86.6509 52.2178 86.2713 52.5758 85.7868 52.8361C85.3023 53.0891 84.7528 53.2157 84.1382 53.2157ZM84.1382 51.8274C84.572 51.8274 84.9263 51.6828 85.2011 51.3935C85.4831 51.0971 85.6241 50.703 85.6241 50.2113C85.6241 49.7196 85.4831 49.3292 85.2011 49.0399C84.9263 48.7435 84.572 48.5952 84.1382 48.5952C83.7043 48.5952 83.3464 48.7435 83.0644 49.0399C82.7824 49.3292 82.6414 49.7196 82.6414 50.2113C82.6414 50.703 82.7824 51.0971 83.0644 51.3935C83.3464 51.6828 83.7043 51.8274 84.1382 51.8274ZM88.0349 55.3198C87.442 55.3198 86.9901 55.2114 86.6791 54.9944L87.1347 53.7688C87.3299 53.9062 87.5685 53.9749 87.8505 53.9749C88.0674 53.9749 88.2374 53.9026 88.3603 53.758C88.4832 53.6206 88.5447 53.4109 88.5447 53.1289V47.2937H90.2367V53.1181C90.2367 53.7977 90.0414 54.3328 89.651 54.7233C89.2677 55.121 88.729 55.3198 88.0349 55.3198ZM89.3907 46.4803C89.0797 46.4803 88.8267 46.3899 88.6314 46.2091C88.4362 46.0283 88.3386 45.8042 88.3386 45.5366C88.3386 45.2691 88.4362 45.045 88.6314 44.8642C88.8267 44.6834 89.0797 44.593 89.3907 44.593C89.7016 44.593 89.9547 44.6798 90.1499 44.8533C90.3451 45.0269 90.4427 45.2438 90.4427 45.5041C90.4427 45.7861 90.3451 46.0211 90.1499 46.2091C89.9547 46.3899 89.7016 46.4803 89.3907 46.4803ZM97.5105 50.233C97.5105 50.2547 97.4996 50.4065 97.4779 50.6885H93.0636C93.1431 51.0501 93.3311 51.3357 93.6276 51.5454C93.924 51.7551 94.2928 51.8599 94.7339 51.8599C95.0376 51.8599 95.3051 51.8165 95.5365 51.7298C95.7751 51.6358 95.9956 51.4911 96.1981 51.2959L97.0983 52.2721C96.5488 52.9011 95.7462 53.2157 94.6905 53.2157C94.0325 53.2157 93.4504 53.0891 92.9443 52.8361C92.4381 52.5758 92.0477 52.2178 91.7729 51.7623C91.4981 51.3068 91.3607 50.7898 91.3607 50.2113C91.3607 49.6401 91.4945 49.1267 91.7621 48.6712C92.0368 48.2084 92.4092 47.8505 92.8792 47.5974C93.3564 47.3371 93.8879 47.2069 94.4736 47.2069C95.0448 47.2069 95.5618 47.3299 96.0246 47.5757C96.4873 47.8216 96.8489 48.1759 97.1092 48.6386C97.3767 49.0942 97.5105 49.6256 97.5105 50.233ZM94.4844 48.4868C94.1012 48.4868 93.7794 48.5952 93.5191 48.8122C93.2588 49.0291 93.0997 49.3255 93.0419 49.7015H95.9161C95.8583 49.3328 95.6992 49.0399 95.4389 48.823C95.1786 48.5989 94.8604 48.4868 94.4844 48.4868ZM101.457 53.2157C100.835 53.2157 100.275 53.0891 99.7758 52.8361C99.2841 52.5758 98.8973 52.2178 98.6153 51.7623C98.3405 51.3068 98.2031 50.7898 98.2031 50.2113C98.2031 49.6329 98.3405 49.1159 98.6153 48.6603C98.8973 48.2048 99.2841 47.8505 99.7758 47.5974C100.275 47.3371 100.835 47.2069 101.457 47.2069C102.072 47.2069 102.607 47.3371 103.062 47.5974C103.525 47.8505 103.861 48.2156 104.071 48.6929L102.758 49.3979C102.455 48.8628 102.017 48.5952 101.446 48.5952C101.005 48.5952 100.64 48.7399 100.351 49.0291C100.061 49.3183 99.9168 49.7124 99.9168 50.2113C99.9168 50.7102 100.061 51.1043 100.351 51.3935C100.64 51.6828 101.005 51.8274 101.446 51.8274C102.025 51.8274 102.462 51.5598 102.758 51.0248L104.071 51.7406C103.861 52.2034 103.525 52.5649 103.062 52.8252C102.607 53.0855 102.072 53.2157 101.457 53.2157ZM108.893 52.8469C108.727 52.9698 108.521 53.0638 108.275 53.1289C108.037 53.1868 107.783 53.2157 107.516 53.2157C106.822 53.2157 106.283 53.0385 105.9 52.6842C105.524 52.3299 105.336 51.8093 105.336 51.1224V48.7254H104.436V47.4239H105.336V46.003H107.028V47.4239H108.481V48.7254H107.028V51.1007C107.028 51.3465 107.089 51.5381 107.212 51.6755C107.342 51.8057 107.523 51.8708 107.755 51.8708C108.022 51.8708 108.25 51.7985 108.438 51.6538L108.893 52.8469Z" fill="#475CA7"/>
<path d="M6.24964 12.5496C4.51616 15.454 3.64941 19.506 3.64941 24.7057C3.64941 29.1091 4.51615 32.7629 6.24963 35.6672C7.94372 38.5716 10.347 40.7498 13.4593 42.202C16.5717 43.701 20.2357 44.4505 24.4512 44.4505H25.558C25.7085 44.4505 25.8304 44.3286 25.8304 44.1782V38.5395C25.8304 38.389 25.7085 38.2671 25.558 38.2671H22.7374C18.8371 38.2671 15.7641 37.1428 13.5184 34.8943C11.2334 32.6926 10.0909 29.3199 10.0909 24.776C10.0909 20.9348 10.603 18.007 11.6274 15.9927C12.6517 13.9784 14.1094 12.5965 16.0005 11.847C17.8915 11.1443 20.1372 10.793 22.7374 10.793H27.37C27.5204 10.793 27.6424 10.9149 27.6424 11.0654L27.6424 16.5068C27.6424 16.6572 27.7643 16.7792 27.9147 16.7792H33.3387C33.4891 16.7792 33.611 16.6572 33.611 16.5068V5.163C33.611 5.01257 33.4891 4.89062 33.3387 4.89062H24.4512C20.2357 4.89062 16.5717 5.45275 13.4593 6.57701C10.347 7.70127 7.94372 9.69215 6.24964 12.5496Z" fill="#475CA7"/>
<path d="M57.6934 38.3659C57.6934 33.1662 56.8266 29.1141 55.0931 26.2098C53.3991 23.3523 50.9958 21.3614 47.8834 20.2372C44.7711 19.1129 41.1071 18.5508 36.8916 18.5508L28.6397 18.5508C28.1382 18.5508 27.7317 18.9573 27.7317 19.4587V57.2028C27.7317 57.7042 28.1382 58.1107 28.6397 58.1107H36.8916C41.1071 58.1107 44.7711 57.3612 47.8834 55.8622C50.9958 54.41 53.3991 52.2317 55.0931 49.3274C56.8266 46.4231 57.6934 42.7692 57.6934 38.3659ZM33.7004 25.3611C33.7004 24.8596 34.1069 24.4531 34.6083 24.4531L38.6054 24.4531C41.2056 24.4531 43.4512 24.8045 45.3423 25.5071C47.2334 26.2566 48.6911 27.6385 49.7154 29.6528C50.7397 31.6671 51.2519 34.5949 51.2519 38.4361C51.2519 42.98 50.1094 46.3528 47.8243 48.5545C45.5787 50.803 42.5057 51.9273 38.6054 51.9273H34.6083C34.1069 51.9273 33.7004 51.5208 33.7004 51.0193L33.7004 25.3611Z" fill="#475CA7"/>
</svg>
