<svg width="14" height="14" viewBox="0 0 14 14" fill="none" xmlns="http://www.w3.org/2000/svg">
<path d="M6.99998 0C10.8662 0 14 3.13425 14 7.00002C14 10.8662 10.8662 14 6.99998 14C3.13377 14 0 10.8662 0 7.00002C0 3.13425 3.13382 0 6.99998 0Z" fill="#8593A8"/>
<path d="M11.3762 4.7171C11.0704 4.84921 10.7414 4.93802 10.3962 4.97829C10.7489 4.77309 11.0192 4.44889 11.1465 4.06174C10.8167 4.25205 10.4518 4.38988 10.0628 4.46379C9.75177 4.14224 9.30858 3.94141 8.81773 3.94141C7.87624 3.94141 7.11237 4.68211 7.11237 5.59645C7.11237 5.7264 7.12727 5.85284 7.15653 5.97404C5.73903 5.90493 4.48166 5.24559 3.64081 4.24417C3.4938 4.48873 3.40979 4.77265 3.40979 5.07628C3.40979 5.65028 3.71078 6.15776 4.16843 6.45399C3.88844 6.44524 3.62591 6.37128 3.39538 6.24662V6.26762C3.39538 7.06998 3.98336 7.73894 4.76386 7.89119C4.62079 7.92882 4.47027 7.94938 4.31452 7.94938C4.20471 7.94938 4.09797 7.93934 3.99383 7.91964C4.21081 8.57764 4.84084 9.05624 5.58765 9.06941C5.00361 9.51389 4.26815 9.77816 3.46886 9.77816C3.33103 9.77816 3.19541 9.77028 3.06152 9.75499C3.81708 10.2249 4.71311 10.4992 5.6769 10.4992C8.81465 10.4992 10.5305 7.97567 10.5305 5.78815L10.5257 5.57377C10.8582 5.34098 11.1474 5.04961 11.3762 4.7171Z" fill="white"/>
</svg>
